<svg fill="none" height="25" viewBox="0 0 24 25" width="24" xmlns="http://www.w3.org/2000/svg" xmlns:xlink="http://www.w3.org/1999/xlink"><linearGradient id="paint0_linear_222_1782" gradientUnits="userSpaceOnUse" x1="11.5" x2="11.5" y1=".5" y2="23.5"><stop offset="0" stop-color="#fd7800"/><stop offset="1" stop-color="#ffc900"/></linearGradient><clipPath id="clip0_222_1782"><path d="m0 .5h24v24h-24z"/></clipPath><g clip-path="url(#clip0_222_1782)"><path d="m11.5.5c-6.341 0-11.5 5.159-11.5 11.5s5.159 11.5 11.5 11.5 11.5-5.159 11.5-11.5-5.159-11.5-11.5-11.5zm0 3c1.93 0 3.5 1.57 3.5 3.5s-1.57 3.5-3.5 3.5-3.5-1.57-3.5-3.5 1.57-3.5 3.5-3.5zm6 15h-12c-.276 0-.5-.224-.5-.5 0-3.584 2.916-6.5 6.5-6.5s6.5 2.916 6.5 6.5c0 .276-.224.5-.5.5z" fill="url(#paint0_linear_222_1782)"/></g></svg>