<svg width="1234" height="350" viewBox="0 0 1234 350" fill="none" xmlns="http://www.w3.org/2000/svg">
<mask id="mask0_2718_383" style="mask-type:alpha" maskUnits="userSpaceOnUse" x="0" y="0" width="1234" height="350">
<rect width="1234" height="350" rx="32" fill="white" fill-opacity="0.35"/>
</mask>
<g mask="url(#mask0_2718_383)">
<path d="M611.119 559.761C617.209 505.858 728.927 502.559 733.045 401.082C741.708 187.601 1046.71 636.033 1071.42 514.877C1120.75 273.007 1680.22 302.767 1692.35 264.194M632.614 375.909C648.604 424.501 699.108 504.332 773.206 434.918C865.829 348.151 913.973 178.786 1025.11 232.08C1136.26 285.374 1261.5 491.651 1318.18 359.169M612.038 544.226C618.6 495.204 727.402 495.863 734.852 395.914C747.514 188.466 1040.28 607.479 1069.11 494.631C1121.39 266.816 1660.18 304.981 1674.43 261.937M612.957 528.691C619.99 484.55 725.878 489.168 736.661 390.745C753.32 189.331 1033.86 578.926 1066.8 474.384C1122.02 260.625 1640.14 307.196 1656.51 259.679M613.876 513.156C621.381 473.896 724.353 482.472 738.468 385.576C759.126 190.196 1027.43 550.372 1064.49 454.138C1122.66 254.434 1620.09 309.41 1638.59 257.422M614.795 497.621C622.771 463.242 722.829 475.777 740.276 380.407C764.932 191.062 1021.01 521.819 1062.18 433.891C1123.29 248.243 1600.05 311.625 1620.66 255.165M615.714 482.086C624.162 452.588 721.304 469.081 742.084 375.239C770.738 191.927 1014.58 493.265 1059.87 413.645C1123.92 242.052 1580 313.839 1602.74 252.907M616.633 466.551C625.552 441.933 719.78 462.386 743.892 370.07C776.544 192.792 1008.16 464.711 1057.56 393.398C1124.56 235.861 1559.96 316.054 1584.82 250.65M617.552 451.016C626.942 431.279 718.255 455.69 745.7 364.901C782.35 193.657 1001.73 436.157 1055.25 373.152C1125.19 229.67 1539.92 318.268 1566.9 248.392M618.471 435.482C628.333 420.625 716.731 448.994 747.508 359.732C788.156 194.522 995.307 407.604 1052.94 352.905C1125.82 223.478 1519.87 320.482 1548.98 246.135M619.39 419.947C629.723 409.971 715.206 442.299 749.316 354.563C793.962 195.387 988.881 379.05 1050.63 332.658C1126.46 217.287 1499.83 322.697 1531.05 243.877M620.309 404.412C631.114 399.316 713.682 435.603 751.124 349.394C799.768 196.253 982.456 350.496 1048.32 312.412C1127.09 211.096 1479.79 324.911 1513.13 241.62M621.228 388.877C632.504 388.663 712.157 428.908 752.932 344.226C805.574 197.118 976.031 321.943 1046.02 292.166C1127.72 204.905 1459.74 327.126 1495.21 239.363M622.147 373.342C633.895 378.008 710.633 422.212 754.74 339.057C811.38 197.983 969.606 293.389 1043.71 271.919C1128.36 198.714 1439.7 329.34 1477.29 237.106M623.126 361.643C635.344 371.19 709.168 419.352 756.607 337.724C817.245 202.684 963.239 268.671 1041.46 255.508C1129.05 196.359 1419.71 335.39 1459.42 238.683M624.224 357.762C636.914 372.19 707.823 424.311 758.594 344.209C823.23 215.204 956.994 251.771 1039.33 246.916C1129.86 201.822 1399.85 349.259 1441.68 248.08M625.349 355.573C638.51 374.882 706.504 430.961 760.608 352.386C829.242 229.415 950.774 236.564 1037.22 240.015C1130.7 208.977 1380.01 364.819 1423.97 259.169M626.538 357.539C640.171 381.728 705.249 441.766 762.686 364.718C835.318 247.78 944.619 225.51 1035.18 237.269C1131.61 220.286 1360.24 384.534 1406.31 274.412M627.752 361.154C641.856 390.223 704.02 454.22 764.789 378.699C841.419 267.795 938.488 216.106 1033.17 236.172C1132.54 233.244 1340.49 405.898 1388.69 291.304M628.967 364.823C643.543 398.773 702.792 466.728 766.893 392.734C847.521 287.865 932.359 206.757 1031.15 235.13C1133.47 246.257 1320.74 427.317 1371.06 308.251M630.183 368.511C645.23 407.342 701.564 479.256 768.997 406.788C853.624 307.953 926.23 197.426 1029.14 234.106C1134.4 259.289 1301 448.754 1353.43 325.216M631.398 372.208C646.917 415.919 700.336 491.791 771.102 420.851C859.726 328.049 920.102 188.104 1027.13 233.091C1135.33 272.329 1281.25 470.2 1335.81 342.19" stroke="white" stroke-width="1.06549"/>
</g>
</svg>
