<svg width="40" height="40" viewBox="0 0 40 40" fill="none" xmlns="http://www.w3.org/2000/svg">
<path d="M37.1129 26.568C36.2785 26.1641 35.3739 25.925 34.4489 25.864C34.8524 24.8664 35.0719 23.8039 35.0969 22.728C35.2849 17.068 30.8009 12.96 28.8929 11.2L28.6929 11.02C28.4169 10.764 28.1649 10.512 27.9289 10.26C28.1725 10.0549 28.3682 9.79895 28.5023 9.51009C28.6364 9.22122 28.7055 8.90649 28.7049 8.58803V8.54803C28.7034 8.10831 28.5699 7.67916 28.3217 7.31616C28.0735 6.95316 27.7221 6.67303 27.3129 6.51203C27.7712 5.23381 28.0916 3.91031 28.2689 2.56403C28.2966 2.33441 28.2592 2.10161 28.1608 1.89227C28.0625 1.68293 27.9071 1.50551 27.7127 1.38031C27.5182 1.25511 27.2924 1.18718 27.0611 1.1843C26.8298 1.18142 26.6024 1.24371 26.4049 1.36403C25.7921 1.70344 25.137 1.96033 24.4569 2.12803C23.8011 2.29862 23.1126 2.29862 22.4569 2.12803C21.7723 1.9603 21.1132 1.70202 20.4969 1.36003C20.2981 1.24001 20.0695 1.17858 19.8374 1.18282C19.6053 1.18707 19.3791 1.25682 19.1849 1.38403C18.9918 1.50714 18.8381 1.6829 18.7417 1.89056C18.6453 2.09823 18.6103 2.32914 18.6409 2.55603C18.8208 3.90742 19.1425 5.23609 19.6009 6.52003C19.1906 6.67993 18.838 6.95968 18.589 7.32283C18.34 7.68599 18.2062 8.11571 18.2049 8.55603V8.59603C18.2048 8.9515 18.2914 9.30162 18.4573 9.616C18.6232 9.93038 18.8634 10.1995 19.1569 10.4C18.9769 10.592 18.7569 10.8 18.5249 11.02L18.3329 11.2C16.4009 12.96 11.9409 17.064 12.1249 22.724C12.1249 23.02 12.1609 23.304 12.1929 23.588H9.07688V22.304C9.07688 22.0919 8.99259 21.8884 8.84256 21.7383C8.69253 21.5883 8.48905 21.504 8.27688 21.504H2.59688C2.3847 21.504 2.18122 21.5883 2.03119 21.7383C1.88116 21.8884 1.79688 22.0919 1.79688 22.304V35.944C1.79688 36.1562 1.88116 36.3597 2.03119 36.5097C2.18122 36.6598 2.3847 36.744 2.59688 36.744H8.27688C8.48905 36.744 8.69253 36.6598 8.84256 36.5097C8.99259 36.3597 9.07688 36.1562 9.07688 35.944V34.904L17.7889 38.42C18.462 38.6732 19.1738 38.8086 19.8929 38.82C21.4929 38.82 22.8929 38.128 24.5289 37.312L24.7129 37.22H24.7529L37.1529 30.096C37.4758 29.9268 37.7452 29.6711 37.931 29.3574C38.1168 29.0437 38.2116 28.6845 38.2049 28.32C38.2077 27.9545 38.1065 27.5958 37.9131 27.2856C37.7198 26.9754 37.4423 26.7265 37.1129 26.568ZM20.6489 9.20003H20.4009C20.2446 9.20004 20.0946 9.13822 19.9837 9.02806C19.8728 8.9179 19.8099 8.76835 19.8089 8.61203V8.57203C19.8073 8.49329 19.8214 8.41501 19.8504 8.3418C19.8795 8.26858 19.9228 8.2019 19.978 8.14565C20.0331 8.0894 20.0989 8.04472 20.1715 8.01422C20.2441 7.98372 20.3221 7.96802 20.4009 7.96803H26.5169C26.6728 7.96803 26.8224 8.02998 26.9327 8.14026C27.0429 8.25053 27.1049 8.40009 27.1049 8.55603V8.59603C27.107 8.67459 27.0934 8.75277 27.0648 8.82597C27.0362 8.89917 26.9932 8.96589 26.9384 9.0222C26.8836 9.0785 26.8181 9.12325 26.7457 9.1538C26.6733 9.18434 26.5955 9.20006 26.5169 9.20003H20.6489ZM22.0329 3.68803C22.9633 3.9361 23.9425 3.9361 24.8729 3.68803C25.4558 3.535 26.0256 3.3357 26.5769 3.09203C26.3662 4.20747 26.0625 5.3033 25.6689 6.36803H21.2289C20.8381 5.30271 20.5357 4.20701 20.3249 3.09203C20.8778 3.33504 21.4488 3.53432 22.0329 3.68803ZM19.4129 12.4L19.6089 12.22C20.0929 11.7796 20.5447 11.3051 20.9609 10.8H26.2609C26.6752 11.2979 27.1229 11.7669 27.6009 12.204L27.8049 12.388C29.5529 13.988 33.6529 17.748 33.4889 22.672C33.4775 23.8303 33.1734 24.9669 32.6049 25.976C31.9914 26.1048 31.3962 26.3091 30.8329 26.584L26.5209 28.66C26.4051 28.0312 26.0746 27.4621 25.5858 27.0499C25.097 26.6377 24.4802 26.408 23.8409 26.4H19.2009C17.7626 24.9189 15.8702 23.9615 13.8249 23.68C13.7706 23.3464 13.7372 23.0098 13.7249 22.672C13.5649 17.748 17.6609 14 19.4129 12.4ZM3.41288 35.16V23.104H7.49288V35.144L3.41288 35.16ZM36.4009 28.652L24.0009 35.78L23.8409 35.86C21.6529 36.952 20.3289 37.612 18.3809 36.924L9.07688 33.2V25.2H12.5329C13.6098 25.2004 14.6745 25.4287 15.6569 25.87C16.6393 26.3112 17.5172 26.9553 18.2329 27.76C18.3078 27.8441 18.3996 27.9115 18.5023 27.9577C18.605 28.0038 18.7163 28.0278 18.8289 28.028H23.8409C24.1073 28.032 24.3639 28.1296 24.5657 28.3036C24.7675 28.4776 24.9017 28.7171 24.9449 28.98C24.9521 29.2012 24.8876 29.4187 24.7609 29.6C24.7609 29.6 24.7609 29.6 24.7369 29.632C24.6409 29.7532 24.5196 29.8518 24.3813 29.9209C24.2431 29.99 24.0914 30.028 23.9369 30.032H14.9889C14.7767 30.032 14.5732 30.1163 14.4232 30.2664C14.2732 30.4164 14.1889 30.6199 14.1889 30.832C14.1889 31.0442 14.2732 31.2477 14.4232 31.3977C14.5732 31.5478 14.7767 31.632 14.9889 31.632H23.9289C24.2721 31.6332 24.6122 31.5663 24.9294 31.4351C25.2466 31.304 25.5347 31.1112 25.7769 30.868C25.8289 30.816 25.8809 30.76 25.9289 30.704L31.5289 28.008C32.0322 27.7525 32.5719 27.5757 33.1289 27.484C34.2466 27.3222 35.3872 27.502 36.4009 28C36.4576 28.0257 36.5056 28.0674 36.539 28.12C36.5724 28.1726 36.5898 28.2338 36.5889 28.296C36.5945 28.3671 36.5798 28.4383 36.5465 28.5013C36.5133 28.5643 36.4627 28.6166 36.4009 28.652Z" fill="#FF9500"/>
<path d="M24.8023 22.1402H22.9623C22.9026 22.1407 22.8434 22.1294 22.788 22.1069C22.7327 22.0844 22.6824 22.0512 22.64 22.0092C22.5977 21.9672 22.564 21.9172 22.541 21.8621C22.5181 21.807 22.5062 21.7479 22.5063 21.6882C22.5063 21.476 22.422 21.2725 22.2719 21.1225C22.1219 20.9725 21.9184 20.8882 21.7063 20.8882C21.4941 20.8882 21.2906 20.9725 21.1406 21.1225C20.9905 21.2725 20.9062 21.476 20.9062 21.6882C20.9073 22.2328 21.1244 22.7547 21.5099 23.1394C21.8953 23.5241 22.4177 23.7402 22.9623 23.7402H23.0823V24.3402C23.0823 24.5523 23.1665 24.7558 23.3166 24.9059C23.4666 25.0559 23.6701 25.1402 23.8823 25.1402C24.0944 25.1402 24.2979 25.0559 24.4479 24.9059C24.598 24.7558 24.6823 24.5523 24.6823 24.3402V23.7402H24.8023C25.0717 23.7402 25.3386 23.6871 25.5875 23.584C25.8365 23.4809 26.0627 23.3297 26.2532 23.1392C26.4438 22.9486 26.5949 22.7224 26.6981 22.4734C26.8012 22.2245 26.8542 21.9576 26.8542 21.6882V20.3602C26.8532 19.8163 26.6367 19.295 26.2521 18.9104C25.8675 18.5258 25.3462 18.3092 24.8023 18.3082H22.9623C22.9026 18.3087 22.8434 18.2974 22.788 18.2749C22.7327 18.2524 22.6824 18.2192 22.64 18.1772C22.5977 18.1352 22.564 18.0852 22.541 18.0301C22.5181 17.975 22.5062 17.9159 22.5063 17.8562V16.5282C22.5073 16.4079 22.5558 16.293 22.6412 16.2083C22.7266 16.1237 22.842 16.0762 22.9623 16.0762H24.8023C24.9218 16.0772 25.0362 16.1252 25.1207 16.2097C25.2053 16.2943 25.2532 16.4086 25.2543 16.5282C25.2543 16.7403 25.3385 16.9438 25.4886 17.0939C25.6386 17.2439 25.8421 17.3282 26.0543 17.3282C26.2664 17.3282 26.4699 17.2439 26.6199 17.0939C26.77 16.9438 26.8542 16.7403 26.8542 16.5282C26.8542 16.2587 26.8012 15.9919 26.6981 15.7429C26.5949 15.4939 26.4438 15.2677 26.2532 15.0772C26.0627 14.8866 25.8365 14.7355 25.5875 14.6324C25.3386 14.5292 25.0717 14.4762 24.8023 14.4762H24.6823V13.8762C24.6823 13.664 24.598 13.4605 24.4479 13.3105C24.2979 13.1605 24.0944 13.0762 23.8823 13.0762C23.6701 13.0762 23.4666 13.1605 23.3166 13.3105C23.1665 13.4605 23.0823 13.664 23.0823 13.8762V14.4762H22.9623C22.4177 14.4762 21.8953 14.6922 21.5099 15.0769C21.1244 15.4617 20.9073 15.9836 20.9062 16.5282V17.8562C20.9073 18.4008 21.1244 18.9227 21.5099 19.3074C21.8953 19.6921 22.4177 19.9082 22.9623 19.9082H24.8023C24.9218 19.9092 25.0362 19.9572 25.1207 20.0417C25.2053 20.1263 25.2532 20.2406 25.2543 20.3602V21.6882C25.2543 21.8081 25.2066 21.923 25.1219 22.0078C25.0371 22.0926 24.9221 22.1402 24.8023 22.1402Z" fill="#FF9500"/>
</svg>
