<svg width="44" height="44" viewBox="0 0 44 44" fill="none" xmlns="http://www.w3.org/2000/svg">
<path d="M43.4637 21.7319C43.4637 33.7381 33.738 43.4637 21.7319 43.4637C16.869 43.4637 12.3751 41.8707 8.73635 39.1542L11.4696 36.421C11.8217 36.0689 12.3751 36.0186 12.7943 36.2869C15.4605 37.9805 18.6297 38.953 22.0169 38.953C31.5917 38.953 39.3387 31.206 39.3387 21.6313C39.3387 21.2791 39.3219 20.9102 39.3052 20.5581C39.2716 20.0047 38.8021 19.5687 38.2488 19.5687H35.2304C34.6268 19.5687 34.1237 20.0886 34.174 20.709C34.2076 21.0444 34.2076 21.3797 34.2076 21.7319C34.2076 28.5231 28.7075 34.0231 21.9163 34.0231C19.6023 34.0231 17.4392 33.3859 15.5946 32.2792C13.9681 31.3066 12.5763 29.9484 11.5702 28.3554C10.3461 26.4438 9.64184 24.1633 9.64184 21.7319C9.64184 20.9941 9.70891 20.2898 9.82629 19.5855C10.8492 13.8172 15.8797 9.44062 21.9331 9.44062C23.8279 9.44062 25.6389 9.8766 27.2487 10.6479C27.9026 10.9665 28.0536 11.8385 27.5505 12.3416L24.5154 15.3934L20.3401 19.5855L16.148 23.7776C15.8126 24.113 15.7455 24.6328 15.9803 25.0352C16.6678 26.2593 17.7074 27.2654 18.9818 27.8691C19.3843 28.0703 19.8706 27.9865 20.1892 27.6679L28.2715 19.5687L28.3889 19.4514L32.4636 15.3599L35.5323 12.2912C35.9012 11.9056 35.9515 11.3019 35.6161 10.8827C34.6436 9.65861 33.5033 8.55189 32.2457 7.62963C29.3783 5.53358 25.8569 4.29272 22.0337 4.29272C13.1632 4.29272 5.85217 10.9665 4.8293 19.552C4.74546 20.2227 4.71193 20.9102 4.71193 21.6145C4.71193 25.1526 5.76834 28.4392 7.57933 31.1725C7.84762 31.5917 7.79731 32.1451 7.44518 32.4972L4.79577 35.1466C4.76223 35.1801 4.74546 35.2137 4.71193 35.2472C1.76068 31.5414 0 26.8462 0 21.7319C0 9.72568 9.72568 0 21.7319 0C33.738 0 43.4637 9.72568 43.4637 21.7319Z" fill="#1E1E1E"/>
</svg>
