<svg width="428" height="295" viewBox="0 0 428 295" fill="none" xmlns="http://www.w3.org/2000/svg">
<g clip-path="url(#clip0_2718_395)">
<g opacity="0.6">
<path d="M31.2363 0V225.741" stroke="#DAE4F4" stroke-width="0.8946" stroke-miterlimit="10"/>
<path d="M50.0098 0V225.741" stroke="#DAE4F4" stroke-width="0.8946" stroke-miterlimit="10"/>
<path d="M68.7031 0V225.741" stroke="#DAE4F4" stroke-width="0.8946" stroke-miterlimit="10"/>
<path d="M87.4785 0V225.741" stroke="#DAE4F4" stroke-width="0.8946" stroke-miterlimit="10"/>
<path d="M106.17 0V225.741" stroke="#DAE4F4" stroke-width="0.8946" stroke-miterlimit="10"/>
<path d="M124.945 0V225.741" stroke="#DAE4F4" stroke-width="0.8946" stroke-miterlimit="10"/>
<path d="M143.639 0V225.741" stroke="#DAE4F4" stroke-width="0.8946" stroke-miterlimit="10"/>
<path d="M162.332 0V225.741" stroke="#DAE4F4" stroke-width="0.8946" stroke-miterlimit="10"/>
<path d="M181.105 0V225.741" stroke="#DAE4F4" stroke-width="0.8946" stroke-miterlimit="10"/>
<path d="M199.799 0V225.741" stroke="#DAE4F4" stroke-width="0.8946" stroke-miterlimit="10"/>
<path d="M218.572 0V225.741" stroke="#DAE4F4" stroke-width="0.8946" stroke-miterlimit="10"/>
<path d="M237.266 0V225.741" stroke="#DAE4F4" stroke-width="0.8946" stroke-miterlimit="10"/>
<path d="M256.039 0V225.741" stroke="#DAE4F4" stroke-width="0.8946" stroke-miterlimit="10"/>
<path d="M274.732 0V225.741" stroke="#DAE4F4" stroke-width="0.8946" stroke-miterlimit="10"/>
<path d="M293.506 0V225.741" stroke="#DAE4F4" stroke-width="0.8946" stroke-miterlimit="10"/>
<path d="M312.199 0V225.741" stroke="#DAE4F4" stroke-width="0.8946" stroke-miterlimit="10"/>
<path d="M330.893 0V225.741" stroke="#DAE4F4" stroke-width="0.8946" stroke-miterlimit="10"/>
<path d="M349.668 0V225.741" stroke="#DAE4F4" stroke-width="0.8946" stroke-miterlimit="10"/>
<path d="M368.359 0V225.741" stroke="#DAE4F4" stroke-width="0.8946" stroke-miterlimit="10"/>
<path d="M387.135 0V225.741" stroke="#DAE4F4" stroke-width="0.8946" stroke-miterlimit="10"/>
<path d="M405.828 0V225.741" stroke="#DAE4F4" stroke-width="0.8946" stroke-miterlimit="10"/>
<path d="M425.896 18.7778H11.248" stroke="#DAE4F4" stroke-width="0.8946" stroke-miterlimit="10"/>
<path d="M425.896 37.6372H11.248" stroke="#DAE4F4" stroke-width="0.8946" stroke-miterlimit="10"/>
<path d="M425.896 56.415H11.248" stroke="#DAE4F4" stroke-width="0.8946" stroke-miterlimit="10"/>
<path d="M425.896 75.1929H11.248" stroke="#DAE4F4" stroke-width="0.8946" stroke-miterlimit="10"/>
<path d="M425.896 94.0522H11.248" stroke="#DAE4F4" stroke-width="0.8946" stroke-miterlimit="10"/>
<path d="M425.896 112.83H11.248" stroke="#DAE4F4" stroke-width="0.8946" stroke-miterlimit="10"/>
<path d="M425.896 131.689H11.248" stroke="#DAE4F4" stroke-width="0.8946" stroke-miterlimit="10"/>
<path d="M425.896 150.467H11.248" stroke="#DAE4F4" stroke-width="0.8946" stroke-miterlimit="10"/>
<path d="M425.896 169.326H11.248" stroke="#DAE4F4" stroke-width="0.8946" stroke-miterlimit="10"/>
<path d="M425.896 188.104H11.248" stroke="#DAE4F4" stroke-width="0.8946" stroke-miterlimit="10"/>
<path d="M425.896 206.963H11.248" stroke="#DAE4F4" stroke-width="0.8946" stroke-miterlimit="10"/>
</g>
<path d="M426.624 231.594L420.474 225.416V230.131H7.60673V6.6658H12.3812L6.15012 0.487793L0 6.6658H4.77444V233.057H420.474V237.772L426.624 231.594Z" fill="#004703"/>
<g opacity="0.8">
<path opacity="0.8" d="M50.4964 228.017H16.5898V99.9863L50.4964 142.663V228.017Z" fill="url(#paint0_linear_2718_395)"/>
<path opacity="0.8" d="M94.7621 228.018H60.8555V153.638L68.624 163.311L94.7621 142.013V228.018Z" fill="url(#paint1_linear_2718_395)"/>
<path opacity="0.8" d="M139.026 228.018H105.119V135.104L115.882 126.649L139.026 152.012V228.018Z" fill="url(#paint2_linear_2718_395)"/>
<path opacity="0.8" d="M183.291 228.017H149.385V166.237L183.291 207.451V228.017Z" fill="url(#paint3_linear_2718_395)"/>
<path opacity="0.8" d="M214.121 228.017H227.554V216.555L214.121 228.017Z" fill="url(#paint4_linear_2718_395)"/>
<path opacity="0.8" d="M193.648 228.017H202.388L193.648 219.157V228.017Z" fill="url(#paint5_linear_2718_395)"/>
<path opacity="0.8" d="M271.821 228.017H237.914V205.744L271.821 174.935V228.017Z" fill="url(#paint6_linear_2718_395)"/>
<path opacity="0.8" d="M316.084 228.017H282.178V168.676L316.084 137.054V228.017Z" fill="url(#paint7_linear_2718_395)"/>
<path opacity="0.8" d="M360.43 228.017H326.523V128.844L360.43 98.0352V228.017Z" fill="url(#paint8_linear_2718_395)"/>
</g>
<path d="M365.124 68.4463L207.568 211.11L206.516 228.018L372.569 77.5507L365.124 68.4463Z" fill="url(#paint9_linear_2718_395)"/>
<path d="M372.244 98.442L367.065 72.348L343.598 62.8371L390.371 49.4243L372.244 98.442Z" fill="#00E618"/>
<path d="M118.714 103.644L70.6461 140.387L5.74609 60.4795V78.8509L68.8658 156.564L117.015 119.74L206.515 228.017L207.567 211.109L118.714 103.644Z" fill="url(#paint10_linear_2718_395)"/>
<path d="M112.968 159.327C112.321 159.327 111.835 160.059 111.673 161.034H110.379C110.298 159.165 109.57 157.539 108.437 156.238L109.327 155.344C110.055 155.913 110.945 156.076 111.431 155.669C111.916 155.182 111.673 154.125 110.864 153.231C110.055 152.418 109.003 152.174 108.437 152.662C108.032 153.068 108.113 153.962 108.76 154.775L107.87 155.669C106.575 154.531 104.957 153.8 103.096 153.718V152.418C104.067 152.336 104.795 151.767 104.795 151.117C104.795 150.385 103.824 149.816 102.691 149.816C101.558 149.816 100.587 150.385 100.587 151.117C100.587 151.767 101.315 152.255 102.286 152.418V153.718C100.425 153.8 98.8068 154.531 97.512 155.669L96.6219 154.775C97.1883 154.043 97.3502 153.149 96.9456 152.662C96.46 152.174 95.408 152.418 94.5179 153.231C93.7087 154.043 93.4659 155.1 93.9514 155.669C94.356 156.076 95.2462 155.994 96.0554 155.344L96.9456 156.238C95.8127 157.539 95.0844 159.165 95.0034 161.034H93.7087C93.6277 160.059 93.0613 159.327 92.4139 159.327C91.6856 159.327 91.1191 160.303 91.1191 161.441C91.1191 162.579 91.6856 163.554 92.4139 163.554C93.0613 163.554 93.5468 162.823 93.7087 161.847H95.0034C95.0844 163.717 95.8127 165.343 96.9456 166.643L96.0554 167.538C95.3271 166.969 94.437 166.806 93.9514 167.212C93.4659 167.7 93.7087 168.757 94.5179 169.651C95.3271 170.464 96.3791 170.708 96.9456 170.22C97.3502 169.814 97.2693 168.919 96.6219 168.107L97.512 167.212C98.8068 168.35 100.425 169.082 102.286 169.163V170.464C101.315 170.545 100.587 171.114 100.587 171.765C100.587 172.496 101.558 173.065 102.691 173.065C103.824 173.065 104.795 172.496 104.795 171.765C104.795 171.114 104.067 170.627 103.096 170.464V169.163C104.957 169.082 106.575 168.35 107.87 167.212L108.76 168.107C108.194 168.838 108.032 169.732 108.437 170.22C108.922 170.708 109.974 170.464 110.864 169.651C111.673 168.838 111.916 167.781 111.431 167.212C111.026 166.806 110.136 166.887 109.327 167.538L108.437 166.643C109.57 165.343 110.298 163.717 110.379 161.847H111.673C111.754 162.823 112.321 163.554 112.968 163.554C113.697 163.554 114.263 162.579 114.263 161.441C114.263 160.303 113.697 159.327 112.968 159.327Z" fill="#DAE4F4"/>
<path d="M35.5249 170.952C34.8775 170.952 34.392 171.683 34.2301 172.659H32.9354C32.8545 170.789 32.1261 169.163 30.9932 167.863L31.8834 166.969C32.6117 167.538 33.5018 167.7 33.9874 167.294C34.4729 166.806 34.2301 165.749 33.4209 164.855C32.6117 164.042 31.5597 163.798 30.9932 164.286C30.5886 164.693 30.6695 165.587 31.3169 166.4L30.4268 167.294C29.132 166.156 27.5136 165.424 25.6523 165.343V164.042C26.6234 163.961 27.3517 163.392 27.3517 162.742C27.3517 162.01 26.3806 161.441 25.2477 161.441C24.1148 161.441 23.1437 162.01 23.1437 162.742C23.1437 163.392 23.872 163.88 24.8431 164.042V165.343C22.9819 165.424 21.3634 166.156 20.0687 167.294L19.1785 166.4C19.745 165.668 19.9068 164.774 19.5022 164.286C19.0167 163.798 17.9647 164.042 17.0745 164.855C16.1844 165.668 16.0225 166.725 16.5081 167.294C16.9127 167.7 17.8028 167.619 18.6121 166.969L19.5022 167.863C18.3693 169.163 17.641 170.789 17.5601 172.659H16.2653C16.1844 171.683 15.6179 170.952 14.9705 170.952C14.2422 170.952 13.6758 171.927 13.6758 173.065C13.6758 174.203 14.2422 175.179 14.9705 175.179C15.6179 175.179 16.1035 174.447 16.2653 173.472H17.5601C17.641 175.341 18.3693 176.967 19.5022 178.268L18.6121 179.162C17.8838 178.593 16.9936 178.43 16.5081 178.837C16.0225 179.325 16.2653 180.381 17.0745 181.276C17.8838 182.088 18.9358 182.332 19.5022 181.845C19.9068 181.438 19.8259 180.544 19.1785 179.731L20.0687 178.837C21.3634 179.975 22.9819 180.707 24.8431 180.788V182.088C23.872 182.17 23.1437 182.739 23.1437 183.389C23.1437 184.121 24.1148 184.69 25.2477 184.69C26.3806 184.69 27.3517 184.121 27.3517 183.389C27.3517 182.739 26.6234 182.251 25.6523 182.088V180.788C27.5136 180.707 29.132 179.975 30.4268 178.837L31.3169 179.731C30.7505 180.463 30.5886 181.357 30.9932 181.845C31.4788 182.332 32.5308 182.088 33.4209 181.276C34.2301 180.463 34.4729 179.406 33.9874 178.837C33.5828 178.43 32.6926 178.512 31.8834 179.162L30.9932 178.268C32.1261 176.967 32.8545 175.341 32.9354 173.472H34.2301C34.3111 174.447 34.8775 175.179 35.5249 175.179C36.2532 175.179 36.8197 174.203 36.8197 173.065C36.8197 171.927 36.1723 170.952 35.5249 170.952Z" fill="#DAE4F4"/>
<path d="M134.008 159.897C134.412 159.897 134.655 159.49 134.736 158.921H135.464C135.545 159.978 135.95 161.035 136.597 161.766L136.031 162.335C135.545 162.01 135.06 161.929 134.817 162.173C134.493 162.498 134.655 163.148 135.141 163.636C135.626 164.124 136.273 164.286 136.597 163.961C136.84 163.717 136.759 163.148 136.435 162.742L137.002 162.173C137.73 162.823 138.782 163.311 139.834 163.311V164.043C139.268 164.124 138.863 164.449 138.863 164.774C138.863 165.181 139.429 165.506 140.158 165.506C140.886 165.506 141.452 165.181 141.452 164.774C141.452 164.368 141.048 164.124 140.481 164.043V163.311C141.533 163.23 142.585 162.823 143.314 162.173L143.88 162.742C143.556 163.23 143.476 163.717 143.718 163.961C144.042 164.286 144.689 164.124 145.175 163.636C145.66 163.148 145.822 162.498 145.499 162.173C145.256 161.929 144.689 162.01 144.285 162.335L143.718 161.766C144.366 161.035 144.851 159.978 144.851 158.921H145.58C145.66 159.49 145.984 159.897 146.308 159.897C146.712 159.897 147.036 159.328 147.036 158.596C147.036 157.865 146.712 157.296 146.308 157.296C145.903 157.296 145.66 157.702 145.58 158.271H144.851C144.77 157.214 144.366 156.157 143.718 155.426L144.285 154.857C144.77 155.182 145.256 155.263 145.499 155.019C145.822 154.694 145.66 154.044 145.175 153.556C144.689 153.068 144.042 152.906 143.718 153.231C143.476 153.475 143.556 154.044 143.88 154.45L143.314 155.019C142.585 154.369 141.533 153.881 140.481 153.881V153.15C141.048 153.068 141.452 152.743 141.452 152.418C141.452 152.012 140.886 151.687 140.158 151.687C139.429 151.687 138.863 152.012 138.863 152.418C138.863 152.825 139.268 153.068 139.834 153.15V153.881C138.782 153.963 137.73 154.369 137.002 155.019L136.435 154.45C136.759 153.963 136.84 153.475 136.597 153.231C136.273 152.906 135.626 153.068 135.141 153.556C134.655 154.044 134.493 154.694 134.817 155.019C135.06 155.263 135.626 155.182 136.031 154.857L136.597 155.426C135.95 156.157 135.464 157.214 135.464 158.271H134.736C134.655 157.702 134.331 157.296 134.008 157.296C133.603 157.296 133.279 157.865 133.279 158.596C133.279 159.328 133.603 159.897 134.008 159.897Z" fill="#DAE4F4"/>
<path d="M144.771 192.494C144.771 190.705 143.881 189.324 142.829 189.324C141.858 189.324 141.13 190.38 140.968 191.844H139.107C138.945 189.08 137.893 186.56 136.113 184.609L137.407 183.308C138.54 184.202 139.916 184.446 140.563 183.796C141.292 183.064 140.887 181.438 139.673 180.138C138.459 178.919 136.841 178.512 136.032 179.244C135.384 179.894 135.627 181.195 136.517 182.414L135.222 183.715C133.28 182.008 130.772 180.869 128.02 180.707V178.837C129.477 178.675 130.529 177.862 130.529 176.968C130.529 175.911 129.072 175.017 127.373 175.017C125.593 175.017 124.217 175.911 124.217 176.968C124.217 177.943 125.269 178.675 126.726 178.837V180.707C123.974 180.869 121.466 181.926 119.523 183.715L118.229 182.414C119.119 181.276 119.362 179.894 118.714 179.244C117.986 178.512 116.368 178.919 115.073 180.138C113.859 181.357 113.454 182.983 114.183 183.796C114.83 184.446 116.125 184.202 117.339 183.308L118.633 184.609C116.934 186.56 115.801 189.08 115.639 191.844H113.778C113.616 190.38 112.807 189.324 111.917 189.324C110.865 189.324 109.975 190.787 109.975 192.494C109.975 194.282 110.865 195.664 111.917 195.664C112.888 195.664 113.616 194.607 113.778 193.144H115.639C115.801 195.908 116.853 198.428 118.633 200.379L117.339 201.68C116.206 200.785 114.83 200.542 114.183 201.192C113.454 201.923 113.859 203.549 115.073 204.85C116.287 206.069 117.905 206.476 118.714 205.744C119.362 205.094 119.119 203.793 118.229 202.574L119.523 201.273C121.466 202.98 123.974 204.118 126.726 204.281V206.151C125.269 206.313 124.217 207.126 124.217 208.02C124.217 209.077 125.674 209.971 127.373 209.971C129.153 209.971 130.529 209.077 130.529 208.02C130.529 207.045 129.477 206.313 128.02 206.151V204.281C130.772 204.118 133.28 203.062 135.222 201.273L136.517 202.574C135.627 203.712 135.384 205.094 136.032 205.744C136.76 206.476 138.378 206.069 139.673 204.85C140.887 203.631 141.292 202.005 140.563 201.192C139.916 200.542 138.621 200.785 137.407 201.68L136.113 200.379C137.812 198.428 138.945 195.908 139.107 193.144H140.968C141.13 194.607 141.939 195.664 142.829 195.664C143.962 195.745 144.771 194.282 144.771 192.494Z" fill="#DAE4F4"/>
<path d="M78.8179 214.605C79.2225 214.605 79.5462 214.117 79.6271 213.467H80.4363C80.5173 214.686 81.0028 215.824 81.7311 216.718L81.1646 217.287C80.6791 216.881 80.0317 216.799 79.789 217.125C79.4653 217.45 79.6271 218.181 80.1936 218.75C80.76 219.319 81.4883 219.482 81.812 219.157C82.1357 218.832 81.9739 218.263 81.6502 217.775L82.2166 217.206C83.1068 218.019 84.1588 218.507 85.4535 218.507V219.319C84.8062 219.401 84.3206 219.726 84.3206 220.132C84.3206 220.62 84.968 221.027 85.7772 221.027C86.5865 221.027 87.2338 220.62 87.2338 220.132C87.2338 219.726 86.7483 219.401 86.1009 219.319V218.507C87.3148 218.425 88.4477 217.938 89.3378 217.206L89.9043 217.775C89.4997 218.263 89.4188 218.913 89.7424 219.157C90.0661 219.482 90.7944 219.319 91.3609 218.75C91.9274 218.181 92.0892 217.45 91.7655 217.125C91.4418 216.799 90.8754 216.962 90.3898 217.287L89.8234 216.718C90.6326 215.824 91.1181 214.767 91.1181 213.467H91.9274C92.0083 214.117 92.332 214.605 92.7366 214.605C93.2221 214.605 93.6267 213.954 93.6267 213.141C93.6267 212.329 93.2221 211.678 92.7366 211.678C92.332 211.678 92.0083 212.166 91.9274 212.816H91.1181C91.0372 211.597 90.5517 210.459 89.8234 209.565L90.3898 208.996C90.8754 209.402 91.5227 209.483 91.7655 209.158C92.0892 208.833 91.9274 208.101 91.3609 207.532C90.7944 206.963 90.0661 206.801 89.7424 207.126C89.4188 207.451 89.5806 208.02 89.9043 208.508L89.3378 209.077C88.4477 208.264 87.3957 207.776 86.1009 207.776V206.963C86.7483 206.882 87.2338 206.557 87.2338 206.151C87.2338 205.663 86.5865 205.256 85.7772 205.256C84.968 205.256 84.3206 205.663 84.3206 206.151C84.3206 206.557 84.8062 206.882 85.4535 206.963V207.776C84.2397 207.858 83.1068 208.345 82.2166 209.077L81.6502 208.508C82.0548 208.02 82.1357 207.37 81.812 207.126C81.4883 206.801 80.76 206.963 80.1936 207.532C79.6271 208.101 79.4653 208.833 79.789 209.158C80.1126 209.483 80.6791 209.321 81.1646 208.996L81.7311 209.565C80.9219 210.459 80.4363 211.516 80.4363 212.816H79.6271C79.5462 212.166 79.2225 211.678 78.8179 211.678C78.3323 211.678 77.9277 212.329 77.9277 213.141C77.9277 213.954 78.3323 214.605 78.8179 214.605Z" fill="#DAE4F4"/>
<path d="M24.1948 133.071C24.5995 133.071 24.9231 132.583 25.0041 131.933H25.8133C25.8942 133.152 26.3797 134.29 27.1081 135.184L26.5416 135.754C26.0561 135.347 25.4087 135.266 25.1659 135.591C24.8422 135.916 25.0041 136.648 25.5705 137.217C26.137 137.786 26.8653 137.948 27.189 137.623C27.5127 137.298 27.3508 136.729 27.0271 136.241L27.5936 135.672C28.4837 136.485 29.5357 136.973 30.8305 136.973V137.786C30.1831 137.867 29.6976 138.192 29.6976 138.599C29.6976 139.086 30.345 139.493 31.1542 139.493C31.9634 139.493 32.6108 139.086 32.6108 138.599C32.6108 138.192 32.1253 137.867 31.4779 137.786V136.973C32.6917 136.892 33.8246 136.404 34.7148 135.672L35.2812 136.241C34.8766 136.729 34.7957 137.379 35.1194 137.623C35.4431 137.948 36.1714 137.786 36.7379 137.217C37.3043 136.648 37.4662 135.916 37.1425 135.591C36.8188 135.266 36.2523 135.428 35.7668 135.754L35.2003 135.184C36.0095 134.29 36.4951 133.234 36.4951 131.933H37.3043C37.3852 132.583 37.7089 133.071 38.1135 133.071C38.5991 133.071 39.0037 132.421 39.0037 131.608C39.0037 130.795 38.5991 130.145 38.1135 130.145C37.7089 130.145 37.3852 130.632 37.3043 131.283H36.4951C36.4142 130.063 35.9286 128.925 35.2003 128.031L35.7668 127.462C36.2523 127.868 36.8997 127.95 37.1425 127.625C37.4662 127.299 37.3043 126.568 36.7379 125.999C36.1714 125.43 35.4431 125.267 35.1194 125.592C34.7957 125.917 34.9576 126.487 35.2812 126.974L34.7148 127.543C33.8246 126.73 32.7726 126.243 31.4779 126.243V125.43C32.1253 125.348 32.6108 125.023 32.6108 124.617C32.6108 124.129 31.9634 123.723 31.1542 123.723C30.345 123.723 29.6976 124.129 29.6976 124.617C29.6976 125.023 30.1831 125.348 30.8305 125.43V126.243C29.6167 126.324 28.4837 126.812 27.5936 127.543L27.0271 126.974C27.4317 126.487 27.5127 125.836 27.189 125.592C26.8653 125.267 26.137 125.43 25.5705 125.999C25.0041 126.568 24.8422 127.299 25.1659 127.625C25.4896 127.95 26.0561 127.787 26.5416 127.462L27.1081 128.031C26.2988 128.925 25.8133 129.982 25.8133 131.283H25.0041C24.9231 130.632 24.5995 130.145 24.1948 130.145C23.7093 130.145 23.3047 130.795 23.3047 131.608C23.3047 132.421 23.7093 133.071 24.1948 133.071Z" fill="#DAE4F4"/>
<path d="M163.544 210.54C164.191 210.54 164.757 209.809 164.838 208.752H166.133C166.214 210.703 167.023 212.41 168.156 213.71L167.266 214.605C166.457 213.954 165.567 213.792 165.081 214.279C164.596 214.767 164.838 215.905 165.729 216.799C166.619 217.694 167.671 217.937 168.237 217.45C168.723 216.962 168.561 216.068 167.913 215.255L168.804 214.361C170.098 215.58 171.879 216.312 173.74 216.393V217.694C172.769 217.856 171.96 218.344 171.96 218.994C171.96 219.726 172.931 220.376 174.145 220.376C175.358 220.376 176.329 219.807 176.329 218.994C176.329 218.344 175.601 217.775 174.549 217.694V216.393C176.491 216.312 178.191 215.499 179.485 214.361L180.376 215.255C179.728 216.068 179.566 216.962 180.052 217.45C180.537 217.937 181.67 217.694 182.56 216.799C183.451 215.905 183.693 214.848 183.208 214.279C182.722 213.792 181.832 213.954 181.023 214.605L180.133 213.71C181.347 212.41 182.075 210.621 182.156 208.752H183.451C183.612 209.727 184.098 210.54 184.745 210.54C185.474 210.54 186.121 209.565 186.121 208.345C186.121 207.126 185.555 206.151 184.745 206.151C184.098 206.151 183.532 206.882 183.451 207.939H182.156C182.075 205.988 181.266 204.281 180.133 202.98L181.023 202.086C181.832 202.736 182.722 202.899 183.208 202.411C183.693 201.923 183.451 200.785 182.56 199.891C181.67 198.997 180.618 198.753 180.052 199.241C179.566 199.729 179.728 200.623 180.376 201.436L179.485 202.33C178.191 201.111 176.41 200.379 174.549 200.298V198.997C175.52 198.834 176.329 198.347 176.329 197.696C176.329 196.965 175.358 196.314 174.145 196.314C172.931 196.314 171.96 196.883 171.96 197.696C171.96 198.347 172.688 198.916 173.74 198.997V200.298C171.798 200.379 170.098 201.192 168.804 202.33L167.913 201.436C168.561 200.623 168.723 199.729 168.237 199.241C167.752 198.753 166.619 198.997 165.729 199.891C164.838 200.785 164.596 201.842 165.081 202.411C165.567 202.899 166.457 202.736 167.266 202.086L168.156 202.98C166.942 204.281 166.214 206.069 166.133 207.939H164.838C164.677 206.963 164.191 206.151 163.544 206.151C162.815 206.151 162.168 207.126 162.168 208.345C162.168 209.565 162.815 210.54 163.544 210.54Z" fill="#DAE4F4"/>
<path d="M153.509 217.124C153.266 217.124 153.024 217.449 153.024 217.775H152.538C152.538 217.043 152.214 216.393 151.729 215.905L152.053 215.58C152.376 215.824 152.7 215.905 152.862 215.661C153.024 215.499 152.943 215.011 152.619 214.686C152.295 214.36 151.891 214.279 151.648 214.442C151.486 214.604 151.567 214.929 151.729 215.255L151.405 215.58C150.92 215.092 150.272 214.848 149.544 214.767V214.279C149.949 214.198 150.191 214.035 150.191 213.791C150.191 213.548 149.787 213.304 149.382 213.304C148.897 213.304 148.573 213.548 148.573 213.791C148.573 214.035 148.897 214.279 149.22 214.279V214.767C148.492 214.767 147.845 215.092 147.359 215.58L147.035 215.255C147.278 214.929 147.359 214.604 147.116 214.442C146.954 214.279 146.469 214.36 146.145 214.686C145.822 215.011 145.741 215.417 145.902 215.661C146.064 215.824 146.388 215.742 146.712 215.58L147.035 215.905C146.55 216.393 146.307 217.043 146.226 217.775H145.741C145.66 217.368 145.498 217.124 145.255 217.124C145.012 217.124 144.77 217.531 144.77 217.937C144.77 218.425 145.012 218.75 145.255 218.75C145.498 218.75 145.741 218.425 145.741 218.1H146.226C146.226 218.831 146.55 219.482 147.035 219.969L146.712 220.295C146.388 220.051 146.064 219.969 145.902 220.213C145.741 220.376 145.822 220.864 146.145 221.189C146.469 221.514 146.874 221.595 147.116 221.433C147.278 221.27 147.197 220.945 147.035 220.62L147.359 220.295C147.845 220.782 148.492 221.026 149.22 221.108V221.595C148.816 221.677 148.573 221.839 148.573 222.083C148.573 222.327 148.978 222.571 149.382 222.571C149.868 222.571 150.191 222.327 150.191 222.083C150.191 221.839 149.868 221.595 149.544 221.595V221.108C150.272 221.108 150.92 220.782 151.405 220.295L151.729 220.62C151.486 220.945 151.405 221.27 151.648 221.433C151.81 221.595 152.295 221.514 152.619 221.189C152.943 220.864 153.024 220.457 152.862 220.213C152.7 220.051 152.376 220.132 152.053 220.295L151.729 219.969C152.214 219.482 152.457 218.831 152.538 218.1H153.024C153.105 218.506 153.266 218.75 153.509 218.75C153.752 218.75 153.995 218.344 153.995 217.937C153.995 217.531 153.752 217.124 153.509 217.124Z" fill="#DAE4F4"/>
<path d="M55.5131 151.686C55.2703 151.686 55.0276 152.011 55.0276 152.337H54.542C54.542 151.605 54.2183 150.955 53.7328 150.467L54.0565 150.142C54.3802 150.386 54.7039 150.467 54.8657 150.223C55.0276 150.061 54.9466 149.573 54.6229 149.248C54.2992 148.922 53.8946 148.841 53.6519 149.004C53.49 149.166 53.5709 149.492 53.7328 149.817L53.4091 150.142C52.9236 149.654 52.2762 149.41 51.5479 149.329V148.841C51.9525 148.76 52.1953 148.597 52.1953 148.353C52.1953 148.11 51.7906 147.866 51.386 147.866C50.9005 147.866 50.5768 148.11 50.5768 148.353C50.5768 148.597 50.9005 148.841 51.2242 148.841V149.329C50.4959 149.329 49.8485 149.654 49.363 150.142L49.0393 149.817C49.282 149.492 49.363 149.166 49.1202 149.004C48.9584 148.841 48.4728 148.922 48.1491 149.248C47.8254 149.573 47.7445 149.979 47.9064 150.223C48.0682 150.386 48.3919 150.304 48.7156 150.142L49.0393 150.467C48.5537 150.955 48.311 151.605 48.23 152.337H47.7445C47.6636 151.93 47.5017 151.686 47.259 151.686C47.0162 151.686 46.7734 152.093 46.7734 152.499C46.7734 152.906 47.0162 153.312 47.259 153.312C47.5017 153.312 47.7445 152.987 47.7445 152.662H48.23C48.23 153.393 48.5537 154.044 49.0393 154.531L48.7156 154.857C48.3919 154.613 48.0682 154.531 47.9064 154.775C47.7445 154.938 47.8254 155.426 48.1491 155.751C48.4728 156.076 48.8774 156.157 49.1202 155.995C49.282 155.832 49.2011 155.507 49.0393 155.182L49.363 154.857C49.8485 155.344 50.4959 155.588 51.2242 155.67V156.157C50.8196 156.239 50.5768 156.401 50.5768 156.645C50.5768 156.889 50.9814 157.133 51.386 157.133C51.8716 157.133 52.1953 156.889 52.1953 156.645C52.1953 156.401 51.8716 156.157 51.5479 156.157V155.67C52.2762 155.67 52.9236 155.344 53.4091 154.857L53.7328 155.182C53.49 155.507 53.4091 155.832 53.6519 155.995C53.8137 156.157 54.2992 156.076 54.6229 155.751C54.9466 155.426 55.0276 155.019 54.8657 154.775C54.7039 154.613 54.3802 154.694 54.0565 154.857L53.7328 154.531C54.2183 154.044 54.4611 153.393 54.542 152.662H55.0276C55.1085 153.068 55.2703 153.312 55.5131 153.312C55.7559 153.312 55.9986 152.906 55.9986 152.499C55.9986 152.093 55.7559 151.686 55.5131 151.686Z" fill="#DAE4F4"/>
<path d="M46.7734 184.283C46.7734 186.072 47.6636 187.454 48.7156 187.454C49.6867 187.454 50.415 186.397 50.5768 184.934H52.438C52.5999 187.698 53.6519 190.218 55.4322 192.169L54.1374 193.469C53.0045 192.575 51.6288 192.331 50.9814 192.981C50.2531 193.713 50.6577 195.339 51.8716 196.639C53.0854 197.859 54.7039 198.265 55.5131 197.534C56.1605 196.883 55.9177 195.583 55.0275 194.363L56.3223 193.063C58.2645 194.77 60.7731 195.908 63.5244 196.07V197.94C62.0678 198.103 61.0158 198.916 61.0158 199.81C61.0158 200.867 62.4724 201.761 64.1718 201.761C65.9521 201.761 67.3278 200.867 67.3278 199.81C67.3278 198.834 66.2758 198.103 64.8192 197.94V196.07C67.5706 195.908 70.0792 194.851 72.0213 193.063L73.3161 194.363C72.4259 195.501 72.1832 196.883 72.8305 197.534C73.5588 198.265 75.1773 197.859 76.4721 196.639C77.6859 195.42 78.0905 193.794 77.3622 192.981C76.7148 192.331 75.4201 192.575 74.2062 193.469L72.9115 192.169C74.6108 190.218 75.7438 187.698 75.9056 184.934H77.7668C77.9287 186.397 78.7379 187.454 79.628 187.454C80.68 187.454 81.5702 185.991 81.5702 184.283C81.5702 182.495 80.68 181.113 79.628 181.113C78.657 181.113 77.9287 182.17 77.7668 183.633H75.9056C75.7438 180.869 74.6918 178.349 72.9115 176.398L74.2062 175.098C75.3391 175.992 76.7148 176.236 77.3622 175.585C78.0905 174.854 77.6859 173.228 76.4721 171.927C75.2582 170.708 73.6398 170.302 72.8305 171.033C72.1832 171.684 72.4259 172.984 73.3161 174.204L72.0213 175.504C70.0792 173.797 67.5706 172.659 64.8192 172.496V170.627C66.2758 170.464 67.3278 169.651 67.3278 168.757C67.3278 167.7 65.8712 166.806 64.1718 166.806C62.3915 166.806 61.0158 167.7 61.0158 168.757C61.0158 169.733 62.0678 170.464 63.5244 170.627V172.496C60.7731 172.659 58.2645 173.716 56.3223 175.504L55.0275 174.204C55.9177 173.065 56.1605 171.684 55.5131 171.033C54.7848 170.302 53.1663 170.708 51.8716 171.927C50.6577 173.147 50.2531 174.773 50.9814 175.585C51.6288 176.236 52.9236 175.992 54.1374 175.098L55.4322 176.398C53.7328 178.349 52.5999 180.869 52.438 183.633H50.5768C50.415 182.17 49.6057 181.113 48.7156 181.113C47.6636 181.032 46.7734 182.495 46.7734 184.283Z" fill="#DAE4F4"/>
<path d="M35.767 209.89C35.2815 209.89 34.8768 210.459 34.715 211.271H33.663C33.5821 209.808 33.0156 208.426 32.0445 207.451L32.7728 206.719C33.4202 207.207 34.0676 207.288 34.4722 206.963C34.8768 206.557 34.6341 205.662 33.9867 205.012C33.3393 204.362 32.4492 204.118 32.0445 204.524C31.7209 204.85 31.8018 205.581 32.2873 206.231L31.559 206.963C30.507 206.069 29.2122 205.419 27.7556 205.337V204.281C28.5649 204.199 29.1313 203.793 29.1313 203.224C29.1313 202.655 28.403 202.167 27.432 202.167C26.4609 202.167 25.7326 202.655 25.7326 203.224C25.7326 203.711 26.299 204.118 27.1083 204.281V205.337C25.6517 205.419 24.276 205.988 23.3049 206.963L22.5766 206.231C23.0621 205.581 23.1431 204.931 22.8194 204.524C22.4147 204.118 21.5246 204.362 20.8772 205.012C20.2298 205.662 19.9871 206.557 20.3917 206.963C20.7154 207.288 21.4437 207.207 22.0911 206.719L22.8194 207.451C21.9292 208.508 21.2818 209.808 21.2009 211.271H20.1489C20.068 210.459 19.6634 209.89 19.0969 209.89C18.5305 209.89 18.0449 210.621 18.0449 211.597C18.0449 212.572 18.5305 213.304 19.0969 213.304C19.5825 213.304 19.9871 212.735 20.1489 211.922H21.2009C21.2818 213.385 21.8483 214.767 22.8194 215.742L22.0911 216.474C21.4437 215.986 20.7963 215.905 20.3917 216.23C19.9871 216.637 20.2298 217.531 20.8772 218.181C21.5246 218.831 22.4147 219.075 22.8194 218.669C23.1431 218.344 23.0621 217.612 22.5766 216.962L23.3049 216.23C24.3569 217.124 25.6517 217.775 27.1083 217.856V218.913C26.299 218.994 25.7326 219.4 25.7326 219.969C25.7326 220.538 26.4609 221.026 27.432 221.026C28.403 221.026 29.1313 220.538 29.1313 219.969C29.1313 219.482 28.5649 219.075 27.7556 218.913V217.856C29.2122 217.775 30.5879 217.206 31.559 216.23L32.3682 217.043C31.8827 217.693 31.8018 218.344 32.1255 218.75C32.5301 219.157 33.4202 218.913 34.0676 218.262C34.715 217.612 34.9578 216.718 34.5531 216.311C34.2295 215.986 33.5012 216.068 32.8538 216.555L32.1255 215.824C33.0156 214.767 33.663 213.466 33.7439 212.003H34.7959C34.8768 212.816 35.2814 213.385 35.8479 213.385C36.4144 213.385 36.8999 212.653 36.8999 211.678C36.819 210.702 36.3334 209.89 35.767 209.89Z" fill="#DAE4F4"/>
<path d="M388.915 281.343C374.511 281.343 361.968 282.725 355.17 284.676C348.373 282.644 335.83 281.343 321.426 281.343C307.021 281.343 294.478 282.725 287.681 284.676C280.883 282.644 268.34 281.343 253.936 281.343C232.33 281.343 214.77 284.432 214.77 288.172C214.77 291.911 232.33 295 253.936 295C268.34 295 280.883 293.618 287.681 291.667C294.478 293.699 307.021 295 321.426 295C335.83 295 348.373 293.618 355.17 291.667C361.968 293.699 374.511 295 388.915 295C410.521 295 428.082 291.911 428.082 288.172C428.001 284.432 410.521 281.343 388.915 281.343Z" fill="#DAE4F4"/>
<path d="M410.684 213.629L411.736 215.417L416.348 211.434L415.458 209.89L410.684 213.629Z" fill="#BBDEEA"/>
<path d="M412.141 215.092L412.626 218.019C412.707 218.588 413.193 218.994 413.759 218.994L418.21 218.831C418.857 218.831 419.343 218.262 419.343 217.612C419.343 217.612 419.019 215.661 419.181 215.417C419.262 215.336 419.343 215.336 419.424 215.336C419.666 215.417 419.909 215.173 419.909 214.848L419.828 213.548C419.828 213.141 419.505 212.735 419.1 212.491L416.268 211.271L412.141 215.092Z" fill="#E7AFA7"/>
<path d="M410.117 214.035L399.273 192.331L408.256 188.754L416.267 210.215L410.117 214.035Z" fill="#122A3B"/>
<path d="M402.348 185.096C405.019 184.446 407.608 186.072 408.256 188.754C408.903 191.437 407.284 194.038 404.614 194.688C401.944 195.339 399.354 193.713 398.707 191.03C398.14 188.429 399.759 185.747 402.348 185.096Z" fill="#122A3B"/>
<path d="M408.255 188.754L398.707 191.112C398.059 188.511 392.476 171.358 394.66 166.887C395.47 165.262 396.764 163.798 398.464 163.392C402.105 162.579 404.371 164.693 405.18 167.863C406.152 171.277 408.255 188.754 408.255 188.754Z" fill="#122A3B"/>
<path d="M404.534 202.899V166.075V165.993C403.401 163.961 401.378 162.742 398.546 163.392C396.766 163.798 395.552 165.262 394.743 166.887C392.558 171.358 398.141 188.51 398.789 191.112C398.87 191.599 399.031 192.006 399.274 192.412L404.534 202.899Z" fill="#0A1D28"/>
<path d="M407.528 287.034C408.256 286.871 408.58 285.814 408.095 285.083C406.719 283.051 403.563 282.725 401.459 282.969C399.598 283.132 397.656 282.888 395.713 282.075L394.5 281.587C394.419 281.587 394.338 281.587 394.257 281.669L394.095 281.75C392.881 282.807 391.344 283.132 389.806 282.725C389.725 282.725 389.644 282.725 389.563 282.807C389.482 282.888 389.482 282.969 389.482 283.051C389.563 285.245 389.725 289.066 389.968 289.554C390.292 290.204 391.02 290.611 391.829 290.692C391.91 290.692 391.991 290.692 392.153 290.692C393.043 290.692 394.014 290.448 394.985 290.204C395.309 290.123 395.633 290.042 395.875 289.96L407.528 287.034Z" fill="#403C3B"/>
<path d="M369.9 286.952C370.466 287.521 371.518 287.196 371.842 286.383C372.813 284.107 371.356 281.262 370.062 279.636C368.929 278.173 368.12 276.384 367.715 274.271L367.472 273.052C367.472 272.97 367.391 272.889 367.31 272.808L367.148 272.726C365.611 272.239 364.478 271.101 364.073 269.556C364.073 269.475 363.992 269.394 363.912 269.394C363.831 269.394 363.75 269.394 363.669 269.475C361.808 270.694 358.732 272.889 358.409 273.377C358.085 274.027 358.085 274.84 358.409 275.572C358.49 275.653 358.49 275.734 358.571 275.815C359.056 276.628 359.784 277.279 360.513 277.929C360.756 278.173 360.998 278.335 361.241 278.579L369.9 286.952Z" fill="#403C3B"/>
<path d="M350.396 207.939L358.084 184.853L366.986 188.754L357.437 209.565L350.396 207.939Z" fill="#122A3B"/>
<path d="M365.367 182.007C367.714 183.47 368.361 186.478 366.985 188.754C365.529 191.112 362.535 191.762 360.269 190.38C357.922 188.917 357.275 185.909 358.65 183.633C360.026 181.276 363.101 180.544 365.367 182.007Z" fill="#122A3B"/>
<path d="M366.985 188.754L358.65 183.633C360.026 181.276 368.199 165.262 372.893 163.636C374.592 163.067 376.534 162.904 378.072 163.88C381.228 165.912 381.309 169.001 379.69 171.846C377.829 174.935 366.985 188.754 366.985 188.754Z" fill="#122A3B"/>
<path d="M401.702 207.776L390.94 247.202L369.091 275.897L368.767 275.816C365.611 275.328 362.94 273.133 361.727 270.125L377.102 242.812L385.68 207.695H401.702V207.776Z" fill="#0A1D28"/>
<path d="M373.055 204.769L388.916 283.945C391.829 283.863 394.661 283.213 397.331 282.075L397.574 281.994L391.343 204.769H373.055Z" fill="#122A3B"/>
<path d="M399.274 163.148H375.807C374.269 163.148 372.975 164.449 372.975 165.994V207.614C372.975 209.809 374.755 211.597 376.94 211.597H398.061C400.246 211.597 402.026 209.809 402.026 207.614V165.994C402.107 164.449 400.812 163.148 399.274 163.148Z" fill="#122A3B"/>
<path d="M396.118 165.343L397.251 163.148H378.234L381.633 166.4L380.257 169.814L391.506 184.284L397.413 169.083L396.118 165.343Z" fill="#0A1D28"/>
<path d="M393.449 163.148L391.506 184.284L382.848 163.148H393.449Z" fill="#BBDEEA"/>
<path d="M389.078 164.042L392.315 161.197L393.448 163.148L391.101 166.969L389.078 164.042Z" fill="white"/>
<path d="M382.848 163.148L384.709 161.197L389.079 164.042L387.056 166.969L382.848 163.148Z" fill="white"/>
<path d="M390.373 168.513L391.101 166.969L389.078 164.042L387.055 166.969L388.592 168.513L388.349 176.561L391.505 184.284L392.315 175.748L390.373 168.513Z" fill="#22A1AB"/>
<path d="M392.314 161.197L389.077 164.042L384.707 161.197L385.112 156.482H391.585L392.314 161.197Z" fill="#E7AFA7"/>
<path d="M377.99 151.361C379.366 154.288 382.36 156.239 385.597 156.239C390.21 156.239 393.932 152.499 393.932 147.866C393.932 145.508 395.146 143.314 395.065 140.956C394.903 138.274 392.476 137.054 390.048 137.705C388.753 138.03 387.539 138.68 386.245 139.086C385.112 139.412 383.979 139.493 382.846 139.818C381.47 140.143 380.418 140.794 379.528 141.85C378.395 143.07 377.748 144.695 377.424 146.321C377.1 148.11 377.343 149.898 377.99 151.361Z" fill="#D39200"/>
<path d="M383.494 150.792C383.575 151.686 383.008 152.499 382.118 152.581C381.228 152.662 380.419 152.093 380.338 151.199C380.257 150.304 380.823 149.492 381.713 149.41C382.604 149.248 383.413 149.898 383.494 150.792Z" fill="#E7AFA7"/>
<path d="M389.644 143.07C391.181 143.151 392.233 143.801 392.961 144.533C393.771 145.265 394.175 146.321 394.337 147.378L394.418 148.354C394.418 148.435 394.418 148.435 394.418 148.516L394.742 151.117C395.146 154.776 392.88 158.19 389.401 158.677C385.921 159.165 382.765 156.483 382.28 152.825L381.875 149.573C382.037 149.492 381.309 143.151 389.644 143.07Z" fill="#E7AFA7"/>
<path d="M388.269 143.151C387.46 143.232 386.731 143.476 386.003 143.72C385.437 143.883 384.951 144.127 384.466 144.533C383.009 145.752 384.142 148.597 384.547 150.061C384.627 150.386 384.789 150.874 384.547 151.117C384.304 151.443 383.818 151.361 383.495 151.036C383.171 150.792 383.09 150.386 382.847 149.979C382.685 149.654 382.362 149.329 381.957 149.329V142.745C381.957 142.663 386.489 142.745 386.812 142.745C387.46 142.826 388.269 143.151 388.269 143.151Z" fill="#D39200"/>
<path d="M350.963 208.02L350.234 209.971L356.223 211.109L356.789 209.402L350.963 208.02Z" fill="#BBDEEA"/>
<path d="M350.72 210.052L348.778 212.328C348.373 212.735 348.373 213.385 348.778 213.873L351.691 217.287C352.096 217.775 352.905 217.856 353.31 217.368C353.31 217.368 354.605 215.905 354.847 215.905C354.928 215.905 355.009 215.986 355.009 216.068C355.171 216.312 355.495 216.312 355.656 216.149L356.628 215.255C356.951 214.93 357.113 214.523 356.951 214.035L356.142 211.109L350.72 210.052Z" fill="#E7AFA7"/>
<path d="M332.027 169.651H325.311V202.655H332.027V169.651Z" fill="#BBDEEA"/>
<path d="M305.324 288.253C305.89 288.74 306.861 288.497 307.185 287.684C308.075 285.489 306.699 282.888 305.485 281.262C304.353 279.88 303.624 278.173 303.22 276.141L302.977 274.921C302.977 274.84 302.896 274.759 302.815 274.759H302.653C301.197 274.271 300.145 273.214 299.74 271.751C299.74 271.67 299.659 271.588 299.578 271.588C299.497 271.588 299.416 271.588 299.335 271.67C297.555 272.889 294.642 274.921 294.399 275.409C294.075 276.059 294.075 276.791 294.399 277.523C294.48 277.604 294.48 277.685 294.561 277.766C295.046 278.498 295.694 279.148 296.422 279.799C296.665 280.043 296.908 280.205 297.069 280.449L305.324 288.253Z" fill="#122A3B"/>
<path d="M330.895 212.654L325.311 249.478L303.462 277.279C303.462 277.279 300.549 274.678 299.416 271.833L314.063 245.983L318.676 212.654H330.895Z" fill="#B5706D"/>
<path d="M354.686 287.277C355.414 287.115 355.657 286.139 355.171 285.408C353.877 283.457 350.882 283.213 348.859 283.376C347.079 283.538 345.218 283.294 343.357 282.563L342.224 282.156C342.143 282.156 342.062 282.156 341.981 282.238L341.9 282.319C340.767 283.294 339.23 283.619 337.773 283.213C337.692 283.213 337.611 283.213 337.53 283.294C337.449 283.376 337.449 283.457 337.449 283.538C337.53 285.652 337.611 289.31 337.935 289.716C338.258 290.366 338.906 290.773 339.715 290.854C339.796 290.854 339.877 290.854 339.958 290.854C340.848 290.854 341.738 290.61 342.628 290.367C342.952 290.285 343.195 290.204 343.518 290.123L354.686 287.277Z" fill="#122A3B"/>
<path d="M322.074 219.076L337.045 284.27C339.796 284.189 342.386 282.4 342.386 282.4L338.178 219.076H322.074Z" fill="#A05C5C"/>
<path d="M317.137 202.493C310.016 218.832 313.415 228.587 313.82 243.219C322.397 245.088 332.594 245.088 341.171 243.219C340.767 232.976 339.472 213.548 338.501 202.655L317.137 202.493Z" fill="#122A3B"/>
<path d="M348.213 215.824L349.184 217.45L353.473 213.792L352.583 212.41L348.213 215.824Z" fill="#BBDEEA"/>
<path d="M349.588 217.125L350.073 219.807C350.154 220.295 350.64 220.701 351.125 220.701L355.252 220.539C355.819 220.539 356.304 219.97 356.304 219.401C356.304 219.401 355.981 217.612 356.143 217.45C356.224 217.368 356.224 217.368 356.304 217.368C356.547 217.45 356.79 217.206 356.79 216.962L356.709 215.743C356.709 215.336 356.466 215.011 356.062 214.848L353.472 213.71L349.588 217.125Z" fill="#B5706D"/>
<path d="M347.727 216.231L337.773 196.315L346.028 193.063L353.311 212.654L347.727 216.231Z" fill="#F74C75"/>
<path d="M340.606 189.73C343.033 189.161 345.461 190.624 346.027 193.063C346.594 195.502 345.137 197.94 342.71 198.509C340.282 199.078 337.854 197.615 337.288 195.176C336.721 192.738 338.259 190.299 340.606 189.73Z" fill="#F74C75"/>
<path d="M346.027 193.063L337.288 195.177C336.64 192.738 331.623 177.13 333.565 172.984C334.294 171.521 335.426 170.139 337.045 169.814C340.363 169.083 342.467 170.952 343.195 173.879C344.085 177.049 346.027 193.063 346.027 193.063Z" fill="#F74C75"/>
<path opacity="0.5" d="M341.01 201.598L343.195 173.716C342.385 170.952 340.362 169.164 337.125 169.895C335.507 170.22 334.374 171.602 333.646 173.066C331.623 177.13 336.721 192.819 337.368 195.176C337.449 195.583 337.611 195.989 337.854 196.314L343.356 207.37C343.356 207.289 343.356 207.289 343.356 207.207L341.01 201.598Z" fill="#BD4C75"/>
<path d="M335.718 157.644C336.811 152.967 333.924 148.286 329.269 147.187C324.613 146.088 319.953 148.989 318.859 153.665C317.765 158.342 320.653 163.023 325.308 164.122C329.964 165.221 334.624 162.32 335.718 157.644Z" fill="#3F261C"/>
<path d="M325.634 149.41C325.634 152.174 323.449 154.369 320.698 154.369C317.947 154.369 315.762 152.174 315.762 149.41C315.762 146.646 317.947 144.452 320.698 144.452C323.368 144.452 325.634 146.646 325.634 149.41Z" fill="#3F261C"/>
<path d="M325.312 169.651H316.653C315.196 169.651 313.982 170.871 313.982 172.334L316.329 199.078L313.982 204.687C313.982 206.801 315.682 208.508 317.786 208.508H322.641C324.179 208.508 325.393 207.288 325.393 205.744V169.651H325.312Z" fill="#F74C75"/>
<path d="M340.444 172.415C340.444 170.952 339.231 169.732 337.774 169.732H332.109V205.825C332.109 207.37 333.323 208.589 334.861 208.589H336.722C338.826 208.589 340.525 206.882 340.525 204.768L338.179 199.159L340.444 172.415Z" fill="#F74C75"/>
<path d="M295.936 210.053L295.289 211.841L300.792 212.898L301.358 211.353L295.936 210.053Z" fill="#BBDEEA"/>
<path d="M295.693 211.922L293.913 213.955C293.589 214.361 293.589 214.93 293.913 215.337L296.583 218.426C296.988 218.913 297.635 218.913 298.121 218.507C298.121 218.507 299.335 217.125 299.577 217.125C299.658 217.125 299.658 217.206 299.739 217.287C299.901 217.531 300.144 217.531 300.387 217.369L301.277 216.556C301.6 216.312 301.681 215.906 301.6 215.499L300.872 212.817L295.693 211.922Z" fill="#B5706D"/>
<path d="M295.451 209.971L302.491 188.917L310.584 192.494L301.925 211.516L295.451 209.971Z" fill="#F74C75"/>
<path d="M309.127 186.316C311.231 187.617 311.879 190.381 310.584 192.494C309.289 194.608 306.538 195.258 304.434 193.957C302.33 192.657 301.682 189.893 302.977 187.779C304.272 185.666 307.023 185.015 309.127 186.316Z" fill="#F74C75"/>
<path d="M310.583 192.494L302.977 187.779C304.271 185.666 310.907 171.521 315.196 170.139C316.733 169.57 318.514 169.489 319.889 170.383C322.722 172.253 322.964 174.692 321.508 177.293C319.889 180.057 310.583 192.494 310.583 192.494Z" fill="#F74C75"/>
<path d="M329.762 150.142C331.3 152.093 334.051 152.906 334.779 154.776L334.941 155.588V155.67L335.346 158.19C335.912 161.36 333.727 164.368 330.571 164.937C327.415 165.506 324.421 163.311 323.855 160.141L323.369 157.296C323.612 154.369 328.872 154.125 329.762 150.142Z" fill="#B5706D"/>
<path d="M325.148 158.596C325.553 159.653 324.986 160.872 323.934 161.279C322.882 161.685 321.669 161.116 321.264 160.059C320.859 159.003 321.426 157.783 322.478 157.377C323.53 156.97 324.744 157.54 325.148 158.596Z" fill="#B5706D"/>
<path d="M328.467 176.561L331.137 168.107L332.027 169.651L330.085 178.918L328.467 176.561Z" fill="white"/>
<path d="M323.449 169.651L324.906 168.107L328.466 176.561L326.848 178.918L323.449 169.651Z" fill="white"/>
<path d="M331.137 168.107L328.467 176.561L324.906 168.107L325.311 163.229H330.49L331.137 168.107Z" fill="#B5706D"/>
<path d="M341.415 184.771C341.415 187.454 339.23 189.649 336.56 189.649C333.889 189.649 332.352 187.454 332.352 184.771L337.773 175.504C338.34 179.894 341.415 180.382 341.415 184.771Z" fill="#F74C75"/>
<path d="M275.786 139.574C275.058 137.705 272.792 137.461 271.093 137.379C270.122 137.298 268.989 137.542 268.018 137.298C266.804 136.973 265.914 135.754 264.538 136.567C263.729 137.054 263.486 137.949 262.839 138.518C261.058 139.899 257.012 139.899 256.527 142.582C256.365 143.557 256.527 144.533 256.446 145.508C256.365 147.216 254.099 148.841 255.556 150.467C256.608 151.605 257.74 151.686 258.388 153.312C258.792 154.369 259.278 155.507 260.33 155.751C260.816 155.832 261.22 155.751 261.706 155.751C262.191 155.751 262.677 155.832 262.92 156.239C262.758 155.995 264.862 153.637 265.185 153.231C266.076 152.093 266.885 150.874 267.775 149.735C268.503 148.679 269.312 147.622 270.041 146.646C270.122 146.484 270.85 145.265 271.093 145.265C273.359 145.183 276.434 142.663 275.867 140.143C275.867 139.899 275.867 139.737 275.786 139.574Z" fill="#3F261C"/>
<path d="M291.243 215.092L277.891 191.031L287.44 188.754L295.532 211.434L291.243 215.092Z" fill="#E7AFA7"/>
<path d="M287.439 188.754L277.89 191.112C277.243 188.511 271.659 171.358 273.844 166.887C274.653 165.262 275.948 163.798 277.647 163.392C281.289 162.579 283.555 164.693 284.364 167.863C285.254 171.277 287.439 188.754 287.439 188.754Z" fill="#323C46"/>
<path d="M286.63 287.034C287.358 286.871 287.682 285.814 287.196 285.083C285.821 283.051 282.665 282.725 280.561 282.969C278.699 283.132 276.757 282.888 274.815 282.075L273.601 281.587C273.52 281.587 273.439 281.587 273.358 281.669L273.197 281.75C271.983 282.807 270.445 283.132 268.908 282.725C268.827 282.725 268.746 282.725 268.665 282.807C268.584 282.888 268.584 282.969 268.584 283.051C268.665 285.245 268.827 289.066 269.07 289.554C269.393 290.204 270.122 290.611 270.931 290.692C271.012 290.692 271.093 290.692 271.254 290.692C272.145 290.692 273.116 290.448 274.087 290.204C274.41 290.123 274.734 290.042 274.977 289.96L286.63 287.034Z" fill="#55526D"/>
<path d="M249.081 286.953C249.648 287.522 250.7 287.196 251.024 286.384C251.995 284.107 250.538 281.262 249.243 279.637C248.11 278.173 247.301 276.385 246.897 274.271L246.654 273.052C246.654 272.971 246.573 272.89 246.492 272.808L246.33 272.727C244.793 272.239 243.66 271.101 243.255 269.557C243.255 269.475 243.174 269.394 243.093 269.394C243.012 269.394 242.931 269.394 242.85 269.475C240.989 270.695 237.914 272.889 237.59 273.377C237.267 274.028 237.267 274.84 237.59 275.572C237.671 275.653 237.671 275.735 237.752 275.816C238.238 276.629 238.966 277.279 239.694 277.929C239.937 278.173 240.18 278.336 240.423 278.58L249.081 286.953Z" fill="#55526D"/>
<path d="M229.822 210.052L237.186 184.853L241.313 178.268L246.088 188.754L235.325 211.109L229.822 210.052Z" fill="#E7AFA7"/>
<path d="M246.087 188.754L237.752 183.633C239.128 181.276 247.301 165.262 251.994 163.636C253.694 163.067 255.636 162.904 257.173 163.88C260.329 165.912 260.41 169.001 258.792 171.846C256.931 174.935 246.087 188.754 246.087 188.754Z" fill="#323C46"/>
<path d="M280.804 207.776L270.041 247.202L248.192 275.897L247.868 275.816C244.712 275.328 242.042 273.133 240.828 270.125L256.203 242.812L264.781 207.695H280.804V207.776Z" fill="#046CB0"/>
<path d="M252.156 204.769L268.017 283.945C270.93 283.863 273.763 283.213 276.433 282.075L276.676 281.994L270.445 204.769H252.156Z" fill="#1288D6"/>
<path d="M278.376 163.148H268.827H254.908C256.446 168.514 255.799 174.285 253.128 179.244L252.076 181.113V207.614C252.076 209.809 253.856 211.597 256.041 211.597H269.475H277.243C279.428 211.597 281.208 209.809 281.208 207.614V165.994C281.208 164.449 279.914 163.148 278.376 163.148Z" fill="#E6A100"/>
<path d="M270.365 163.148H254.908C256.446 168.514 255.799 174.285 253.128 179.244L252.076 181.113V207.614C252.076 209.809 253.856 211.597 256.041 211.597H267.209C269.313 211.597 270.931 209.89 270.931 207.858L270.365 163.148Z" fill="#FFB700"/>
<path d="M272.548 163.148L270.606 184.284L261.947 163.148H272.548Z" fill="#323C46"/>
<path d="M271.416 163.148C269.474 164.855 266.723 165.018 264.538 163.636L263.729 163.148L264.214 156.401H270.607L271.416 163.148Z" fill="#E7AFA7"/>
<path d="M262.595 150.792C262.676 151.686 262.11 152.499 261.22 152.581C260.329 152.662 259.52 152.093 259.439 151.199C259.358 150.304 259.925 149.492 260.815 149.41C261.705 149.248 262.514 149.898 262.595 150.792Z" fill="#E7AFA7"/>
<path d="M268.745 143.07C270.283 143.151 271.335 143.801 272.063 144.533C272.872 145.265 273.277 146.321 273.439 147.378L273.52 148.354C273.52 148.435 273.52 148.435 273.52 148.516L273.843 151.117C274.248 154.776 271.982 158.19 268.502 158.677C265.023 159.165 261.867 156.483 261.381 152.825L260.977 149.573C261.138 149.492 260.41 143.151 268.745 143.07Z" fill="#E7AFA7"/>
<path d="M267.371 143.151C266.561 143.232 265.833 143.476 265.105 143.72C264.538 143.883 264.053 144.127 263.567 144.533C262.111 145.752 263.243 148.597 263.648 150.061C263.729 150.386 263.891 150.874 263.648 151.117C263.405 151.443 262.92 151.361 262.596 151.036C262.272 150.792 262.192 150.386 261.949 149.979C261.787 149.654 261.463 149.329 261.059 149.329V142.745C261.059 142.663 265.59 142.745 265.914 142.745C266.561 142.826 267.371 143.151 267.371 143.151Z" fill="#3F261C"/>
<path d="M229.822 210.052L227.88 212.328C227.475 212.735 227.475 213.385 227.88 213.873L230.793 217.287C231.197 217.775 232.007 217.856 232.411 217.368C232.411 217.368 233.706 215.905 233.949 215.905C234.03 215.905 234.111 215.986 234.111 216.068C234.273 216.312 234.596 216.312 234.758 216.149L235.729 215.255C236.053 214.93 236.215 214.523 236.053 214.035L235.244 211.109L229.822 210.052Z" fill="#E7AFA7"/>
<path d="M291.242 215.093L291.728 218.019C291.809 218.588 292.294 218.994 292.861 218.994L297.311 218.832C297.959 218.832 298.444 218.263 298.444 217.613C298.444 217.613 298.121 215.662 298.282 215.418C298.363 215.336 298.444 215.336 298.525 215.336C298.768 215.418 299.011 215.174 299.011 214.849L298.93 213.548C298.93 213.142 298.606 212.735 298.202 212.491L295.369 211.272L291.242 215.093Z" fill="#E7AFA7"/>
<path d="M281.208 189.324C277.729 189.893 274.249 190.218 270.769 190.38C264.538 190.624 258.307 190.299 252.076 189.324V196.64C258.307 197.534 264.619 197.859 270.85 197.615C274.33 197.453 277.81 197.128 281.208 196.64V189.324Z" fill="#F1F0EB"/>
<path d="M270.77 190.462L270.85 197.696C274.33 197.534 277.81 197.209 281.209 196.721V189.405C277.729 189.893 274.249 190.299 270.77 190.462Z" fill="#E2E2E2"/>
</g>
<defs>
<linearGradient id="paint0_linear_2718_395" x1="33.5605" y1="228.026" x2="33.5605" y2="99.9762" gradientUnits="userSpaceOnUse">
<stop offset="0.163" stop-color="#DAE4F4" stop-opacity="0"/>
<stop offset="0.7523" stop-color="#DAE4F4"/>
</linearGradient>
<linearGradient id="paint1_linear_2718_395" x1="77.8223" y1="228.026" x2="77.8223" y2="142.034" gradientUnits="userSpaceOnUse">
<stop offset="0.163" stop-color="#DAE4F4" stop-opacity="0"/>
<stop offset="0.7523" stop-color="#DAE4F4"/>
</linearGradient>
<linearGradient id="paint2_linear_2718_395" x1="122.082" y1="228.026" x2="122.082" y2="126.644" gradientUnits="userSpaceOnUse">
<stop offset="0.163" stop-color="#DAE4F4" stop-opacity="0"/>
<stop offset="0.7523" stop-color="#DAE4F4"/>
</linearGradient>
<linearGradient id="paint3_linear_2718_395" x1="166.344" y1="228.025" x2="166.344" y2="166.226" gradientUnits="userSpaceOnUse">
<stop offset="0.163" stop-color="#DAE4F4" stop-opacity="0"/>
<stop offset="0.7523" stop-color="#DAE4F4"/>
</linearGradient>
<linearGradient id="paint4_linear_2718_395" x1="220.843" y1="228.025" x2="220.843" y2="216.526" gradientUnits="userSpaceOnUse">
<stop offset="0.163" stop-color="#DAE4F4" stop-opacity="0"/>
<stop offset="0.7523" stop-color="#DAE4F4"/>
</linearGradient>
<linearGradient id="paint5_linear_2718_395" x1="198.035" y1="228.025" x2="198.035" y2="219.163" gradientUnits="userSpaceOnUse">
<stop offset="0.163" stop-color="#DAE4F4" stop-opacity="0"/>
<stop offset="0.7523" stop-color="#DAE4F4"/>
</linearGradient>
<linearGradient id="paint6_linear_2718_395" x1="254.865" y1="228.025" x2="254.865" y2="174.909" gradientUnits="userSpaceOnUse">
<stop offset="0.163" stop-color="#DAE4F4" stop-opacity="0"/>
<stop offset="0.7523" stop-color="#DAE4F4"/>
</linearGradient>
<linearGradient id="paint7_linear_2718_395" x1="299.125" y1="228.025" x2="299.125" y2="137.026" gradientUnits="userSpaceOnUse">
<stop offset="0.163" stop-color="#DAE4F4" stop-opacity="0"/>
<stop offset="0.7523" stop-color="#DAE4F4"/>
</linearGradient>
<linearGradient id="paint8_linear_2718_395" x1="343.452" y1="228.025" x2="343.452" y2="98.0044" gradientUnits="userSpaceOnUse">
<stop offset="0.163" stop-color="#DAE4F4" stop-opacity="0"/>
<stop offset="0.7523" stop-color="#DAE4F4"/>
</linearGradient>
<linearGradient id="paint9_linear_2718_395" x1="206.549" y1="148.238" x2="372.573" y2="148.238" gradientUnits="userSpaceOnUse">
<stop stop-color="#FF9100"/>
<stop offset="0.1169" stop-color="#C7A405"/>
<stop offset="0.2428" stop-color="#93B50A"/>
<stop offset="0.3708" stop-color="#66C40E"/>
<stop offset="0.4982" stop-color="#41D012"/>
<stop offset="0.6252" stop-color="#25DA15"/>
<stop offset="0.7514" stop-color="#10E116"/>
<stop offset="0.8767" stop-color="#04E518"/>
<stop offset="1" stop-color="#00E618"/>
</linearGradient>
<linearGradient id="paint10_linear_2718_395" x1="5.76673" y1="144.241" x2="207.599" y2="144.241" gradientUnits="userSpaceOnUse">
<stop stop-color="#E6311F"/>
<stop offset="0.3649" stop-color="#E7331E"/>
<stop offset="0.5435" stop-color="#E93B1C"/>
<stop offset="0.6818" stop-color="#EC4818"/>
<stop offset="0.7992" stop-color="#F15B12"/>
<stop offset="0.9023" stop-color="#F7720A"/>
<stop offset="0.996" stop-color="#FF9000"/>
<stop offset="1" stop-color="#FF9100"/>
</linearGradient>
<clipPath id="clip0_2718_395">
<rect width="428" height="295" fill="white"/>
</clipPath>
</defs>
</svg>
