<svg width="68" height="68" viewBox="0 0 68 68" fill="none" xmlns="http://www.w3.org/2000/svg">
<rect x="0.707107" y="33.9412" width="47" height="47" rx="11.5" transform="rotate(-45 0.707107 33.9412)" fill="white" stroke="#0F2F2C"/>
<path d="M39.1514 31.8774H34.3389C33.963 31.8774 33.6514 31.5658 33.6514 31.1899C33.6514 30.8141 33.963 30.5024 34.3389 30.5024H39.1514C39.5272 30.5024 39.8389 30.8141 39.8389 31.1899C39.8389 31.5658 39.5364 31.8774 39.1514 31.8774Z" fill="#0F2F2C"/>
<path d="M29.526 32.5742C29.3519 32.5742 29.1777 32.51 29.0402 32.3725L28.3527 31.685C28.0869 31.4191 28.0869 30.9791 28.3527 30.7133C28.6185 30.4475 29.0585 30.4475 29.3244 30.7133L29.526 30.915L31.1027 29.3383C31.3685 29.0725 31.8085 29.0725 32.0744 29.3383C32.3402 29.6041 32.3402 30.0441 32.0744 30.31L30.0119 32.3725C29.8835 32.5008 29.7094 32.5742 29.526 32.5742Z" fill="#0F2F2C"/>
<path d="M39.1514 38.2941H34.3389C33.963 38.2941 33.6514 37.9824 33.6514 37.6066C33.6514 37.2307 33.963 36.9191 34.3389 36.9191H39.1514C39.5272 36.9191 39.8389 37.2307 39.8389 37.6066C39.8389 37.9824 39.5364 38.2941 39.1514 38.2941Z" fill="#0F2F2C"/>
<path d="M29.526 38.9908C29.3519 38.9908 29.1777 38.9266 29.0402 38.7891L28.3527 38.1016C28.0869 37.8358 28.0869 37.3958 28.3527 37.1299C28.6185 36.8641 29.0585 36.8641 29.3244 37.1299L29.526 37.3316L31.1027 35.7549C31.3685 35.4891 31.8085 35.4891 32.0744 35.7549C32.3402 36.0208 32.3402 36.4608 32.0744 36.7266L30.0119 38.7891C29.8835 38.9174 29.7094 38.9908 29.526 38.9908Z" fill="#0F2F2C"/>
<path d="M36.7497 43.9132H31.2497C26.2722 43.9132 24.1455 41.7865 24.1455 36.809V31.309C24.1455 26.3315 26.2722 24.2048 31.2497 24.2048H36.7497C41.7272 24.2048 43.8538 26.3315 43.8538 31.309V36.809C43.8538 41.7865 41.7272 43.9132 36.7497 43.9132ZM31.2497 25.5798C27.0238 25.5798 25.5205 27.0832 25.5205 31.309V36.809C25.5205 41.0348 27.0238 42.5382 31.2497 42.5382H36.7497C40.9755 42.5382 42.4788 41.0348 42.4788 36.809V31.309C42.4788 27.0832 40.9755 25.5798 36.7497 25.5798H31.2497Z" fill="#0F2F2C"/>
</svg>
