<svg width="40" height="40" viewBox="0 0 40 40" fill="none" xmlns="http://www.w3.org/2000/svg">
<g clip-path="url(#clip0_2718_340)">
<path fill-rule="evenodd" clip-rule="evenodd" d="M16.8324 28.4928H2.63393C1.48609 28.4928 0.546875 27.5527 0.546875 26.4076V2.63601C0.546875 1.4884 1.48633 0.54895 2.63393 0.54895H33.2343C34.3822 0.54895 35.3195 1.48817 35.3195 2.63601V19.3298L37.158 21.1683C37.2476 21.2579 37.308 21.3725 37.3312 21.4971C37.3544 21.6216 37.3394 21.7503 37.2881 21.8661L36.6506 23.305C37.0532 24.011 37.3653 24.765 37.5797 25.549L39.0467 26.1136C39.1651 26.1591 39.2668 26.2394 39.3386 26.344C39.4104 26.4485 39.4488 26.5723 39.4488 26.6992V29.5891C39.4488 29.7159 39.4104 29.8397 39.3386 29.9443C39.2668 30.0488 39.1651 30.1291 39.0467 30.1747L37.5793 30.7394C37.3637 31.5218 37.0516 32.2743 36.6503 32.9797L37.2881 34.4192C37.3394 34.5351 37.3544 34.6637 37.3312 34.7883C37.308 34.9128 37.2476 35.0275 37.158 35.117L35.115 37.1601C35.0254 37.2497 34.9108 37.3101 34.7862 37.3333C34.6617 37.3565 34.533 37.3414 34.4172 37.2901L32.9788 36.653C32.2735 37.0552 31.5204 37.3672 30.7373 37.5815L30.1726 39.0488C30.1271 39.1671 30.0467 39.2689 29.9422 39.3407C29.8377 39.4125 29.7138 39.4509 29.587 39.4509H26.6971C26.5703 39.4509 26.4464 39.4125 26.3419 39.3407C26.2374 39.2689 26.157 39.1671 26.1115 39.0488L25.5469 37.5817C24.7634 37.3664 24.0098 37.0542 23.3036 36.6524L21.8641 37.2901C21.7482 37.3414 21.6195 37.3565 21.495 37.3333C21.3704 37.3101 21.2558 37.2497 21.1663 37.1601L19.1232 35.117C19.0335 35.0273 18.9731 34.9126 18.95 34.7879C18.9268 34.6631 18.942 34.5343 18.9935 34.4184L19.633 32.9804C19.231 32.2751 18.9185 31.5224 18.7027 30.7398L17.2345 30.1747C17.1161 30.1291 17.0144 30.0488 16.9426 29.9443C16.8708 29.8397 16.8324 29.7159 16.8324 29.5891V28.4928ZM34.0646 19.152V7.01217H1.80178V26.4076C1.80178 26.8639 2.1766 27.2379 2.63393 27.2379H16.8324V26.6992C16.8324 26.5723 16.8708 26.4485 16.9426 26.344C17.0144 26.2394 17.1161 26.1591 17.2345 26.1136L18.7025 25.5486C18.9183 24.7651 19.2309 24.0116 19.6332 23.3054L18.9935 21.8669C18.942 21.751 18.9268 21.6222 18.95 21.4975C18.9731 21.3728 19.0335 21.258 19.1232 21.1683L21.1663 19.1253C21.2559 19.0356 21.3707 18.9752 21.4954 18.952C21.6201 18.9289 21.7489 18.9441 21.8648 18.9956L23.3033 19.6353C24.0085 19.2333 24.7614 18.9213 25.5442 18.7067L26.1117 17.236C26.1573 17.1178 26.2377 17.0162 26.3422 16.9445C26.4466 16.8728 26.5704 16.8344 26.6971 16.8344H29.587C29.8467 16.8344 30.0796 16.9944 30.1728 17.2369L30.7375 18.7068C31.5202 18.9215 32.2728 19.2334 32.9779 19.6352L34.0646 19.152ZM34.0646 5.75726V2.63601C34.0646 2.17868 33.6917 1.80385 33.2343 1.80385H2.63393C2.17637 1.80385 1.80178 2.17844 1.80178 2.63601V5.75726H34.0646ZM29.6823 19.4593L29.156 18.0893H27.1275L26.5986 19.4602C26.5619 19.5552 26.5026 19.6399 26.4259 19.7069C26.3492 19.7739 26.2573 19.8212 26.1583 19.8447C25.2804 20.0532 24.4416 20.4009 23.6736 20.8744C23.5868 20.9279 23.4882 20.9594 23.3864 20.9662C23.2847 20.973 23.1827 20.9549 23.0895 20.9135L21.7488 20.3174L20.3153 21.7509L20.9114 23.0916C20.9529 23.1848 20.971 23.2867 20.9641 23.3885C20.9573 23.4903 20.9258 23.5889 20.8723 23.6757C20.3983 24.4454 20.0497 25.2855 19.8394 26.1646C19.8157 26.2635 19.7682 26.3552 19.7012 26.4317C19.6342 26.5082 19.5496 26.5672 19.4546 26.6038L18.0873 27.13V29.1583L19.4546 29.6846C19.5495 29.7211 19.6341 29.78 19.7011 29.8565C19.7681 29.9329 19.8155 30.0244 19.8393 30.1232C20.0507 31.0014 20.3975 31.8418 20.8717 32.6089C20.9255 32.6958 20.9572 32.7945 20.9641 32.8964C20.971 32.9983 20.9529 33.1004 20.9114 33.1937L20.3153 34.5344L21.7493 35.9684L23.0903 35.3744C23.1832 35.3332 23.2847 35.3153 23.386 35.322C23.4874 35.3288 23.5856 35.36 23.6722 35.4131C24.4422 35.8848 25.2797 36.2347 26.1608 36.4435C26.26 36.467 26.3521 36.5144 26.4289 36.5815C26.5057 36.6486 26.565 36.7334 26.6017 36.8286L27.1279 38.196H29.1562L29.6825 36.8286C29.7191 36.7335 29.7783 36.6487 29.8551 36.5816C29.9318 36.5145 30.0238 36.4671 30.123 36.4435C31.0005 36.235 31.8402 35.8884 32.6068 35.4144C32.6936 35.3608 32.7921 35.3291 32.8939 35.3221C32.9957 35.3151 33.0976 35.3331 33.1909 35.3744L34.532 35.9684L35.9663 34.5341L35.3723 33.193C35.3312 33.1001 35.3132 32.9986 35.32 32.8972C35.3267 32.7959 35.358 32.6977 35.411 32.6111C35.8827 31.8411 36.2328 31.0035 36.4415 30.125C36.465 30.0258 36.5124 29.9339 36.5795 29.8572C36.6466 29.7804 36.7314 29.7212 36.8266 29.6846L38.1939 29.1583V27.13L36.8266 26.6038C36.7314 26.5671 36.6465 26.5078 36.5794 26.431C36.5123 26.3541 36.4649 26.2621 36.4414 26.1628C36.2334 25.2841 35.8858 24.4444 35.4118 23.6757C35.3584 23.589 35.3269 23.4906 35.32 23.3889C35.3131 23.2873 35.3311 23.1855 35.3723 23.0924L35.9663 21.7514L34.5324 20.3174L33.1917 20.9135C33.0985 20.9549 32.9966 20.973 32.8948 20.9662C32.793 20.9594 32.6944 20.9279 32.6076 20.8744C31.8396 20.4009 31.0008 20.0532 30.123 19.8447C30.0237 19.8211 29.9317 19.7737 29.8549 19.7066C29.7781 19.6394 29.7189 19.5545 29.6823 19.4593ZM28.1404 21.5788C31.767 21.5788 34.7074 24.5159 34.7074 28.1424C34.7074 31.769 31.7669 34.7095 28.1404 34.7095C24.5138 34.7095 21.5767 31.769 21.5767 28.1424C21.5767 24.5157 24.5136 21.5788 28.1404 21.5788ZM28.1404 22.8337C25.207 22.8337 22.8316 25.2091 22.8316 28.1424C22.8316 31.0759 25.207 33.4546 28.1404 33.4546C31.0739 33.4546 33.4525 31.0759 33.4525 28.1424C33.4525 25.209 31.0738 22.8337 28.1404 22.8337ZM28.7156 24.6883C28.7696 24.5309 28.8839 24.4015 29.0334 24.3283C29.1829 24.2552 29.3553 24.2444 29.5127 24.2984C29.67 24.3524 29.7995 24.4667 29.8726 24.6162C29.9457 24.7656 29.9565 24.938 29.9026 25.0954L27.7412 31.3979C27.6872 31.5553 27.5729 31.6848 27.4234 31.7579C27.2739 31.831 27.1015 31.8418 26.9441 31.7879C26.7868 31.7338 26.6573 31.6195 26.5842 31.4701C26.5111 31.3206 26.5003 31.1482 26.5542 30.9908L28.7156 24.6883ZM26.165 29.5951C26.4099 29.84 26.4099 30.2377 26.165 30.4825C25.9201 30.7274 25.5225 30.7274 25.2776 30.4825L23.383 28.5878C23.3247 28.5295 23.2785 28.4604 23.2469 28.3842C23.2154 28.3081 23.1991 28.2265 23.1991 28.1441C23.1991 28.0617 23.2154 27.9801 23.2469 27.904C23.2785 27.8279 23.3247 27.7587 23.383 27.7005L25.2776 25.8058C25.3953 25.6882 25.5549 25.6221 25.7213 25.6221C25.8877 25.6221 26.0473 25.6882 26.165 25.8058C26.2826 25.9235 26.3486 26.0831 26.3486 26.2495C26.3486 26.4158 26.2826 26.5754 26.165 26.6931L24.7139 28.1442L26.165 29.5951ZM31.0065 30.4825C30.7616 30.7274 30.3641 30.7274 30.1192 30.4825C29.8743 30.2377 29.8743 29.84 30.1192 29.5951L31.5702 28.1442L30.1192 26.6931C30.0016 26.5754 29.9355 26.4158 29.9355 26.2495C29.9355 26.0831 30.0016 25.9235 30.1192 25.8058C30.2369 25.6882 30.3964 25.6221 30.5628 25.6221C30.7292 25.6221 30.8888 25.6882 31.0065 25.8058L32.9012 27.7005C33.0189 27.8182 33.085 27.9777 33.085 28.1441C33.085 28.3105 33.0189 28.4701 32.9012 28.5878L31.0065 30.4825ZM6.07527 21.7953C5.72899 21.7953 5.44782 21.5141 5.44782 21.1679C5.44782 20.8215 5.72899 20.5404 6.07527 20.5404H15.15C15.4964 20.5404 15.7775 20.8215 15.7775 21.1679C15.7775 21.5141 15.4964 21.7953 15.15 21.7953H6.07527ZM22.3647 15.0751V17.3025C22.3647 17.4689 22.2986 17.6285 22.1809 17.7462C22.0632 17.8639 21.9036 17.93 21.7372 17.93H4.5344C4.36799 17.93 4.2084 17.8639 4.09073 17.7462C3.97306 17.6285 3.90695 17.4689 3.90695 17.3025V15.0751C3.90695 14.9087 3.97306 14.7491 4.09073 14.6315C4.2084 14.5138 4.36799 14.4477 4.5344 14.4477C5.32452 14.4477 5.96601 13.8063 5.96601 13.0162C5.96601 12.226 5.32452 11.5846 4.5344 11.5846C4.36799 11.5846 4.2084 11.5185 4.09073 11.4009C3.97306 11.2832 3.90695 11.1236 3.90695 10.9572V8.72981C3.90695 8.5634 3.97306 8.40381 4.09073 8.28614C4.2084 8.16847 4.36799 8.10236 4.5344 8.10236H21.7372C21.9036 8.10236 22.0632 8.16847 22.1809 8.28614C22.2986 8.40381 22.3647 8.5634 22.3647 8.72981V10.9572C22.3647 11.1236 22.2986 11.2832 22.1809 11.4009C22.0632 11.5185 21.9036 11.5846 21.7372 11.5846C20.9471 11.5846 20.3057 12.226 20.3057 13.0162C20.3057 13.8063 20.9471 14.4477 21.7372 14.4477C21.9036 14.4477 22.0632 14.5138 22.1809 14.6315C22.2986 14.7491 22.3647 14.9087 22.3647 15.0751ZM15.4328 9.35727H5.16186V10.4035C6.34233 10.6864 7.22092 11.7495 7.22092 13.0162C7.22092 14.2828 6.34233 15.346 5.16186 15.6288V16.6751H15.4328V16.4815C15.4328 16.1352 15.7139 15.8541 16.0602 15.8541C16.4065 15.8541 16.6877 16.1352 16.6877 16.4815V16.6751H21.1098V15.6288C19.9293 15.346 19.0508 14.2828 19.0508 13.0162C19.0508 11.7495 19.9293 10.6864 21.1098 10.4035V9.35727H16.6877V9.45099C16.6877 9.79734 16.4065 10.0784 16.0602 10.0784C15.7139 10.0784 15.4328 9.79734 15.4328 9.45099V9.35727ZM15.4328 10.8571C15.4328 10.5108 15.7139 10.2297 16.0602 10.2297C16.4065 10.2297 16.6877 10.5108 16.6877 10.8571V12.2632C16.6877 12.6095 16.4065 12.8907 16.0602 12.8907C15.7139 12.8907 15.4328 12.6095 15.4328 12.2632V10.8571ZM15.4328 13.6693C15.4328 13.323 15.7139 13.0418 16.0602 13.0418C16.4065 13.0418 16.6877 13.323 16.6877 13.6693V15.0754C16.6877 15.4217 16.4065 15.7028 16.0602 15.7028C15.7139 15.7028 15.4328 15.4217 15.4328 15.0754V13.6693ZM8.61488 13.2099C8.49728 13.0922 8.43123 12.9326 8.43123 12.7662C8.43123 12.5999 8.49728 12.4403 8.61488 12.3226C8.73258 12.205 8.89217 12.1389 9.05856 12.1389C9.22496 12.1389 9.38455 12.205 9.50225 12.3226L10.7427 13.5631L13.1675 11.1383C13.2852 11.0207 13.4448 10.9546 13.6112 10.9546C13.7775 10.9546 13.9371 11.0207 14.0548 11.1383C14.1724 11.256 14.2385 11.4156 14.2385 11.582C14.2385 11.7484 14.1724 11.908 14.0548 12.0257L11.1864 14.894C11.1281 14.9523 11.059 14.9985 10.9828 15.0301C10.9067 15.0616 10.8251 15.0778 10.7427 15.0778C10.6603 15.0778 10.5787 15.0616 10.5026 15.0301C10.4265 14.9985 10.3573 14.9523 10.299 14.894L8.61488 13.2099ZM6.07527 24.3073C5.72899 24.3073 5.44782 24.0262 5.44782 23.6799C5.44782 23.3336 5.72899 23.0524 6.07527 23.0524H16.5945C16.9408 23.0524 17.2219 23.3336 17.2219 23.6799C17.2219 24.0262 16.9408 24.3073 16.5945 24.3073H6.07527ZM5.14139 4.63201C4.67205 4.63201 4.28899 4.25083 4.28899 3.7815C4.28899 3.31217 4.67205 2.92911 5.14139 2.92911C5.61064 2.92911 5.99378 3.31217 5.99378 3.7815C5.99378 4.25083 5.61064 4.63201 5.14139 4.63201ZM8.41307 4.63201C7.94374 4.63201 7.56068 4.25083 7.56068 3.7815C7.56068 3.31217 7.94374 2.92911 8.41307 2.92911C8.88241 2.92911 9.26358 3.31217 9.26358 3.7815C9.26358 4.25083 8.88241 4.63201 8.41307 4.63201ZM11.6829 4.63201C11.2135 4.63201 10.8305 4.25083 10.8305 3.7815C10.8305 3.31217 11.2135 2.92911 11.6829 2.92911C12.1521 2.92911 12.5353 3.31217 12.5353 3.7815C12.5353 4.25083 12.1521 4.63201 11.6829 4.63201Z" fill="#FF9500"/>
</g>
<defs>
<clipPath id="clip0_2718_340">
<rect width="40" height="40" fill="white"/>
</clipPath>
</defs>
</svg>
