<svg width="68" height="68" viewBox="0 0 68 68" fill="none" xmlns="http://www.w3.org/2000/svg">
<rect x="0.707107" y="33.9412" width="47" height="47" rx="11.5" transform="rotate(-45 0.707107 33.9412)" fill="white" stroke="#0F2F2C"/>
<g clip-path="url(#clip0_4001_50)">
<path d="M43.2191 28.8414C43.2078 28.2474 43.197 27.6863 43.197 27.1434C43.197 26.7182 42.8524 26.3734 42.427 26.3734C39.1337 26.3734 36.6263 25.4269 34.5363 23.3948C34.2373 23.104 33.7615 23.1041 33.4626 23.3948C31.3728 25.4269 28.8658 26.3734 25.5727 26.3734C25.1474 26.3734 24.8026 26.7182 24.8026 27.1434C24.8026 27.6864 24.792 28.2477 24.7806 28.8418C24.675 34.3693 24.5305 41.9396 33.7472 45.1343C33.8289 45.1627 33.9142 45.1768 33.9994 45.1768C34.0846 45.1768 34.1699 45.1627 34.2515 45.1343C43.469 41.9395 43.3247 34.369 43.2191 28.8414ZM33.9995 43.5896C26.0949 40.7181 26.2144 34.4278 26.3205 28.8711C26.3268 28.5376 26.333 28.2144 26.3373 27.8976C29.4217 27.7674 31.8881 26.8327 33.9995 24.9934C36.1111 26.8327 38.5779 27.7675 41.6625 27.8976C41.6668 28.2143 41.6729 28.5373 41.6793 28.8706C41.7853 34.4274 41.9047 40.718 33.9995 43.5896Z" fill="#0F2F2C"/>
<path d="M36.6514 31.5017L32.9347 35.2182L31.3487 33.6322C31.048 33.3316 30.5604 33.3316 30.2597 33.6322C29.959 33.9331 29.959 34.4206 30.2597 34.7213L32.3902 36.8518C32.5405 37.0021 32.7377 37.0773 32.9347 37.0773C33.1317 37.0773 33.3289 37.0021 33.4792 36.8518L37.7403 32.5908C38.0411 32.2901 38.0411 31.8025 37.7404 31.5018C37.4397 31.2011 36.9521 31.201 36.6514 31.5017Z" fill="#0F2F2C"/>
</g>
<defs>
<clipPath id="clip0_4001_50">
<rect width="22" height="22" fill="white" transform="translate(23 23.1768)"/>
</clipPath>
</defs>
</svg>
