<svg width="40" height="40" viewBox="0 0 40 40" fill="none" xmlns="http://www.w3.org/2000/svg">
<g clip-path="url(#clip0_2718_374)">
<path d="M18.3334 20.5485V2.50011C18.3334 2.04011 17.96 1.66675 17.5 1.66675C7.85 1.66675 0 10.2651 0 20.8334C0 31.4017 8.59836 40.0001 19.1666 40.0001C23.895 40.0001 26.4533 39.1435 29.6966 36.4767C30.045 36.1901 30.1016 35.6784 29.825 35.3217L18.3334 20.5485ZM19.1666 38.3335C9.51664 38.3335 1.66664 30.4835 1.66664 20.8335C1.66664 11.4935 8.32164 3.83847 16.6666 3.35683V20.8335C16.6666 21.0185 16.7283 21.1985 16.8433 21.3451L28.0033 35.6935C25.3716 37.7035 23.1766 38.3335 19.1666 38.3335Z" fill="#FF9500"/>
<path d="M20.8334 20H39.1667C39.6267 20 40.0001 19.6266 40.0001 19.1666C40 8.59836 31.4016 0 20.8334 0C20.3734 0 20 0.373359 20 0.833359V19.1667C20 19.6266 20.3734 20 20.8334 20ZM21.6666 1.68664C30.655 2.11 37.89 9.345 38.3133 18.3333H21.6666V1.68664ZM39.1666 21.6666H22.5C22.3424 21.6669 22.1882 21.7116 22.0549 21.7956C21.9216 21.8796 21.8148 21.9996 21.7466 22.1416C21.679 22.2835 21.653 22.4416 21.6716 22.5977C21.6902 22.7537 21.7526 22.9013 21.8516 23.0233L32.685 36.4349C32.83 36.6166 33.0434 36.7266 33.275 36.7433C33.295 36.7449 33.3134 36.7449 33.3334 36.7449C33.5434 36.7449 33.7467 36.6649 33.9017 36.5216C37.7766 32.9066 40 27.7966 40 22.5C40 22.04 39.6266 21.6666 39.1666 21.6666ZM33.405 34.6734L24.245 23.3334H38.3134C38.1084 27.57 36.355 31.6216 33.405 34.6734Z" fill="#FF9500"/>
</g>
<defs>
<clipPath id="clip0_2718_374">
<rect width="40" height="40" fill="white"/>
</clipPath>
</defs>
</svg>
