<svg width="68" height="68" viewBox="0 0 68 68" fill="none" xmlns="http://www.w3.org/2000/svg">
<rect x="0.707107" y="33.9412" width="47" height="47" rx="11.5" transform="rotate(-45 0.707107 33.9412)" fill="white" stroke="#0F2F2C"/>
<g clip-path="url(#clip0_4001_51)">
<path d="M44.9957 28.7204C44.97 28.4838 44.823 28.2744 44.6032 28.1718L34.2907 23.3593C34.1064 23.2733 33.8935 23.2733 33.7092 23.3593L23.3967 28.1718C23.177 28.2744 23.0299 28.4837 23.0042 28.7204C23.0037 28.7254 23 28.7912 23 28.7948V40.4823C23 40.7634 23.1711 41.0162 23.4322 41.1206L33.7447 45.2456C33.8266 45.2784 33.9133 45.2948 34 45.2948C34.0867 45.2948 34.1734 45.2784 34.2553 45.2456L44.5678 41.1206C44.8289 41.0162 45 40.7634 45 40.4823V28.7948C45 28.7912 44.9963 28.7253 44.9957 28.7204ZM34 24.7409L42.5828 28.7462L39.2779 30.0682L30.5336 26.3586L34 24.7409ZM28.8571 27.141L37.4657 30.7931L34 32.1793L25.4172 28.7462L28.8571 27.141ZM24.375 29.8102L33.3125 33.3852V43.5918L24.375 40.0168V29.8102ZM34.6875 43.5919V33.3852L43.625 29.8102V40.0168L34.6875 43.5919Z" fill="#0F2F2C"/>
</g>
<defs>
<clipPath id="clip0_4001_51">
<rect width="22" height="22" fill="white" transform="translate(23 23.2946)"/>
</clipPath>
</defs>
</svg>
