<svg width="40" height="40" viewBox="0 0 40 40" fill="none" xmlns="http://www.w3.org/2000/svg">
<path fill-rule="evenodd" clip-rule="evenodd" d="M35.8307 10.0065H2.4974C2.27638 10.0065 2.06442 9.91871 1.90814 9.76243C1.75186 9.60615 1.66406 9.39419 1.66406 9.17318C1.66406 8.95216 1.75186 8.7402 1.90814 8.58392C2.06442 8.42764 2.27638 8.33984 2.4974 8.33984H35.8307C36.0517 8.33984 36.2637 8.42764 36.42 8.58392C36.5763 8.7402 36.6641 8.95216 36.6641 9.17318C36.6641 9.39419 36.5763 9.60615 36.42 9.76243C36.2637 9.91871 36.0517 10.0065 35.8307 10.0065ZM32.4974 15.0065H5.83073C5.60972 15.0065 5.39775 14.9187 5.24147 14.7624C5.08519 14.6062 4.9974 14.3942 4.9974 14.1732C4.9974 13.9522 5.08519 13.7402 5.24147 13.5839C5.39775 13.4276 5.60972 13.3398 5.83073 13.3398H32.4974C32.7184 13.3398 32.9304 13.4276 33.0867 13.5839C33.2429 13.7402 33.3307 13.9522 33.3307 14.1732C33.3307 14.3942 33.2429 14.6062 33.0867 14.7624C32.9304 14.9187 32.7184 15.0065 32.4974 15.0065ZM29.1641 20.0065H9.16406C8.94305 20.0065 8.73109 19.9187 8.57481 19.7624C8.41853 19.6062 8.33073 19.3942 8.33073 19.1732C8.33073 18.9522 8.41853 18.7402 8.57481 18.5839C8.73109 18.4276 8.94305 18.3398 9.16406 18.3398H29.1641C29.3851 18.3398 29.597 18.4276 29.7533 18.5839C29.9096 18.7402 29.9974 18.9522 29.9974 19.1732C29.9974 19.3942 29.9096 19.6062 29.7533 19.7624C29.597 19.9187 29.3851 20.0065 29.1641 20.0065ZM25.8307 25.0065H12.4974C12.2764 25.0065 12.0644 24.9187 11.9081 24.7624C11.7519 24.6062 11.6641 24.3942 11.6641 24.1732C11.6641 23.9522 11.7519 23.7402 11.9081 23.5839C12.0644 23.4276 12.2764 23.3398 12.4974 23.3398H25.8307C26.0517 23.3398 26.2637 23.4276 26.42 23.5839C26.5763 23.7402 26.6641 23.9522 26.6641 24.1732C26.6641 24.3942 26.5763 24.6062 26.42 24.7624C26.2637 24.9187 26.0517 25.0065 25.8307 25.0065ZM22.4974 30.0065H15.8307C15.6097 30.0065 15.3978 29.9187 15.2415 29.7624C15.0852 29.6062 14.9974 29.3942 14.9974 29.1732C14.9974 28.9522 15.0852 28.7402 15.2415 28.5839C15.3978 28.4276 15.6097 28.3398 15.8307 28.3398H22.4974C22.7184 28.3398 22.9304 28.4276 23.0867 28.5839C23.2429 28.7402 23.3307 28.9522 23.3307 29.1732C23.3307 29.3942 23.2429 29.6062 23.0867 29.7624C22.9304 29.9187 22.7184 30.0065 22.4974 30.0065Z" fill="#FF9500"/>
</svg>
