<svg width="32" height="32" viewBox="0 0 32 32" fill="none" xmlns="http://www.w3.org/2000/svg">
<g clip-path="url(#clip0_2218_3726)">
<path d="M32 19.7079V12.292H28.7494C28.4786 11.3593 28.1059 10.4609 27.6359 9.60776L29.9356 7.3081L24.6918 2.06434L22.3922 4.36407C21.539 3.89405 20.6406 3.52136 19.7079 3.25062V0H12.292V3.25062C11.3593 3.52136 10.461 3.89405 9.60782 4.36407L7.30816 2.06441L2.06441 7.30816L4.36407 9.60782C3.89405 10.461 3.52143 11.3593 3.25069 12.2921H0V19.708H3.25069C3.52143 20.6407 3.89405 21.5391 4.36407 22.3922L2.06447 24.6918L7.30822 29.9356L9.60788 27.6359C10.461 28.1059 11.3594 28.4781 12.292 28.7489L12.2922 31.9999H19.7103V28.7491C20.6412 28.4786 21.5389 28.1063 22.3923 27.6359L24.6919 29.9355L29.9357 24.6918L27.636 22.3921C28.1059 21.539 28.4786 20.6407 28.7494 19.7079H32ZM17.8362 21.166V30.1259H14.166L14.1656 21.166L13.6344 20.9108C11.7474 20.0042 10.5282 18.0667 10.5282 15.9746C10.5282 14.2777 11.304 12.7161 12.5865 11.6947V16.1221L16.0009 18.1742L19.4154 16.1221V11.6947C20.6978 12.7161 21.4736 14.2777 21.4736 15.9746C21.4736 18.0667 20.2544 20.0042 18.3674 20.9108L17.8362 21.166ZM27.2853 24.6918L24.6918 27.2854L22.6771 25.2706L22.0447 25.667C21.3061 26.1299 20.5245 26.5036 19.7103 26.7839V22.3176C20.709 21.7329 21.5579 20.9194 22.1874 19.9387C22.9464 18.7562 23.3476 17.3856 23.3476 15.9748C23.3476 13.0061 21.5786 10.3458 18.8407 9.19746L17.5412 8.65236V15.062L16.0009 15.9878L14.4605 15.062V8.6523L13.161 9.1974C10.4232 10.3458 8.65405 13.0061 8.65405 15.9747C8.65405 17.3855 9.05529 18.7562 9.81434 19.9387C10.4438 20.9193 11.2929 21.7329 12.2915 22.3175L12.2918 26.7839C11.4758 26.5033 10.6934 26.1296 9.95527 25.667L9.32278 25.2706L7.3081 27.2854L4.71464 24.6918L6.72932 22.6771L6.33296 22.0447C5.65748 20.9669 5.17141 19.7949 4.88831 18.5613L4.72133 17.8338H1.87406V14.1661H4.72145L4.88843 13.4387C5.17154 12.205 5.65761 11.033 6.33308 9.95521L6.72945 9.32278L4.71477 7.3081L7.30822 4.71458L9.3229 6.72939L9.95534 6.33296C11.0332 5.65742 12.2052 5.17129 13.4387 4.88824L14.1662 4.72126V1.87406H17.8339V4.72139L18.5613 4.88837C19.7949 5.17141 20.9669 5.65755 22.0448 6.33308L22.6772 6.72951L24.6919 4.71471L27.2854 7.30822L25.2705 9.32284L25.6669 9.95527C26.3425 11.0332 26.8286 12.2051 27.1116 13.4387L27.2786 14.1662H30.1259V17.8339H27.2786L27.1116 18.5613C26.8285 19.7949 26.3425 20.9669 25.6669 22.0447L25.2705 22.6772L27.2853 24.6918Z" fill="#585B7C"/>
</g>
<defs>
<clipPath id="clip0_2218_3726">
<rect width="32" height="32" fill="white"/>
</clipPath>
</defs>
</svg>
