<svg width="93" height="33" viewBox="0 0 93 33" fill="none" xmlns="http://www.w3.org/2000/svg">
<path d="M92.9922 22.6145C92.5889 23.0833 92.2601 23.673 91.7684 23.9969C90.6562 24.7316 89.5315 24.3288 88.5403 22.9818C84.4219 24.7912 80.8914 24.0323 78.6313 20.8535C77.621 19.4268 77.0984 17.6905 77.1465 15.9202C77.1945 14.1499 77.8105 12.4469 78.8965 11.0817C80.0478 9.64534 81.6539 8.68172 83.427 8.36346C85.2 8.0452 87.0243 8.3931 88.5729 9.34482C89.7689 8.05588 90.7291 7.74493 91.8009 8.47318C92.288 8.80347 92.606 9.40121 93 9.87812L92.9922 22.6145ZM81.1566 16.1794C81.175 17.1564 81.5625 18.0867 82.2355 18.7695C82.9085 19.4523 83.8131 19.8327 84.7539 19.8287C86.7006 19.8142 88.3449 18.1225 88.334 16.1424C88.3232 14.1622 86.6727 12.4463 84.7585 12.4367C83.8038 12.4396 82.8891 12.835 82.2142 13.5363C81.5393 14.2376 81.1591 15.1879 81.1566 16.1794ZM63.5568 23.8454V28.4534C63.5568 28.8562 63.5708 29.259 63.5568 29.6618C63.4885 31.0393 62.5144 32.0012 61.1881 32.0173C59.8619 32.0334 58.8226 31.0796 58.7372 29.7407C58.6829 28.8852 58.7124 28.0216 58.7109 27.1628C58.7109 21.8459 58.7248 16.5291 58.7 11.2122C58.7 10.0215 58.942 9.0097 60.0201 8.43129C61.0485 7.87704 62.0009 8.07522 62.8944 8.83891C63.034 8.95653 63.4125 8.87436 63.6344 8.77447C68.2724 6.67994 73.6256 9.45922 74.6401 14.5425C75.2481 17.5876 74.457 20.2702 72.2435 22.3712C69.9849 24.5157 67.3184 25.0506 64.3867 24.1225C64.1587 24.0436 63.9415 23.9679 63.5568 23.8454ZM66.9182 12.4061C66.4212 12.4012 65.9282 12.4985 65.4675 12.6923C65.0069 12.8862 64.5877 13.1729 64.2342 13.5357C63.8806 13.8986 63.5997 14.3305 63.4076 14.8067C63.2154 15.2828 63.1159 15.7937 63.1147 16.3099C63.1114 17.0851 63.3292 17.8438 63.7408 18.4904C64.1524 19.137 64.7393 19.6424 65.4272 19.9428C66.1152 20.2431 66.8734 20.325 67.6062 20.178C68.3389 20.031 69.0133 19.6618 69.5441 19.117C70.0749 18.5722 70.4384 17.8762 70.5886 17.1169C70.7388 16.3576 70.669 15.5691 70.388 14.851C70.1071 14.133 69.6275 13.5174 69.0099 13.0823C68.3924 12.6471 67.6645 12.4118 66.9182 12.4061ZM44.4306 23.8454C44.4306 25.8481 44.4476 27.7251 44.4228 29.6021C44.4245 30.1036 44.2738 30.5927 43.9922 31C43.7106 31.4074 43.3125 31.712 42.8546 31.8707C41.8711 32.1929 40.8939 32.0705 40.247 31.194C39.8612 30.6673 39.6389 30.0312 39.6095 29.3701C39.5629 23.1687 39.5831 16.9641 39.58 10.7659C39.58 9.70895 39.9756 8.88403 40.8985 8.40067C41.8215 7.91732 42.7786 8.0011 43.5728 8.71324C43.9823 9.07898 44.2708 8.86469 44.6167 8.71324C49.23 6.7315 54.3892 9.42055 55.4596 14.4136C56.1281 17.5199 55.3355 20.2299 53.0723 22.3744C50.8091 24.5189 48.1891 25.0232 45.2946 24.1274C45.0448 24.0533 44.8044 23.9727 44.4306 23.8454ZM47.7113 20.2074C48.4549 20.2109 49.1828 19.9852 49.8028 19.559C50.4229 19.1327 50.9073 18.525 51.1947 17.8127C51.4822 17.1005 51.5598 16.3156 51.4177 15.5575C51.2756 14.7995 50.9202 14.1022 50.3965 13.5539C49.8728 13.0057 49.2043 12.6311 48.4755 12.4776C47.7468 12.324 46.9906 12.3985 46.3026 12.6914C45.6146 12.9844 45.0258 13.4828 44.6105 14.1234C44.1953 14.7641 43.9723 15.5183 43.9699 16.2906C43.9637 18.3948 45.687 20.1993 47.7113 20.2138V20.2074ZM20.5887 11.1671V2.70355C20.5918 1.06338 21.5613 0 23.0319 0C24.5024 0 25.4533 1.10043 25.4533 2.72772C25.4533 7.96727 25.4641 13.2004 25.444 18.4464C25.444 19.1327 25.5634 19.5742 26.2583 19.8626C27.3923 20.3459 27.8902 21.6139 27.5458 22.7998C27.385 23.3864 27.0279 23.8941 26.5388 24.2317C26.0498 24.5693 25.4608 24.7145 24.8778 24.6413C22.2857 24.3481 20.6151 22.4179 20.5934 19.6306C20.5701 16.8094 20.5887 13.9882 20.5887 11.1671ZM11.9688 16.3567L15.7924 19.9963C16.9915 21.1386 17.142 22.724 16.157 23.839C15.172 24.9539 13.644 24.9297 12.4341 23.789C10.5199 21.9909 8.6068 20.1918 6.69469 18.3916C5.45374 17.2219 5.44288 15.5672 6.67763 14.3862C8.61145 12.5344 10.5541 10.6896 12.5055 8.8518C13.6549 7.7707 15.2092 7.80776 16.1725 8.90497C17.1358 10.0022 17.0117 11.5457 15.8886 12.6365C14.6104 13.8771 13.3059 15.0903 11.9688 16.3567ZM30.777 16.3035C30.777 14.4523 30.7677 12.5978 30.777 10.7498C30.7863 9.15954 31.8054 8.09294 33.2822 8.10261C34.7061 8.11066 35.7144 9.18371 35.7191 10.7385C35.7284 14.47 35.7284 18.2004 35.7191 21.9297C35.7191 23.5103 34.6472 24.6687 33.2527 24.6574C31.8209 24.6397 30.7847 23.5151 30.7708 21.9394C30.7692 20.0608 30.777 18.1821 30.777 16.3035ZM0.0183553 6.48337C0.0183553 5.24921 0.0028434 4.01505 0.0183553 2.77767C0.0524816 1.05854 1.00957 0 2.48165 0C3.99096 0.00805588 4.96356 1.12782 4.97287 2.84695C4.97287 5.37005 4.98217 7.89315 4.97287 10.4195C4.9829 10.9601 4.82595 11.4899 4.52504 11.9312C4.22412 12.3725 3.79504 12.7021 3.30068 12.8717C2.30016 13.2116 1.14918 12.9361 0.589195 12.0516C0.268615 11.5122 0.0810698 10.8991 0.0431744 10.2664C-0.0374876 9.01131 0.0199065 7.74493 0.0183553 6.48337Z" fill="#526464"/>
<path d="M4.8452 21.9778C4.8452 23.5294 3.92379 24.5235 2.47652 24.5218C1.09906 24.5218 0.115607 23.4875 0.109402 22.0326C0.103198 20.5777 1.15025 19.4418 2.50445 19.4547C3.85864 19.4676 4.84209 20.5213 4.8452 21.9778Z" fill="#526464"/>
</svg>
