<svg width="134" height="29" viewBox="0 0 134 29" fill="none" xmlns="http://www.w3.org/2000/svg">
<path d="M82.9369 12.3596L75.6866 4.97722V4.92606C75.2455 4.50067 74.6618 4.26891 74.0586 4.27965C73.4553 4.2904 72.8797 4.5428 72.4531 4.98364C72.0265 5.42447 71.7822 6.01928 71.7718 6.64263C71.7614 7.26597 71.9857 7.86913 72.3974 8.32489L72.4469 8.36874L79.5912 15.8535H82.9723V12.3596H82.9369Z" fill="#526464"/>
<path d="M84.1758 20.59L91.412 27.9725L91.4615 28.0236C91.8977 28.4734 92.4889 28.7256 93.1051 28.725C93.7213 28.7243 94.3119 28.4707 94.7472 28.02C95.1824 27.5693 95.4265 26.9583 95.4259 26.3216C95.4252 25.6849 95.1798 25.0745 94.7436 24.6248L94.7012 24.5809L87.5569 17.0962H84.1758V20.59Z" fill="#526464"/>
<path d="M87.5357 15.8535L94.68 8.36874L94.7295 8.32489C95.1412 7.86913 95.3654 7.26597 95.355 6.64263C95.3446 6.01928 95.1004 5.42447 94.6738 4.98364C94.2472 4.5428 93.6715 4.2904 93.0683 4.27965C92.4651 4.26891 91.8814 4.50067 91.4403 4.92606L91.3979 4.97722L84.1758 12.3596V15.8535H87.5357Z" fill="#526464"/>
<path d="M79.5572 17.0962L72.42 24.5736L72.3704 24.6175C71.9343 25.0721 71.6907 25.6871 71.6934 26.3272C71.6947 26.6442 71.7564 26.9578 71.875 27.2501C71.9936 27.5424 72.1668 27.8077 72.3846 28.0309C72.6024 28.2541 72.8607 28.4307 73.1446 28.5508C73.4285 28.6708 73.7325 28.7319 74.0392 28.7306C74.6587 28.7278 75.2518 28.4709 75.6879 28.0163L75.7304 27.9651L82.9737 20.59V17.0889H79.5855L79.5572 17.0962Z" fill="#526464"/>
<path d="M19.1622 25.0856L18.3063 12.4258C18.2073 10.964 18.1436 9.73602 18.1436 8.47151C17.8748 9.83835 17.6768 10.6643 17.2806 12.1262L13.6519 25.0856H9.73318L6.46521 12.6597C6.16812 11.4976 5.75785 9.83104 5.53858 8.4642C5.53858 9.86759 5.47491 11.2637 5.37588 12.7255L4.58365 25.0856H0L2.12206 1.39609H8.02846L11.0276 13.2591C11.3557 14.4937 11.6201 15.7453 11.8199 17.0088C12.0388 15.7106 12.3221 14.4249 12.6687 13.1568L15.7669 1.39609H21.6379L23.6822 25.0856H19.1622ZM39.2369 25.97C38.2345 25.5669 37.3958 24.8215 36.8602 23.8576C36.5442 24.1914 36.2037 24.4993 35.8416 24.7786C34.8296 25.4514 33.6416 25.7857 32.4392 25.7361C28.6832 25.7361 26.6389 23.7553 26.6389 20.2834C26.6389 16.1901 29.3764 14.2824 34.7523 14.2824H35.7426V13.5515C35.7426 11.6072 35.3747 10.9567 33.762 10.9567C32.3473 10.9567 30.6921 11.6876 28.8812 12.9375L26.9997 9.66293C27.8658 9.088 28.7823 8.59855 29.7371 8.20106C31.1911 7.53134 32.7643 7.1828 34.3561 7.17776C37.1856 7.17776 39.1379 8.26685 39.7957 10.2111C40.0954 11.2256 40.1964 12.2916 40.0928 13.3468L39.9937 19.1943C39.9937 21.102 40.0928 21.9206 41.5782 23.0828L39.2369 25.97ZM35.4738 17.4473C32.4109 17.4473 31.3499 18.0321 31.3499 20.1079C31.3215 20.3924 31.3504 20.6798 31.4345 20.9521C31.5187 21.2245 31.6564 21.476 31.8391 21.6908C32.0217 21.9056 32.2453 22.079 32.4958 22.2004C32.7464 22.3217 33.0185 22.3882 33.2951 22.3958C33.7402 22.3735 34.1759 22.2554 34.5742 22.049C34.9726 21.8426 35.3247 21.5524 35.6082 21.197L35.6718 17.4473H35.4738ZM49.5147 25.4949C47.2724 25.4949 45.4899 24.4716 44.9664 22.9366C44.6797 22.0729 44.5784 21.1551 44.6694 20.2468V10.7447H42.9859V7.63824H44.6694C44.6337 6.25944 44.6881 4.87973 44.832 3.50848L49.3167 2.35361C49.144 4.10952 49.0566 5.87329 49.0549 7.63824H53.009L51.8914 10.7739H49.062V19.5451C49.062 21.7379 49.4581 22.3373 50.9719 22.3373C51.5124 22.3006 52.0456 22.1875 52.5563 22.0011L53.1151 24.7274C51.976 25.2271 50.7522 25.488 49.5147 25.4949ZM63.3293 11.6218C62.9382 11.3897 62.4928 11.2733 62.0419 11.2856C61.5145 11.3055 60.9981 11.4471 60.5306 11.7001C60.063 11.953 59.6562 12.3109 59.3399 12.7475V25.0856H54.9189V13.4272C54.9823 11.6981 54.772 9.96984 54.2964 8.3107L58.2505 7.22161C58.673 7.98061 58.9155 8.83227 58.9579 9.70678C59.9128 8.37649 61.2709 7.22161 62.9191 7.22161C63.49 7.20092 64.0568 7.32912 64.5672 7.59439L63.3293 11.6218ZM67.9766 5.65742C67.619 5.65551 67.2652 5.58082 66.9355 5.43763C66.6058 5.29443 66.3067 5.08554 66.0551 4.82287C65.8035 4.5602 65.6045 4.2489 65.4694 3.90674C65.3342 3.56458 65.2656 3.19827 65.2675 2.82871C65.2749 2.07455 65.5706 1.35401 66.09 0.824143C66.6094 0.294275 67.3104 -0.0019586 68.0403 9.7467e-06C68.3975 0.000944476 68.7511 0.0750715 69.0804 0.218102C69.4097 0.361133 69.7084 0.570228 69.959 0.83329C70.2096 1.09635 70.4073 1.40816 70.5405 1.75067C70.6738 2.09318 70.74 2.45959 70.7353 2.82871C70.7363 3.20231 70.6654 3.57239 70.5269 3.91746C70.3883 4.26254 70.1848 4.57574 69.9281 4.83889C69.6715 5.10205 69.3669 5.30991 69.0318 5.45042C68.6968 5.59093 68.3382 5.66129 67.9766 5.65742ZM65.7838 25.0856V7.93793L70.2048 7.207V25.0856H65.7838ZM99.1002 5.65742C98.7429 5.65551 98.3895 5.58077 98.0602 5.43749C97.7308 5.29421 97.4321 5.08519 97.1811 4.82243C96.9301 4.55966 96.7318 4.2483 96.5974 3.90618C96.463 3.56407 96.3953 3.19792 96.3981 2.82871C96.4037 2.07522 96.6978 1.35467 97.2161 0.824594C97.7343 0.294523 98.4346 -0.00194463 99.1638 9.7467e-06C99.5211 0.000944476 99.8746 0.0750715 100.204 0.218102C100.533 0.361133 100.832 0.570228 101.083 0.83329C101.333 1.09635 101.531 1.40816 101.664 1.75067C101.797 2.09318 101.864 2.45959 101.859 2.82871C101.86 3.20231 101.789 3.57239 101.65 3.91746C101.512 4.26254 101.308 4.57574 101.052 4.83889C100.795 5.10205 100.49 5.30991 100.155 5.45042C99.8204 5.59093 99.4617 5.66129 99.1002 5.65742ZM96.9074 25.0856V7.93793L101.321 7.207V25.0856H96.9074ZM116.218 25.97C115.216 25.5669 114.377 24.8215 113.841 23.8576C113.527 24.1931 113.186 24.5011 112.823 24.7786C111.811 25.4514 110.623 25.7857 109.42 25.7361C105.664 25.7361 103.62 23.7553 103.62 20.2834C103.62 16.1901 106.358 14.2824 111.734 14.2824H112.724V13.5515C112.724 11.6072 112.356 10.9567 110.743 10.9567C109.329 10.9567 107.673 11.6876 105.862 12.9375L103.981 9.71409C104.847 9.13916 105.764 8.64972 106.718 8.25223C108.172 7.58251 109.746 7.23396 111.337 7.22892C114.167 7.22892 116.119 8.31801 116.777 10.2623C117.077 11.2767 117.178 12.3427 117.074 13.398L116.975 19.2454C116.975 21.1532 117.074 21.9718 118.559 23.134L116.218 25.97ZM112.469 17.4473C109.406 17.4473 108.352 18.0321 108.352 20.1079C108.323 20.3926 108.351 20.6804 108.435 20.9533C108.519 21.2261 108.656 21.478 108.839 21.693C109.022 21.9081 109.246 22.0816 109.497 22.2025C109.748 22.3235 110.021 22.3893 110.298 22.3958C110.739 22.3705 111.171 22.251 111.565 22.0447C111.96 21.8383 112.308 21.5497 112.589 21.197L112.653 17.4473H112.469ZM129.644 25.0856V13.7342C129.644 11.7607 129.311 11.176 128.158 11.176C126.992 11.3229 125.908 11.8774 125.088 12.7475V25.0856H120.667V12.4258C120.689 11.0369 120.488 9.65393 120.073 8.33263L123.999 7.17776C124.39 7.83969 124.607 8.59549 124.629 9.37055C125.252 8.89979 125.901 8.46778 126.574 8.0768C127.519 7.60005 128.556 7.35018 129.608 7.34587C131.49 7.34587 133.145 8.36187 133.669 9.86759C133.918 10.6697 134.028 11.511 133.994 12.3528V25.0856H129.644Z" fill="#526464"/>
</svg>
