<svg width="85" height="35" viewBox="0 0 85 35" fill="none" xmlns="http://www.w3.org/2000/svg">
<path d="M85 0H0.0145502V3.07434H85V0ZM85 31.1566H0.0145502V34.2087H85V31.1566ZM81.9761 17.0644C81.9761 14.3987 81.7191 12.7683 79.9285 12.7683H78.4304V21.3249H79.9285C81.7191 21.3249 81.9761 19.6989 81.9761 17.0244V17.0644ZM85 17.0244C85 21.165 83.8339 24.2571 79.9285 24.2571H75.7385C75.7016 24.2597 75.6646 24.2534 75.63 24.2387C75.5953 24.224 75.5639 24.2012 75.5377 24.1718C75.5116 24.1424 75.4913 24.1071 75.4782 24.0682C75.4651 24.0292 75.4595 23.9876 75.4618 23.9461V10.1204C75.4595 10.0789 75.4651 10.0373 75.4782 9.99848C75.4913 9.95955 75.5116 9.92423 75.5377 9.89474C75.5639 9.86534 75.5953 9.8425 75.63 9.8278C75.6646 9.8131 75.7016 9.80691 75.7385 9.8095H79.9285C83.8339 9.8095 85 12.9193 85 17.0422V17.0244ZM69.4061 21.6492V23.9639C69.4084 24.0054 69.4029 24.047 69.3898 24.0859C69.3767 24.1248 69.3564 24.1602 69.3302 24.1896C69.3041 24.219 69.2726 24.2418 69.238 24.2565C69.2033 24.2712 69.1664 24.2775 69.1294 24.2749H61.0696C61.0327 24.2775 60.9957 24.2712 60.9611 24.2565C60.9265 24.2418 60.895 24.219 60.8689 24.1896C60.8427 24.1602 60.8223 24.1248 60.8093 24.0859C60.7962 24.047 60.7907 24.0054 60.793 23.9639V10.1204C60.7907 10.0789 60.7962 10.0373 60.8093 9.99848C60.8223 9.95955 60.8427 9.92423 60.8689 9.89474C60.895 9.86534 60.9265 9.8425 60.9611 9.8278C60.9957 9.8131 61.0327 9.80691 61.0696 9.8095H69.1136C69.1506 9.80691 69.1876 9.8131 69.2222 9.8278C69.2568 9.8425 69.2883 9.86534 69.3144 9.89474C69.3406 9.92423 69.3609 9.95955 69.374 9.99848C69.387 10.0373 69.3927 10.0789 69.3903 10.1204V12.4395C69.3927 12.481 69.387 12.5226 69.374 12.5615C69.3609 12.6005 69.3406 12.6358 69.3144 12.6652C69.2883 12.6947 69.2568 12.7174 69.2222 12.7321C69.1876 12.7469 69.1506 12.7531 69.1136 12.7505H63.7655V15.5494H68.663C68.7 15.5469 68.7369 15.5531 68.7715 15.5678C68.8062 15.5825 68.8377 15.6053 68.8638 15.6347C68.89 15.6642 68.9102 15.6995 68.9234 15.7384C68.9364 15.7774 68.942 15.8189 68.9397 15.8604V18.1751C68.942 18.2166 68.9364 18.2581 68.9234 18.2971C68.9102 18.336 68.89 18.3713 68.8638 18.4007C68.8377 18.4302 68.8062 18.4529 68.7715 18.4677C68.7369 18.4824 68.7 18.4886 68.663 18.486H63.7655V21.3694H69.1334C69.1698 21.3653 69.2065 21.3703 69.2409 21.384C69.2754 21.3977 69.3068 21.4197 69.3328 21.4485C69.3588 21.4774 69.3789 21.5123 69.3916 21.5508C69.4042 21.5893 69.4092 21.6306 69.4061 21.6714V21.6492ZM54.8716 20.1743C54.8716 23.2841 53.2154 24.617 49.9741 24.617C46.9502 24.617 45.4639 23.4618 45.2308 20.5697C45.2229 20.5275 45.2238 20.4837 45.2332 20.4419C45.2426 20.4002 45.2604 20.3613 45.2851 20.3283C45.3098 20.2954 45.341 20.2691 45.3761 20.2517C45.4111 20.2343 45.4493 20.226 45.4876 20.2276H47.7012C47.8673 20.2276 47.9305 20.3431 47.978 20.5075C48.2191 21.2494 48.8041 21.6137 49.9543 21.6137C51.1876 21.6137 51.9505 21.2227 51.9505 20.2809C51.9505 19.339 51.6738 18.8059 49.8911 18.4105C47.6103 17.904 45.4047 16.8423 45.4047 13.9279C45.4047 11.2623 46.8475 9.61839 49.8911 9.61839C52.6028 9.61839 54.2392 10.7735 54.4685 13.5636C54.4772 13.6075 54.4772 13.6531 54.4685 13.6971C54.4598 13.7411 54.4425 13.7823 54.418 13.8179C54.3935 13.8536 54.3623 13.8827 54.3266 13.9033C54.2909 13.9238 54.2516 13.9352 54.2115 13.9367H52.1916C52.0257 13.9367 51.9624 13.7901 51.915 13.6257C51.741 13.026 51.16 12.595 49.9662 12.595C48.8713 12.595 48.3218 13.1637 48.3218 13.9279C48.3218 14.5454 48.2863 15.1896 49.9228 15.5406C52.334 16.0426 54.8796 16.9933 54.8796 20.1654L54.8716 20.1743ZM33.562 16.6379H35.4989C36.6097 16.6379 37.0445 16.4202 37.0445 14.6876C37.0445 12.9549 36.6136 12.7461 35.4989 12.7461H33.562V16.6379ZM39.7442 24.2749H37.4635C37.3939 24.2808 37.3246 24.2604 37.2666 24.2169C37.2085 24.1735 37.1652 24.1094 37.1433 24.035L35.3882 19.5923H33.5581V23.9816C33.5604 24.0231 33.5548 24.0647 33.5417 24.1037C33.5287 24.1426 33.5084 24.1779 33.4822 24.2073C33.456 24.2368 33.4246 24.2595 33.39 24.2743C33.3554 24.2889 33.3183 24.2952 33.2814 24.2926H30.8464C30.8092 24.2951 30.7718 24.2889 30.7368 24.2743C30.7018 24.2596 30.6699 24.237 30.6432 24.2077C30.6164 24.1785 30.5953 24.1432 30.5813 24.1043C30.5674 24.0654 30.5607 24.0236 30.5619 23.9816V10.1204C30.5607 10.0785 30.5674 10.0368 30.5813 9.99783C30.5953 9.95891 30.6164 9.92368 30.6432 9.89446C30.6699 9.86516 30.7018 9.8425 30.7368 9.8279C30.7718 9.81329 30.8092 9.807 30.8464 9.8095H35.4792C38.9536 9.8095 39.8628 11.5865 39.8628 14.6964C39.8628 16.8644 39.4201 18.375 37.9971 19.0947L39.9379 23.9062C40.0249 24.1283 39.9379 24.2749 39.7284 24.2749H39.7442ZM24.4746 21.6492V23.9639C24.4769 24.0054 24.4713 24.047 24.4582 24.0859C24.4451 24.1248 24.4248 24.1602 24.3986 24.1896C24.3725 24.219 24.341 24.2418 24.3064 24.2565C24.2718 24.2712 24.2348 24.2775 24.1978 24.2749H16.138C16.1011 24.2775 16.0641 24.2712 16.0295 24.2565C15.9949 24.2418 15.9634 24.219 15.9373 24.1896C15.9111 24.1602 15.8908 24.1248 15.8777 24.0859C15.8646 24.047 15.8591 24.0054 15.8614 23.9639V10.1204C15.8591 10.0789 15.8646 10.0373 15.8777 9.99848C15.8908 9.95955 15.9111 9.92423 15.9373 9.89474C15.9634 9.86534 15.9949 9.8425 16.0295 9.8278C16.0641 9.8131 16.1011 9.80691 16.138 9.8095H24.182C24.2189 9.80691 24.256 9.8131 24.2906 9.8278C24.3252 9.8425 24.3566 9.86534 24.3829 9.89474C24.409 9.92423 24.4293 9.95955 24.4424 9.99848C24.4555 10.0373 24.4611 10.0789 24.4587 10.1204V12.4395C24.4611 12.481 24.4555 12.5226 24.4424 12.5615C24.4293 12.6005 24.409 12.6358 24.3829 12.6652C24.3566 12.6947 24.3252 12.7174 24.2906 12.7321C24.256 12.7469 24.2189 12.7531 24.182 12.7505H18.8299V15.5494H23.7314C23.7684 15.5469 23.8054 15.5531 23.8399 15.5678C23.8746 15.5825 23.9061 15.6053 23.9322 15.6347C23.9584 15.6642 23.9787 15.6995 23.9918 15.7384C24.0048 15.7774 24.0104 15.8189 24.0081 15.8604V18.1751C24.0104 18.2166 24.0048 18.2581 23.9918 18.2971C23.9787 18.336 23.9584 18.3713 23.9322 18.4007C23.9061 18.4302 23.8746 18.4529 23.8399 18.4677C23.8054 18.4824 23.7684 18.4886 23.7314 18.486H18.8299V21.3694H24.1978C24.2343 21.3654 24.2712 21.3704 24.3059 21.3841C24.3405 21.3978 24.372 21.4197 24.3984 21.4484C24.4247 21.4772 24.4451 21.512 24.4583 21.5505C24.4714 21.589 24.477 21.6303 24.4746 21.6714V21.6492ZM7.56442 9.8095H10.035C10.2365 9.8095 10.2918 9.95604 10.2563 10.1605L7.29562 24.0217C7.27743 24.0975 7.2363 24.1638 7.17931 24.2092C7.12231 24.2546 7.05302 24.2763 6.98335 24.2705H3.28748C3.21781 24.2763 3.14852 24.2546 3.09152 24.2092C3.03453 24.1638 2.9934 24.0975 2.97521 24.0217L0.0145502 10.1605C-0.0328834 9.95604 0.0343149 9.8095 0.235908 9.8095H2.69851C2.76891 9.79886 2.84028 9.81856 2.89823 9.86479C2.95619 9.91092 2.9964 9.98008 3.01078 10.0583L4.98718 20.8007H5.26388L7.24028 10.0583C7.25466 9.98008 7.29488 9.91092 7.35283 9.86479C7.41078 9.81856 7.48216 9.79886 7.55255 9.8095" fill="#526464"/>
</svg>
