<svg width="119" height="27" viewBox="0 0 119 27" fill="none" xmlns="http://www.w3.org/2000/svg">
<path d="M11.2503 0.161033V0.993041C10.2732 1.1004 9.61296 1.26143 9.21682 1.44931C8.82068 1.63717 8.6094 2.06661 8.6094 2.71073C8.6094 3.00596 8.66223 3.3012 8.74146 3.56959C8.82068 3.83797 8.95273 4.24055 9.164 4.77734L15.0532 19.163L20.0446 6.44135C20.2823 5.82406 20.4936 5.15309 20.7048 4.48211C20.9161 3.78429 21.0217 3.27436 21.0217 2.92545C21.0217 2.2008 20.6784 1.66401 20.0183 1.34195C19.5957 1.15408 19.041 1.04672 18.3279 0.993041V0.161033H26.1187V0.993041C25.2208 1.07356 24.5606 1.36879 24.1645 1.9324C23.7683 2.46919 23.1873 3.70378 22.4214 5.66302L14.3931 26.0607C14.2346 26.4095 14.1289 26.6512 14.0232 26.7854C13.9177 26.9195 13.812 27 13.6536 27C13.4687 27 13.3103 26.8927 13.1782 26.6779C13.0462 26.4632 12.9141 26.1949 12.7557 25.8728L4.22548 5.09941C3.53884 3.40855 2.79937 2.28131 2.03352 1.66401C1.55815 1.31511 0.897914 1.1004 0 0.993041V0.161033H11.2503ZM36.3919 0.0805172V18.1968C36.3919 19.4851 36.5767 20.505 36.9201 21.2833C37.6067 22.7058 38.9008 23.4305 40.7495 23.4305C42.0171 23.4305 43.2583 23.001 44.4995 22.169C45.1862 21.7127 45.8992 21.0418 46.6123 20.2098V4.69683C46.6123 3.22068 46.3218 2.28131 45.7671 1.82505C45.2126 1.36879 44.1035 1.1004 42.4397 0.993041V0.0536782H51.3396V20.2098C51.3396 21.4443 51.5508 22.3032 51.9998 22.7862C52.4487 23.2694 53.3731 23.4572 54.7727 23.4036V24.2356C53.7692 24.504 53.0298 24.7186 52.5544 24.8528C52.0791 24.987 51.2867 25.2555 50.1775 25.6044C49.7022 25.7654 48.6722 26.168 47.0613 26.8121C46.9556 26.8121 46.9292 26.7585 46.9028 26.6779C46.8764 26.5974 46.8764 26.4901 46.8764 26.3559V21.7127C45.6087 23.2425 44.4468 24.3698 43.3904 25.1213C41.8059 26.2485 40.1157 26.8121 38.3462 26.8121C36.7353 26.8121 35.2036 26.2217 33.751 25.0676C32.2985 23.9135 31.5591 21.9811 31.5591 19.2704V4.58946C31.5591 3.08648 31.2685 2.06661 30.6347 1.55666C30.2385 1.23459 29.3935 1.01988 28.0994 0.885686V0.0536782H36.3919V0.0805172ZM61.0317 3.81113C63.3293 1.26143 66.2871 0 69.9053 0C73.4969 0 76.4812 1.20775 78.8579 3.62327C81.2085 6.03877 82.3968 9.23261 82.3968 13.2584C82.3968 16.9353 81.2612 20.156 78.9636 22.8668C76.666 25.5775 73.7082 26.9463 70.0637 26.9463C66.5777 26.9463 63.6199 25.6312 61.1902 23.0279C58.7605 20.4244 57.5721 17.1233 57.5721 13.1779C57.5721 9.47415 58.7077 6.36084 61.0317 3.81113ZM65.3628 3.0328C63.5406 4.72366 62.6162 7.6491 62.6162 11.7823C62.6162 15.0835 63.3557 18.1699 64.8347 21.0149C66.3135 23.8866 68.3471 25.3091 70.9616 25.3091C73.0215 25.3091 74.5796 24.3429 75.6889 22.4374C76.7981 20.5317 77.3526 18.009 77.3526 14.9225C77.3526 11.7018 76.6396 8.69582 75.24 5.8509C73.8401 3.00596 71.7803 1.5835 69.113 1.5835C67.6604 1.5835 66.4192 2.06661 65.3628 3.0328ZM85.1433 25.8728C86.8599 25.7386 87.9956 25.4165 88.5501 24.9334C89.1047 24.4771 89.3953 23.4841 89.3953 21.9542V9.09841C89.3953 7.24652 89.2104 5.90458 88.867 5.09941C88.5237 4.29424 87.8899 3.89164 86.9656 3.89164C86.7808 3.89164 86.5166 3.91848 86.2261 3.97217C85.9092 4.02585 85.5923 4.07952 85.249 4.16004V3.24752C86.3054 2.87177 87.4146 2.49603 88.5237 2.12028C89.6594 1.7177 90.4253 1.44931 90.8742 1.26143C91.7985 0.912524 92.7756 0.509941 93.7792 0.0536782C93.9112 0.0536782 93.9905 0.107356 94.0169 0.214712C94.0432 0.322068 94.0696 0.536779 94.0696 0.858847V5.55567C95.2317 3.86481 96.3672 2.52287 97.45 1.5835C98.5328 0.644135 99.6685 0.161033 100.83 0.161033C101.755 0.161033 102.521 0.456262 103.102 1.04672C103.683 1.63717 103.973 2.36182 103.973 3.24752C103.973 4.02585 103.762 4.69683 103.313 5.2336C102.864 5.77037 102.309 6.03877 101.623 6.03877C100.936 6.03877 100.249 5.7167 99.5364 5.04572C98.8498 4.37476 98.2952 4.05269 97.899 4.05269C97.2652 4.05269 96.4993 4.58946 95.5486 5.63618C94.6243 6.70974 94.1489 7.81014 94.1489 8.93738V21.659C94.1489 23.2694 94.5186 24.3698 95.2845 24.987C96.0239 25.6044 97.2915 25.8996 99.0346 25.8728V26.7854H85.1433V25.8728ZM114.537 0.161033C114.774 0.080517 114.748 0.429424 114.748 0.590458V20.9076C114.748 23.0546 115.012 24.3967 115.514 24.9334C116.042 25.4702 117.178 25.819 119 25.9801V26.8121H105.426V25.9801C107.433 25.7923 108.674 25.4433 109.202 24.9603C109.73 24.4503 109.968 23.1352 109.968 20.9345V7.24652C109.968 6.03877 109.889 5.17992 109.73 4.72366C109.44 3.94533 108.885 3.56959 107.987 3.56959C107.776 3.56959 107.591 3.59643 107.406 3.62327C107.221 3.6501 106.667 3.81113 105.743 4.07952V2.97913C105.743 2.95229 109.73 1.69086 114.537 0.161033Z" fill="#526464"/>
</svg>
