<svg width="68" height="68" viewBox="0 0 68 68" fill="none" xmlns="http://www.w3.org/2000/svg">
<rect x="0.707107" y="33.9412" width="47" height="47" rx="11.5" transform="rotate(-45 0.707107 33.9412)" fill="white" stroke="#0F2F2C"/>
<path fill-rule="evenodd" clip-rule="evenodd" d="M37.4372 25.6912V43.1079C37.4372 43.4874 37.1292 43.7954 36.7497 43.7954H25.7497C25.3243 43.7954 24.9164 43.6267 24.6158 43.3251C24.3142 43.0245 24.1455 42.6165 24.1455 42.1912V25.6912C24.1455 25.2659 24.3142 24.858 24.6158 24.5573C24.9164 24.2557 25.3243 24.087 25.7497 24.087H35.833C36.2583 24.087 36.6663 24.2557 36.9669 24.5573C37.2685 24.858 37.4372 25.2659 37.4372 25.6912ZM36.0622 25.6912C36.0622 25.6307 36.0383 25.572 35.9953 25.529C35.9522 25.4859 35.8935 25.462 35.833 25.462H25.7497C25.6892 25.462 25.6305 25.4859 25.5874 25.529C25.5443 25.572 25.5205 25.6307 25.5205 25.6912V42.1912C25.5205 42.2517 25.5443 42.3104 25.5874 42.3535C25.6305 42.3965 25.6892 42.4204 25.7497 42.4204H36.0622V25.6912Z" fill="#0F2F2C"/>
<path fill-rule="evenodd" clip-rule="evenodd" d="M33.7708 37.1495V43.1078C33.7708 43.4873 33.4628 43.7953 33.0833 43.7953H28.5C28.1205 43.7953 27.8125 43.4873 27.8125 43.1078V37.1495C27.8125 36.8452 27.9335 36.5546 28.148 36.3392C28.3634 36.1247 28.6549 36.0037 28.9583 36.0037H32.625C32.9284 36.0037 33.2199 36.1247 33.4353 36.3392C33.6498 36.5546 33.7708 36.8452 33.7708 37.1495ZM29.1875 37.3787V42.4203H32.3958V37.3787H29.1875Z" fill="#0F2F2C"/>
<path fill-rule="evenodd" clip-rule="evenodd" d="M43.8542 31.1912V42.1912C43.8542 43.0776 43.1355 43.7954 42.25 43.7954H36.75C36.3705 43.7954 36.0625 43.4874 36.0625 43.1079V30.2745C36.0625 29.895 36.3705 29.587 36.75 29.587H42.25C43.1355 29.587 43.8542 30.3048 43.8542 31.1912ZM42.4792 31.1912C42.4792 31.0647 42.3765 30.962 42.25 30.962H37.4375V42.4204H42.25C42.3765 42.4204 42.4792 42.3177 42.4792 42.1912V31.1912Z" fill="#0F2F2C"/>
<path fill-rule="evenodd" clip-rule="evenodd" d="M27.3535 27.0662H28.7285V28.4412H27.3535V27.0662Z" fill="#0F2F2C"/>
<path fill-rule="evenodd" clip-rule="evenodd" d="M27.3535 30.2745H28.7285V31.6495H27.3535V30.2745Z" fill="#0F2F2C"/>
<path fill-rule="evenodd" clip-rule="evenodd" d="M27.3535 33.4829H28.7285V34.8579H27.3535V33.4829Z" fill="#0F2F2C"/>
<path fill-rule="evenodd" clip-rule="evenodd" d="M30.1035 27.0662H31.4785V28.4412H30.1035V27.0662Z" fill="#0F2F2C"/>
<path fill-rule="evenodd" clip-rule="evenodd" d="M30.1035 30.2745H31.4785V31.6495H30.1035V30.2745Z" fill="#0F2F2C"/>
<path fill-rule="evenodd" clip-rule="evenodd" d="M30.1035 33.4829H31.4785V34.8579H30.1035V33.4829Z" fill="#0F2F2C"/>
<path fill-rule="evenodd" clip-rule="evenodd" d="M32.8535 27.0662H34.2285V28.4412H32.8535V27.0662Z" fill="#0F2F2C"/>
<path fill-rule="evenodd" clip-rule="evenodd" d="M39.2705 32.7954H40.6455V34.1704H39.2705V32.7954Z" fill="#0F2F2C"/>
<path fill-rule="evenodd" clip-rule="evenodd" d="M39.2705 36.0037H40.6455V37.3787H39.2705V36.0037Z" fill="#0F2F2C"/>
<path fill-rule="evenodd" clip-rule="evenodd" d="M39.2705 39.212H40.6455V40.587H39.2705V39.212Z" fill="#0F2F2C"/>
<path fill-rule="evenodd" clip-rule="evenodd" d="M32.8535 30.2745H34.2285V31.6495H32.8535V30.2745Z" fill="#0F2F2C"/>
<path fill-rule="evenodd" clip-rule="evenodd" d="M32.8535 33.4829H34.2285V34.8579H32.8535V33.4829Z" fill="#0F2F2C"/>
</svg>
