<svg width="40" height="40" viewBox="0 0 40 40" fill="none" xmlns="http://www.w3.org/2000/svg">
<path d="M32.444 39.4924C32.8923 39.4925 33.3362 39.4043 33.7504 39.2328C34.1646 39.0613 34.5409 38.8099 34.8579 38.4929C35.175 38.176 35.4265 37.7997 35.5981 37.3856C35.7697 36.9714 35.858 36.5275 35.858 36.0792V3.92212C35.858 3.01665 35.4984 2.14827 34.8581 1.50801C34.2178 0.867751 33.3495 0.508057 32.444 0.508057H7.55859C7.11023 0.507975 6.66624 0.596226 6.25199 0.767769C5.83774 0.939313 5.46135 1.19079 5.1443 1.50783C4.82726 1.82487 4.57579 2.20127 4.40424 2.61552C4.2327 3.02977 4.14445 3.47376 4.14453 3.92212V36.0792C4.14456 36.5275 4.2329 36.9714 4.40449 37.3856C4.57608 37.7997 4.82758 38.176 5.14461 38.493C5.46164 38.8099 5.838 39.0613 6.25219 39.2328C6.66638 39.4043 7.1103 39.4925 7.55859 39.4924H32.444ZM5.31672 36.0792V3.92212C5.31665 3.62765 5.37459 3.33605 5.48725 3.06399C5.5999 2.79192 5.76506 2.54471 5.97328 2.33649C6.1815 2.12827 6.42871 1.96312 6.70077 1.85046C6.97284 1.73781 7.26444 1.67986 7.55891 1.67993H32.444C33.0381 1.68172 33.6077 1.91749 34.0292 2.33618C34.2381 2.54398 34.4037 2.79114 34.5164 3.06337C34.6292 3.3356 34.6868 3.62748 34.6859 3.92212V36.0792C34.6859 36.3736 34.6279 36.6651 34.5152 36.9371C34.4025 37.2091 34.2373 37.4562 34.0291 37.6643C33.8209 37.8724 33.5737 38.0375 33.3017 38.1501C33.0297 38.2627 32.7381 38.3206 32.4438 38.3206H7.55859C7.26419 38.3206 6.97266 38.2627 6.70063 38.1502C6.42861 38.0376 6.18144 37.8725 5.97323 37.6643C5.76501 37.4562 5.59984 37.2091 5.48714 36.9371C5.37444 36.6651 5.31643 36.3736 5.31641 36.0792H5.31672Z" fill="#FF9500"/>
<path d="M26.3107 37.4823H26.3138C26.4534 37.4666 26.7331 37.546 26.9691 37.3134L33.0409 31.3252C33.0962 31.2707 33.1401 31.2058 33.1701 31.1341C33.2 31.0625 33.2155 30.9857 33.2155 30.908V7.25413C33.2155 6.91068 33.0791 6.58129 32.8364 6.33838C32.5936 6.09547 32.2642 5.95894 31.9208 5.95881H26.8942V5.44163C26.8943 5.09775 26.8266 4.75723 26.6951 4.43951C26.5635 4.12179 26.3707 3.8331 26.1275 3.58992C25.8844 3.34674 25.5957 3.15384 25.278 3.02223C24.9603 2.89062 24.6198 2.82288 24.2759 2.82288H15.7246C15.3807 2.8229 15.0402 2.89065 14.7226 3.02227C14.4049 3.15388 14.1162 3.34679 13.8731 3.58996C13.63 3.83314 13.4371 4.12182 13.3055 4.43953C13.174 4.75724 13.1063 5.09775 13.1063 5.44163V5.95881H8.07985C7.73669 5.9598 7.40776 6.09603 7.16438 6.33795C7.04368 6.45797 6.94801 6.60075 6.88291 6.75802C6.81781 6.91529 6.78459 7.08392 6.78516 7.25413V36.1877C6.78505 36.3578 6.81846 36.5262 6.88349 36.6833C6.94851 36.8404 7.04388 36.9832 7.16413 37.1034C7.28437 37.2236 7.42714 37.319 7.58427 37.384C7.7414 37.449 7.90981 37.4824 8.07985 37.4823H26.3107ZM26.79 35.8441L26.527 33.381C26.5033 33.159 26.5657 32.9364 26.7016 32.7592C26.8374 32.5819 27.0361 32.4637 27.2566 32.429C28.2879 32.2665 29.7098 32.0423 30.8231 31.8665L26.79 35.8441ZM14.2782 5.44163C14.2792 5.05801 14.4314 4.69026 14.7019 4.41819C14.8359 4.28344 14.9952 4.17661 15.1708 4.10389C15.3464 4.03116 15.5346 3.99399 15.7246 3.99452H24.2759C24.4659 3.99453 24.654 4.03196 24.8296 4.10468C25.0051 4.17741 25.1645 4.28399 25.2989 4.41835C25.4332 4.55271 25.5397 4.71221 25.6124 4.88774C25.685 5.06328 25.7224 5.25141 25.7224 5.44139V7.68147H14.2782V5.44163ZM7.95704 36.1877V7.25413C7.95693 7.23795 7.96005 7.22192 7.96621 7.20696C7.97236 7.19201 7.98144 7.17843 7.9929 7.16702C8.01596 7.14392 8.04721 7.13086 8.07985 7.13069H13.1063V8.26741C13.1063 8.42281 13.1681 8.57184 13.278 8.68173C13.3878 8.79161 13.5369 8.85334 13.6923 8.85334H26.3083C26.4637 8.85334 26.6127 8.79161 26.7226 8.68173C26.8325 8.57184 26.8942 8.42281 26.8942 8.26741V7.13069H31.9208C31.9534 7.13079 31.9847 7.14385 32.0077 7.16699C32.0308 7.19014 32.0437 7.22148 32.0436 7.25413V30.4877C31.1415 30.6301 28.6513 31.023 27.074 31.2714C26.5564 31.3528 26.09 31.6302 25.7712 32.0461C25.4525 32.4619 25.3059 32.9844 25.3617 33.5054L25.6613 36.3101H8.07985C8.0637 36.3102 8.04769 36.3071 8.03274 36.301C8.0178 36.2949 8.00421 36.2858 7.99279 36.2744C7.98136 36.263 7.97232 36.2494 7.96618 36.2345C7.96004 36.2196 7.95693 36.2036 7.95704 36.1874V36.1877Z" fill="#FF9500"/>
<path d="M10.7969 15.9807H14.9627C15.1181 15.9807 15.2671 15.919 15.377 15.8091C15.4869 15.6992 15.5486 15.5502 15.5486 15.3948V11.229C15.5486 11.0736 15.4869 10.9246 15.377 10.8147C15.2671 10.7048 15.1181 10.6431 14.9627 10.6431H10.7969C10.6415 10.6431 10.4924 10.7048 10.3826 10.8147C10.2727 10.9246 10.2109 11.0736 10.2109 11.229V15.3948C10.2109 15.5502 10.2727 15.6992 10.3826 15.8091C10.4924 15.919 10.6415 15.9807 10.7969 15.9807ZM11.3828 11.8149H14.1736L13.0973 12.8909L12.7061 12.5003C12.6523 12.4435 12.5876 12.3981 12.5159 12.3667C12.4443 12.3354 12.367 12.3187 12.2888 12.3176C12.2106 12.3166 12.1329 12.3312 12.0605 12.3607C11.988 12.3901 11.9221 12.4338 11.8668 12.4891C11.8115 12.5444 11.7678 12.6102 11.7383 12.6827C11.7088 12.7551 11.6941 12.8328 11.6951 12.911C11.6961 12.9892 11.7128 13.0664 11.7441 13.1381C11.7754 13.2098 11.8208 13.2745 11.8775 13.3284L12.683 14.1338C12.7929 14.2437 12.942 14.3054 13.0973 14.3054C13.2527 14.3054 13.4018 14.2437 13.5116 14.1338L14.3767 13.2692V14.8088H11.3828V11.8149ZM18.0121 12.6393H21.0486C21.204 12.6393 21.353 12.5776 21.4629 12.4677C21.5728 12.3578 21.6345 12.2088 21.6345 12.0534C21.6345 11.898 21.5728 11.7489 21.4629 11.6391C21.353 11.5292 21.204 11.4674 21.0486 11.4674H18.0121C17.8567 11.4674 17.7077 11.5292 17.5978 11.6391C17.4879 11.7489 17.4262 11.898 17.4262 12.0534C17.4262 12.2088 17.4879 12.3578 17.5978 12.4677C17.7077 12.5776 17.8567 12.6393 18.0121 12.6393ZM18.0121 15.1557H26.8349C26.9903 15.1557 27.1394 15.094 27.2492 14.9841C27.3591 14.8742 27.4209 14.7252 27.4209 14.5698C27.4209 14.4144 27.3591 14.2654 27.2492 14.1555C27.1394 14.0456 26.9903 13.9838 26.8349 13.9838H18.0121C17.8567 13.9838 17.7077 14.0456 17.5978 14.1555C17.4879 14.2654 17.4262 14.4144 17.4262 14.5698C17.4262 14.7252 17.4879 14.8742 17.5978 14.9841C17.7077 15.094 17.8567 15.1557 18.0121 15.1557ZM10.7969 23.5776H14.9627C15.1181 23.5776 15.2671 23.5159 15.377 23.406C15.4869 23.2961 15.5486 23.1471 15.5486 22.9917V18.8259C15.5486 18.6705 15.4869 18.5214 15.377 18.4116C15.2671 18.3017 15.1181 18.2399 14.9627 18.2399H10.7969C10.6415 18.2399 10.4924 18.3017 10.3826 18.4116C10.2727 18.5214 10.2109 18.6705 10.2109 18.8259V22.9917C10.2109 23.1471 10.2727 23.2961 10.3826 23.406C10.4924 23.5159 10.6415 23.5776 10.7969 23.5776ZM11.3828 19.4118H14.1736L13.0973 20.4881L12.706 20.0968C12.5961 19.9869 12.4471 19.9252 12.2917 19.9252C12.1363 19.9252 11.9872 19.987 11.8773 20.0969C11.7675 20.2068 11.7057 20.3558 11.7058 20.5112C11.7058 20.6667 11.7675 20.8157 11.8774 20.9256L12.683 21.731C12.7929 21.8408 12.9419 21.9026 13.0973 21.9026C13.2527 21.9026 13.4017 21.8408 13.5116 21.731L14.3767 20.866V22.4057H11.3828V19.4118ZM18.0121 20.237H21.0486C21.204 20.237 21.353 20.1752 21.4629 20.0654C21.5728 19.9555 21.6345 19.8064 21.6345 19.651C21.6345 19.4956 21.5728 19.3466 21.4629 19.2367C21.353 19.1268 21.204 19.0651 21.0486 19.0651H18.0121C17.8567 19.0651 17.7077 19.1268 17.5978 19.2367C17.4879 19.3466 17.4262 19.4956 17.4262 19.651C17.4262 19.8064 17.4879 19.9555 17.5978 20.0654C17.7077 20.1752 17.8567 20.237 18.0121 20.237ZM18.0121 22.7526H26.8349C26.9903 22.7526 27.1394 22.6909 27.2492 22.581C27.3591 22.4711 27.4209 22.3221 27.4209 22.1667C27.4209 22.0113 27.3591 21.8622 27.2492 21.7523C27.1394 21.6425 26.9903 21.5807 26.8349 21.5807H18.0121C17.8567 21.5807 17.7077 21.6425 17.5978 21.7523C17.4879 21.8622 17.4262 22.0113 17.4262 22.1667C17.4262 22.3221 17.4879 22.4711 17.5978 22.581C17.7077 22.6909 17.8567 22.7526 18.0121 22.7526ZM10.7969 31.1745H14.9627C15.1181 31.1745 15.2671 31.1127 15.377 31.0029C15.4869 30.893 15.5486 30.7439 15.5486 30.5885V26.4228C15.5486 26.2674 15.4869 26.1183 15.377 26.0084C15.2671 25.8985 15.1181 25.8368 14.9627 25.8368H10.7969C10.6415 25.8368 10.4924 25.8985 10.3826 26.0084C10.2727 26.1183 10.2109 26.2674 10.2109 26.4228V30.5885C10.2109 30.7439 10.2727 30.893 10.3826 31.0029C10.4924 31.1127 10.6415 31.1745 10.7969 31.1745ZM11.3828 27.0087H14.1736L13.0973 28.0849L12.706 27.6938C12.6517 27.639 12.5871 27.5954 12.5159 27.5657C12.4447 27.5359 12.3683 27.5205 12.2912 27.5204C12.214 27.5202 12.1376 27.5353 12.0662 27.5647C11.9949 27.5942 11.9301 27.6374 11.8756 27.692C11.821 27.7466 11.7778 27.8114 11.7483 27.8827C11.7189 27.954 11.7038 28.0304 11.704 28.1076C11.7041 28.1848 11.7196 28.2611 11.7493 28.3323C11.7791 28.4035 11.8226 28.4681 11.8774 28.5224L12.683 29.3279C12.7929 29.4378 12.9419 29.4995 13.0973 29.4995C13.2527 29.4995 13.4017 29.4378 13.5116 29.3279L14.3767 28.4629V30.0026H11.3828V27.0087ZM18.0121 27.8338H21.0486C21.204 27.8338 21.353 27.7721 21.4629 27.6622C21.5728 27.5523 21.6345 27.4033 21.6345 27.2479C21.6345 27.0925 21.5728 26.9435 21.4629 26.8336C21.353 26.7237 21.204 26.662 21.0486 26.662H18.0121C17.8567 26.662 17.7077 26.7237 17.5978 26.8336C17.4879 26.9435 17.4262 27.0925 17.4262 27.2479C17.4262 27.4033 17.4879 27.5523 17.5978 27.6622C17.7077 27.7721 17.8567 27.8338 18.0121 27.8338ZM18.0121 30.3503H26.8349C26.9903 30.3503 27.1394 30.2885 27.2492 30.1786C27.3591 30.0688 27.4209 29.9197 27.4209 29.7643C27.4209 29.6089 27.3591 29.4599 27.2492 29.35C27.1394 29.2401 26.9903 29.1784 26.8349 29.1784H18.0121C17.8567 29.1784 17.7077 29.2401 17.5978 29.35C17.4879 29.4599 17.4262 29.6089 17.4262 29.7643C17.4262 29.9197 17.4879 30.0688 17.5978 30.1786C17.7077 30.2885 17.8567 30.3503 18.0121 30.3503Z" fill="#FF9500"/>
</svg>
