<svg width="40" height="40" viewBox="0 0 40 40" fill="none" xmlns="http://www.w3.org/2000/svg">
<g clip-path="url(#clip0_2718_330)">
<path d="M28.7164 20.071C27.9531 19.7078 27.1679 19.3926 26.3654 19.1272C28.95 17.1872 30.625 14.098 30.625 10.625C30.625 4.76641 25.8586 0 20 0C14.1413 0 9.37497 4.76641 9.37497 10.625C9.37497 14.1019 11.0537 17.1941 13.6432 19.1337C11.2707 19.9148 9.0445 21.1302 7.09606 22.7328C3.52325 25.6716 1.03911 29.7708 0.101376 34.2752C-0.19253 35.6866 0.159579 37.1363 1.06724 38.2524C1.97044 39.363 3.30974 40 4.74161 40H23.9843C24.8473 40 25.5468 39.3005 25.5468 38.4375C25.5468 37.5745 24.8473 36.875 23.9843 36.875H4.74161C4.07458 36.875 3.67216 36.5027 3.49169 36.2808C3.18005 35.8976 3.05942 35.3988 3.16075 34.9121C4.78224 27.1234 11.6522 21.4339 19.5858 21.242C19.8631 21.2528 20.1409 21.2527 20.4183 21.2419C22.8495 21.2989 25.1878 21.8538 27.3748 22.8934C28.1543 23.2638 29.0863 22.9324 29.4568 22.153C29.8272 21.3736 29.4958 20.4415 28.7164 20.071ZM20.3811 18.1154C20.128 18.1107 19.8749 18.1108 19.6218 18.1155C15.6613 17.918 12.5 14.6337 12.5 10.625C12.5 6.48945 15.8644 3.125 20 3.125C24.1355 3.125 27.5 6.48945 27.5 10.625C27.5 14.6327 24.3402 17.9163 20.3811 18.1154Z" fill="#FF9500" stroke="white"/>
<path d="M38.4375 31.0157H34.1406V26.7189C34.1406 25.8559 33.4411 25.1564 32.5781 25.1564C31.7152 25.1564 31.0156 25.8559 31.0156 26.7189V31.0157H26.7188C25.8558 31.0157 25.1562 31.7153 25.1562 32.5782C25.1562 33.4412 25.8558 34.1407 26.7188 34.1407H31.0156V38.4376C31.0156 39.3006 31.7152 40.0001 32.5781 40.0001C33.4411 40.0001 34.1406 39.3006 34.1406 38.4376V34.1407H38.4375C39.3005 34.1407 40 33.4412 40 32.5782C40 31.7153 39.3005 31.0157 38.4375 31.0157Z" fill="#FF9500" stroke="white"/>
</g>
<defs>
<clipPath id="clip0_2718_330">
<rect width="40" height="40" fill="white"/>
</clipPath>
</defs>
</svg>
