<?xml version="1.0" encoding="UTF-8"?>
<svg version="1.1" xmlns="http://www.w3.org/2000/svg" width="512" height="512">
<path d="M0 0 C0.81529678 -0.00817749 1.63059357 -0.01635498 2.47059631 -0.02478027 C5.16878544 -0.04958458 7.86692175 -0.06614609 10.56518555 -0.08056641 C11.95480027 -0.08855192 11.95480027 -0.08855192 13.37248802 -0.09669876 C18.28510077 -0.12342094 23.19768831 -0.14279063 28.11035156 -0.15722656 C32.15192584 -0.17050923 36.19298844 -0.19825764 40.234375 -0.23925781 C45.13443874 -0.2889585 50.0340422 -0.31339414 54.93434715 -0.32045364 C56.78923761 -0.32710936 58.64412013 -0.34218028 60.49886513 -0.36634445 C76.74914848 -0.56581669 89.86655931 1.6088498 102.8894043 12.19287109 C103.71182617 12.81162109 104.53424805 13.43037109 105.3815918 14.06787109 C114.79680917 22.0458746 120.27679513 33.28369859 122.8894043 45.19287109 C122.99355208 46.57515801 123.054312 47.96118045 123.07885742 49.34716797 C123.09557495 50.15480591 123.11229248 50.96244385 123.1295166 51.79455566 C123.14987976 53.09000305 123.14987976 53.09000305 123.1706543 54.41162109 C123.18906372 55.30651245 123.20747314 56.20140381 123.22644043 57.12341309 C123.30495056 60.94673977 123.3727873 64.77023938 123.44165039 68.59375 C123.49347952 71.38729251 123.55068871 74.18068977 123.6081543 76.97412109 C123.62851746 78.26956848 123.62851746 78.26956848 123.64929199 79.59118652 C123.66600952 80.39882446 123.68272705 81.2064624 123.69995117 82.03857422 C123.71874329 83.09969421 123.71874329 83.09969421 123.73791504 84.18225098 C123.89623027 86.28346784 124.37415948 88.15365197 124.8894043 90.19287109 C124.95772417 92.60866169 124.97428071 95.02621822 124.9519043 97.44287109 C124.94288086 98.70615234 124.93385742 99.96943359 124.92456055 101.27099609 C124.9071582 102.71732422 124.9071582 102.71732422 124.8894043 104.19287109 C125.46948242 104.49580078 126.04956055 104.79873047 126.6472168 105.11083984 C135.78266214 110.01021235 142.07851927 115.22462815 146.0065918 124.96240234 C148.36702382 133.59991246 148.04103534 143.969105 144.1472168 152.08349609 C139.65868048 159.61085514 133.86658159 164.01535603 125.8894043 167.50537109 C122.10146987 168.3734394 118.77087099 168.32671477 114.8894043 168.19287109 C114.92420898 169.47548828 114.95901367 170.75810547 114.99487305 172.07958984 C114.98986423 177.20361289 114.2356463 181.99778892 113.2019043 187.00537109 C113.02256348 187.8804834 112.84322266 188.7555957 112.65844727 189.65722656 C109.45028638 204.52692854 102.07901864 221.43781467 89.11328125 230.42382812 C85.09744426 233.30600778 83.37636362 235.56832046 82.36206055 240.46630859 C81.57482471 248.00905449 81.0373315 255.63865832 86.00170898 261.82519531 C96.1972462 271.00117881 108.68822285 277.06229146 122.38598633 277.98876953 C127.83135412 278.43272579 133.23451124 279.28382684 138.6394043 280.06787109 C140.40441284 280.32201782 140.40441284 280.32201782 142.20507812 280.58129883 C150.34470999 281.81223742 157.5541222 283.30820987 164.8894043 287.19287109 C165.84331055 287.69560547 166.7972168 288.19833984 167.7800293 288.71630859 C181.20518323 296.52930801 189.69340685 308.82569861 194.06285858 323.52510643 C195.49842207 329.89536391 195.41254493 336.21676872 195.34350586 342.71362305 C195.34227732 344.24708865 195.34281993 345.78055651 195.34496689 347.31402111 C195.34586131 351.3805226 195.32286244 355.44654286 195.29452515 359.51293182 C195.2715608 363.34388057 195.27066276 367.17471867 195.26782227 371.0057373 C195.24692344 382.17234439 195.19107833 393.33886401 195.1394043 404.50537109 C195.0569043 429.48224609 194.9744043 454.45912109 194.8894043 480.19287109 C107.7694043 480.19287109 20.6494043 480.19287109 -69.1105957 480.19287109 C-69.4405957 452.80287109 -69.7705957 425.41287109 -70.1105957 397.19287109 C-75.0605957 404.45287109 -80.0105957 411.71287109 -85.1105957 419.19287109 C-88.33792065 423.89354003 -91.56573389 428.59371458 -94.80004883 433.28955078 C-96.61076049 435.9192654 -98.41959747 438.55026504 -100.22753906 441.18188477 C-101.14355436 442.51378556 -102.06101657 443.84469248 -102.97998047 445.17456055 C-105.34294891 448.59785155 -107.67582693 452.03683062 -109.96606445 455.50927734 C-117.68525511 467.14305842 -125.69802308 477.06872468 -140.1105957 480.19287109 C-153.82383832 481.02191748 -165.09983905 480.38697465 -176.04418945 471.16552734 C-184.26702916 463.31574653 -189.07561076 454.68748289 -189.5693903 443.1586386 C-189.65778389 439.16512109 -189.64848328 435.17463352 -189.62817383 431.18041992 C-189.63360273 429.37898698 -189.64072967 427.57755849 -189.64941406 425.77613831 C-189.66755514 420.91265924 -189.66061921 416.04952187 -189.64789772 411.1860373 C-189.63772677 406.08354453 -189.64717429 400.98107981 -189.65344238 395.87858582 C-189.66070491 387.31540708 -189.65116567 378.75236668 -189.63208008 370.18920898 C-189.61029318 360.30006594 -189.61738155 350.41125256 -189.6393857 340.52211744 C-189.65755457 332.01480602 -189.66009137 323.50759366 -189.64963102 315.00026911 C-189.64340697 309.9263056 -189.64253094 304.85249694 -189.65577698 299.77854347 C-189.66735725 295.01032933 -189.65927002 290.24253942 -189.63619995 285.47437096 C-189.63092538 283.72810443 -189.63240514 281.98180201 -189.64125061 280.23554993 C-189.69024218 269.57893734 -189.45857101 261.48157143 -181.8605957 253.19287109 C-181.33981445 252.61537109 -180.8190332 252.03787109 -180.2824707 251.44287109 C-179.70239258 250.82412109 -179.70239258 250.82412109 -179.1105957 250.19287109 C-180.3480957 249.85255859 -180.3480957 249.85255859 -181.6105957 249.50537109 C-190.81022791 246.05550902 -198.41412064 240.1840784 -202.77818298 231.26841736 C-205.59368611 224.83268335 -205.81133537 219.05682105 -205.74169922 212.10913086 C-205.74885452 210.84908234 -205.75600983 209.58903381 -205.76338196 208.290802 C-205.78173982 204.86692897 -205.76905746 201.44384467 -205.74929166 198.02000546 C-205.73276943 194.41550535 -205.74173691 190.81104992 -205.74681091 187.20652771 C-205.75131745 181.15521822 -205.73555355 175.10421927 -205.70751953 169.05297852 C-205.67548845 162.08583762 -205.67548235 155.11925688 -205.6927343 148.1520763 C-205.70867462 141.41428612 -205.70181699 134.67669864 -205.68479729 127.93891716 C-205.67797671 125.08791552 -205.67890726 122.23707882 -205.68634224 119.38607979 C-205.6955243 115.39241302 -205.67131114 111.39959016 -205.64404297 107.40600586 C-205.65056885 106.24148392 -205.65709473 105.07696198 -205.66381836 103.87715149 C-205.49915746 89.60567142 -200.42447325 78.81847142 -190.7980957 68.44287109 C-179.39728243 57.65281567 -166.74466361 55.66489068 -151.63452148 55.74682617 C-149.24676023 55.75533133 -146.86140298 55.726504 -144.47387695 55.69482422 C-128.70306863 55.62118485 -117.08464892 59.62791253 -105.3605957 70.50537109 C-95.8564571 80.54747981 -92.83925059 91.57642384 -92.61450195 105.09130859 C-93.22061475 108.88070673 -94.15078047 109.82764719 -97.1105957 112.19287109 C-99.56573486 112.67388916 -99.56573486 112.67388916 -102.33813477 112.64697266 C-103.37891174 112.64667053 -104.41968872 112.64636841 -105.49200439 112.64605713 C-107.16719147 112.61508942 -107.16719147 112.61508942 -108.8762207 112.58349609 C-110.02475525 112.5778363 -111.17328979 112.57217651 -112.35662842 112.56634521 C-116.02504145 112.5439544 -119.69247787 112.49375051 -123.3605957 112.44287109 C-125.84756076 112.42280971 -128.33454114 112.40455831 -130.8215332 112.38818359 C-136.91856632 112.34748244 -143.01348789 112.26919094 -149.1105957 112.19287109 C-149.1105957 122.75287109 -149.1105957 133.31287109 -149.1105957 144.19287109 C-143.54958008 144.12326172 -143.54958008 144.12326172 -137.8762207 144.05224609 C-134.28866953 144.02105809 -130.70113341 143.99676586 -127.11352539 143.97314453 C-124.61866505 143.95301945 -122.12385193 143.92571657 -119.62915039 143.89111328 C-116.04472202 143.84263653 -112.46091686 143.81991089 -108.8762207 143.80224609 C-107.75942932 143.78160095 -106.64263794 143.76095581 -105.49200439 143.73968506 C-104.45122742 143.73938293 -103.41045044 143.73908081 -102.33813477 143.73876953 C-101.4232428 143.72988708 -100.50835083 143.72100464 -99.56573486 143.71185303 C-96.25363439 144.36076947 -95.2094455 145.57919846 -93.1105957 148.19287109 C-92.61840439 150.90272903 -92.61840439 150.90272903 -92.62957764 154.0647583 C-92.62407898 155.26506683 -92.61858032 156.46537537 -92.61291504 157.70205688 C-92.62729614 159.01548065 -92.64167725 160.32890442 -92.65649414 161.68212891 C-92.65762265 163.08171557 -92.65698868 164.4813046 -92.65472412 165.88088989 C-92.65357617 169.67826009 -92.67709799 173.47512518 -92.70501995 177.27237797 C-92.73002043 181.24151615 -92.73237453 185.21066584 -92.73712158 189.17987061 C-92.74955537 196.69511737 -92.78238232 204.21013146 -92.82251954 211.72527575 C-92.86722479 220.28140017 -92.88922113 228.83753568 -92.90930128 237.39374781 C-92.95111469 254.9935875 -93.02147449 272.59321059 -93.1105957 290.19287109 C-92.11431152 289.97147461 -91.11802734 289.75007813 -90.09155273 289.52197266 C-71.48950195 285.38818359 -71.48950195 285.38818359 -69.11931801 284.86189079 C-67.5304388 284.50852917 -65.94179489 284.15410786 -64.35338402 283.79864693 C-60.26503385 282.885183 -56.17390824 281.99178156 -52.07363892 281.13327026 C-51.25996353 280.96011795 -50.44628815 280.78696564 -49.60795593 280.60856628 C-48.06522786 280.28078241 -46.52113216 279.9593448 -44.97550964 279.64549255 C-39.07622301 278.38083956 -34.95668022 276.2888343 -30.4855957 272.31787109 C-29.2434082 271.29964193 -28.0012207 270.28141276 -26.7590332 269.26318359 C-26.16960937 268.76334961 -25.58018555 268.26351563 -24.97290039 267.74853516 C-22.9422805 266.05227009 -20.87433813 264.42003379 -18.7746582 262.81005859 C-18.12190918 262.30845215 -17.46916016 261.8068457 -16.79663086 261.29003906 C-15.1105957 260.19287109 -15.1105957 260.19287109 -13.1105957 260.19287109 C-12.06804628 245.45598441 -12.06804628 245.45598441 -16.1574707 231.81005859 C-18.69961417 229.66079184 -21.27001777 227.92173475 -24.1105957 226.19287109 C-37.53828205 214.03756632 -43.20060122 194.60320542 -45.1105957 177.19287109 C-45.23967294 174.16816109 -45.21156014 171.22180405 -45.1105957 168.19287109 C-46.2243457 168.27537109 -47.3380957 168.35787109 -48.4855957 168.44287109 C-56.13842543 168.41578143 -63.04206805 165.06760446 -68.5793457 159.89599609 C-75.97300861 151.67243225 -77.69249637 142.95841475 -77.4230957 132.18115234 C-76.94953517 123.8089967 -73.34335378 116.77104727 -67.1105957 111.19287109 C-63.31736333 108.43948234 -59.31115665 106.25581325 -55.1105957 104.19287109 C-55.12219727 103.22865234 -55.13379883 102.26443359 -55.14575195 101.27099609 C-55.15477539 100.00771484 -55.16379883 98.74443359 -55.1730957 97.44287109 C-55.18469727 96.18990234 -55.19629883 94.93693359 -55.20825195 93.64599609 C-55.1105957 90.19287109 -55.1105957 90.19287109 -54.61236572 88.2257843 C-53.73541498 84.6728324 -53.97448202 81.00215451 -53.9699707 77.36083984 C-53.95161671 75.57371799 -53.93204408 73.78660832 -53.91137695 71.99951172 C-53.88265829 69.20674385 -53.86060179 66.4147503 -53.86010742 63.62182617 C-53.8393089 46.99934926 -51.95086523 33.53101033 -41.1105957 20.19287109 C-40.1824707 18.95923828 -40.1824707 18.95923828 -39.2355957 17.70068359 C-32.01290555 9.17684705 -22.60110255 4.45658434 -12.1105957 1.19287109 C-11.55986893 1.01380219 -11.00914215 0.83473328 -10.44172668 0.65023804 C-6.97695068 -0.02954959 -3.5176175 0.01955696 0 0 Z " fill="#000000" transform="translate(261.110595703125,15.80712890625)"/>
<path d="M0 0 C7.79610904 -0.09737732 15.16460386 0.51065006 22.875 1.6875 C23.96941406 1.83638672 25.06382812 1.98527344 26.19140625 2.13867188 C40.19231077 4.25123439 50.81442033 9.18892979 59.84765625 20.265625 C66.73245493 29.94155828 67.43458952 39.13852881 67.34057617 50.79125977 C67.33972861 52.27040082 67.34020756 53.74954314 67.34190369 55.22868347 C67.34276004 59.21987106 67.32519315 63.21078498 67.30418181 67.2019093 C67.28535451 71.38190124 67.28365982 75.56190031 67.28010559 79.7419281 C67.27080284 87.6465324 67.24621317 95.55101137 67.21605712 103.45556062 C67.17616823 114.14464384 67.16004393 124.83376164 67.14255047 135.52290058 C67.11439068 152.34869416 67.05460944 169.17422333 67 186 C22.12 186 -22.76 186 -69 186 C-71.39755352 87.25076453 -71.39755352 87.25076453 -53 53 C-48.7859934 54.28007679 -45.19612282 55.87455115 -41.41015625 58.1171875 C-39.86231445 59.02791016 -39.86231445 59.02791016 -38.28320312 59.95703125 C-37.22037109 60.58996094 -36.15753906 61.22289062 -35.0625 61.875 C-31.94702202 63.71432663 -28.83128187 65.55319156 -25.71411133 67.38964844 C-24.08091899 68.35866316 -22.45366169 69.33793613 -20.83862305 70.33691406 C-17.68189924 72.2562292 -15.42206667 73.59872812 -11.6875 73 C-8.04601034 72.42871783 -8.04601034 72.42871783 -6.81814575 70.35601807 C-5.7640879 67.32064284 -5.49508375 64.50750483 -5.22216797 61.30371094 C-5.16335449 60.63988403 -5.10454102 59.97605713 -5.04394531 59.29211426 C-4.8522667 57.10679506 -4.6721721 54.92068574 -4.4921875 52.734375 C-4.36123821 51.21545344 -4.22956515 49.69659411 -4.09719849 48.17779541 C-3.75133291 44.18683098 -3.41529337 40.19509805 -3.08129883 36.203125 C-2.73851955 32.12709405 -2.38644631 28.05186719 -2.03515625 23.9765625 C-1.34767634 15.98513233 -0.6705758 7.99286629 0 0 Z " fill="#344665" transform="translate(373,310)"/>
<path d="M0 0 C1.21616696 10.0249873 2.19817897 20.04472637 2.9296875 30.1171875 C3.0871803 32.22786901 3.24473292 34.33854605 3.40234375 36.44921875 C3.64356218 39.69204636 3.87906037 42.93486169 4.09912109 46.17919922 C4.31760716 49.36833755 4.5590659 52.55503975 4.8046875 55.7421875 C4.86526337 56.71501678 4.92583923 57.68784607 4.98825073 58.69015503 C5.40365868 64.00030875 5.40365868 64.00030875 7.84912109 68.63476562 C10.58301937 70.37006178 12.57702424 70.29208422 15.72070312 69.71191406 C20.25950695 68.29426711 24.20080587 65.8225456 28.25 63.375 C29.63119019 62.56337402 29.63119019 62.56337402 31.0402832 61.73535156 C33.70117567 60.16937738 36.35163695 58.5870457 39 57 C41.39276033 55.57799769 43.78926476 54.16277857 46.1875 52.75 C47.08855469 52.20859375 47.98960937 51.6671875 48.91796875 51.109375 C51 50 51 50 53 50 C69.08744501 79.95003061 70.45263334 108.54394921 70 141.8125 C69.98630371 142.82626709 69.97260742 143.84003418 69.95849609 144.88452148 C69.77418127 157.59616774 69.40460741 170.29139363 69 183 C42.6 183 16.2 183 -11 183 C-11 164.52 -11 146.04 -11 127 C10.12 127 31.24 127 53 127 C53 121.72 53 116.44 53 111 C31.88 111 10.76 111 -11 111 C-11.375 89.6875 -11.375 89.6875 -11.47802734 82.9675293 C-11.51323023 81.21141024 -11.54915114 79.45530536 -11.5859375 77.69921875 C-11.59729736 76.78611938 -11.60865723 75.87302002 -11.62036133 74.93225098 C-11.64042236 74.05959595 -11.6604834 73.18694092 -11.68115234 72.2878418 C-11.69447601 71.53061325 -11.70779968 70.7733847 -11.7215271 69.99320984 C-11.89708612 67.68394812 -11.89708612 67.68394812 -14 65 C-18.01832694 63.8245113 -18.01832694 63.8245113 -22 64 C-27.56151088 68.33836072 -31.01240017 74.7836424 -34.8125 80.625 C-39.39032411 87.62534729 -44.05023307 94.51204246 -49.00708008 101.25 C-53.14869514 106.96495186 -57.03785364 112.85719116 -60.97070312 118.71679688 C-61.60814453 119.65974609 -62.24558594 120.60269531 -62.90234375 121.57421875 C-63.76073853 122.85171997 -63.76073853 122.85171997 -64.63647461 124.1550293 C-65.31141968 125.06828979 -65.31141968 125.06828979 -66 126 C-66.33 126 -66.66 126 -67 126 C-68.38238609 110.02576075 -68.38238609 110.02576075 -65.13671875 105.26953125 C-62.75 103.3125 -62.75 103.3125 -60.26171875 101.58203125 C-54.74242883 97.72138804 -53.22265269 91.36034842 -52 85 C-51.81045065 82.40708947 -51.70750061 79.80672734 -51.68115234 77.20703125 C-51.67110672 76.47434525 -51.6610611 75.74165924 -51.65071106 74.98677063 C-51.62013125 72.59535417 -51.60291506 70.20404829 -51.5859375 67.8125 C-51.56720549 66.14240585 -51.54763059 64.47232096 -51.5272522 62.80224609 C-51.47613954 58.42939743 -51.43640279 54.05651815 -51.39910889 49.68353271 C-51.3589377 45.21212318 -51.30790548 40.74083869 -51.2578125 36.26953125 C-51.16130059 27.51310658 -51.07681749 18.7566195 -51 10 C-44.70318859 8.56683803 -38.40416328 7.14373968 -32.10351562 5.72753906 C-29.96139368 5.24481648 -27.81978462 4.75981196 -25.67871094 4.27246094 C-22.5970319 3.57142903 -19.51358777 2.87868604 -16.4296875 2.1875 C-15.47633514 1.96876221 -14.52298279 1.75002441 -13.54074097 1.5246582 C-8.94183366 0.50216447 -4.74599514 -0.27633159 0 0 Z " fill="#3B5073" transform="translate(219,313)"/>
<path d="M0 0 C2.28392169 0.00535903 4.56764678 0.00002926 6.8515625 -0.00634766 C14.05863945 -0.00929269 21.13988215 0.10673845 28.2890625 1.13037109 C28.13179688 1.71044922 27.97453125 2.29052734 27.8125 2.88818359 C26.84373288 7.03797709 26.15241725 11.15820676 28.3359375 14.94677734 C31.45887267 18.75859527 33.15586051 20.01705089 38.0390625 20.50537109 C41.78552837 20.42363002 44.2798196 19.55309881 47.1015625 16.90771484 C49.48721044 13.33709046 49.73036562 9.32059771 50.2890625 5.13037109 C55.5690625 5.46037109 60.8490625 5.79037109 66.2890625 6.13037109 C66.33915368 11.69473006 66.37510296 17.25895277 66.39892578 22.82348633 C66.40887538 24.70957735 66.42243989 26.59565339 66.43994141 28.48168945 C66.66252258 53.11618804 64.40479423 74.95068348 47.2890625 94.13037109 C33.41664839 105.60903983 19.40184858 109.29895183 1.6015625 109.38037109 C0.49361328 109.40099609 -0.61433594 109.42162109 -1.75585938 109.44287109 C-17.84431816 109.51809475 -31.9581441 104.50483146 -43.71875 93.28271484 C-53.88856712 82.29532419 -58.10967184 69.64824566 -60.7109375 55.13037109 C-60.973302 53.85468262 -60.973302 53.85468262 -61.2409668 52.55322266 C-61.85752745 48.06273937 -61.83427907 43.66486472 -61.80859375 39.13818359 C-61.8071788 38.19224335 -61.80576385 37.2463031 -61.80430603 36.271698 C-61.79873234 33.26622281 -61.7861847 30.26082357 -61.7734375 27.25537109 C-61.7684191 25.21110134 -61.76385679 23.16683041 -61.75976562 21.12255859 C-61.74877153 16.12513373 -61.73152507 11.12776527 -61.7109375 6.13037109 C-53.7909375 5.63537109 -53.7909375 5.63537109 -45.7109375 5.13037109 C-45.5046875 6.67724609 -45.2984375 8.22412109 -45.0859375 9.81787109 C-44.36620089 13.3415816 -43.74271646 15.76464082 -41.0859375 18.25537109 C-37.05341929 20.49565899 -34.21656024 21.27693115 -29.7109375 20.13037109 C-26.69806898 18.36039218 -24.29864939 16.30579487 -22.7109375 13.13037109 C-22.57190812 8.82046041 -22.61720218 5.29134428 -23.7109375 1.13037109 C-15.81140451 -0.0006984 -7.96129227 -0.02222869 0 0 Z " fill="#FCC7A2" transform="translate(293.7109375,138.86962890625)"/>
<path d="M0 0 C0.75052643 -0.00832352 1.50105286 -0.01664703 2.27432251 -0.02522278 C4.74405186 -0.0492214 7.21351618 -0.05808488 9.68334961 -0.06469727 C11.41483127 -0.07367533 13.14631218 -0.08279737 14.87779236 -0.09205627 C18.50660072 -0.10852421 22.13531711 -0.11624166 25.76416016 -0.11914062 C30.38161572 -0.12450458 34.9981882 -0.16211115 39.61539555 -0.20788479 C43.19397513 -0.23785084 46.77234774 -0.24486848 50.35104179 -0.24586678 C52.05127418 -0.25003487 53.75150917 -0.26232963 55.45161629 -0.28338432 C69.37967048 -0.44206557 81.61584783 1.35628898 92.27319336 11.30639648 C99.82700784 18.77217117 102.14965254 25.68869237 104.27319336 36.30639648 C104.27319336 45.54639648 104.27319336 54.78639648 104.27319336 64.30639648 C56.75319336 64.30639648 9.23319336 64.30639648 -39.72680664 64.30639648 C-39.72680664 23.46205686 -39.72680664 23.46205686 -27.07055664 10.62670898 C-19.42347164 3.64005405 -10.35327035 0.00987715 0 0 Z " fill="#415A81" transform="translate(263.726806640625,31.693603515625)"/>
<path d="M0 0 C26.4 0 52.8 0 80 0 C80 29.37 80 58.74 80 89 C35.04148345 87.84721752 35.04148345 87.84721752 21.875 79.8125 C20.46073589 79.04198905 19.04270779 78.27834871 17.62109375 77.52148438 C11.32330102 74.0675746 6.35595274 70.82574338 2 65 C2 64.67 2 64.34 2 64 C3.78615723 63.970271 3.78615723 63.970271 5.60839844 63.93994141 C10.02918532 63.86383005 14.44964543 63.77512106 18.87011719 63.68261719 C20.78281195 63.64435032 22.69557811 63.60949342 24.60839844 63.578125 C27.35898342 63.53242473 30.10907783 63.47443855 32.859375 63.4140625 C34.14083405 63.39673569 34.14083405 63.39673569 35.44818115 63.37905884 C36.24870911 63.35918915 37.04923706 63.33931946 37.87402344 63.31884766 C38.57573669 63.30552399 39.27744995 63.29220032 40.00042725 63.2784729 C42.38686299 62.94612306 43.97758347 62.30847962 46 61 C47.26120593 57.21638222 47.16237592 53.66116158 47.16796875 49.71875 C47.17129715 48.9088562 47.17462555 48.0989624 47.17805481 47.26452637 C47.18311459 45.55314705 47.18546343 43.84175788 47.18530273 42.13037109 C47.18749171 39.50992658 47.20566398 36.88990142 47.22460938 34.26953125 C47.22754297 32.60677227 47.22952799 30.9440113 47.23046875 29.28125 C47.23765427 28.49681519 47.24483978 27.71238037 47.25224304 26.9041748 C47.23609572 23.0683526 47.17896781 21.26845171 45 18 C42.29051025 17.09683675 40.59864666 16.853425 37.80395508 16.79467773 C36.96331009 16.77473251 36.1226651 16.75478729 35.25654602 16.73423767 C34.35333115 16.71752518 33.45011627 16.70081268 32.51953125 16.68359375 C31.59154221 16.66281265 30.66355316 16.64203156 29.70744324 16.62062073 C26.7425376 16.55522677 23.77754328 16.49628738 20.8125 16.4375 C18.8027252 16.39430513 16.79295937 16.35069053 14.78320312 16.30664062 C9.85555968 16.19955573 4.92782701 16.09825955 0 16 C0 10.72 0 5.44 0 0 Z " fill="#F25143" transform="translate(72,176)"/>
<path d="M0 0 C1.73618591 -0.00006042 1.73618591 -0.00006042 3.50744629 -0.00012207 C5.95179684 0.00523347 8.39614694 0.02281732 10.84033203 0.05175781 C14.58028833 0.09359939 18.31844293 0.09282635 22.05859375 0.0859375 C24.43490834 0.09643055 26.81121365 0.10936926 29.1875 0.125 C30.3053186 0.12520142 31.42313721 0.12540283 32.5748291 0.12561035 C34.14170471 0.14947815 34.14170471 0.14947815 35.74023438 0.17382812 C37.11326721 0.18645691 37.11326721 0.18645691 38.51403809 0.19934082 C41.63433226 0.676399 43.54257635 1.76301627 46.09375 3.59375 C47.34331796 6.09288591 47.23417304 7.81015175 47.25488281 10.60668945 C47.26449036 11.65149979 47.2740979 12.69631012 47.28399658 13.77278137 C47.28824646 14.90608383 47.29249634 16.03938629 47.296875 17.20703125 C47.30257507 18.36873337 47.30827515 19.53043549 47.31414795 20.7273407 C47.32360796 23.18955573 47.33013589 25.65178348 47.33398438 28.11401367 C47.3436831 31.88027073 47.37469508 35.64598065 47.40625 39.41210938 C47.41278055 41.80208009 47.41803082 44.19205471 47.421875 46.58203125 C47.4342218 47.70926102 47.4465686 48.83649078 47.45928955 49.99787903 C47.45628845 51.05214584 47.45328735 52.10641266 47.45019531 53.19262695 C47.45566376 54.57923271 47.45566376 54.57923271 47.46124268 55.99385071 C47.01274027 59.16686932 46.00648083 61.03811993 44.09375 63.59375 C41.10007982 64.59164006 39.07986991 64.731735 35.95141602 64.75488281 C34.37947227 64.76929413 34.37947227 64.76929413 32.77577209 64.78399658 C31.64449387 64.78824646 30.51321564 64.79249634 29.34765625 64.796875 C28.18499741 64.80257507 27.02233856 64.80827515 25.82444763 64.81414795 C23.36401276 64.8235985 20.90356524 64.83013215 18.44311523 64.83398438 C14.67474403 64.84370231 10.90691532 64.87473101 7.13867188 64.90625 C4.75000324 64.9127788 2.36133071 64.91802975 -0.02734375 64.921875 C-1.15659775 64.9342218 -2.28585175 64.9465686 -3.44932556 64.95928955 C-4.50044022 64.95628845 -5.55155487 64.95328735 -6.63452148 64.95019531 C-8.01993385 64.95566376 -8.01993385 64.95566376 -9.43333435 64.96124268 C-12.40517716 64.51960591 -13.75266834 63.66308457 -15.90625 61.59375 C-16.89874837 58.6162549 -17.05561356 56.57901066 -17.09912109 53.46728516 C-17.12321548 51.90018295 -17.12321548 51.90018295 -17.14779663 50.30142212 C-17.19227343 45.53363736 -17.23329304 40.76599045 -17.25634766 35.99804688 C-17.27292624 33.48200239 -17.30024082 30.96600536 -17.33837891 28.45019531 C-17.39307216 24.82331909 -17.41500922 21.19754524 -17.4296875 17.5703125 C-17.45235687 16.44621979 -17.47502625 15.32212708 -17.49838257 14.16397095 C-17.48584185 9.53919286 -17.3915723 6.46515725 -15.11767578 2.38232422 C-10.1738313 -0.37110475 -5.56894735 -0.08168084 0 0 Z " fill="#FDC8A2" transform="translate(104.90625,279.40625)"/>
<path d="M0 0 C11.53878721 3.51073739 19.15597077 10.36821314 24.84375 20.93359375 C29.9592384 34.50000724 28 47.22364518 28 62 C-7.64 62 -43.28 62 -80 62 C-76.52481323 59.68320882 -72.73571353 57.86785676 -69 56 C-68.67 47.42 -68.34 38.84 -68 30 C-63.80796875 30.01353516 -63.80796875 30.01353516 -59.53125 30.02734375 C-56.80388201 30.01229797 -54.07687075 29.98535014 -51.34960938 29.95727539 C-49.46423799 29.94419151 -47.57873814 29.94335004 -45.69335938 29.95532227 C-33.55824223 30.56073021 -33.55824223 30.56073021 -23.00390625 25.6875 C-21.9666749 24.48849722 -20.95931408 23.26220959 -20 22 C-19.17371094 21.28972656 -18.34742188 20.57945313 -17.49609375 19.84765625 C-10.67548558 13.93301121 -4.79284651 7.66855442 0 0 Z " fill="#3B5073" transform="translate(340,34)"/>
<path d="M0 0 C0.8986377 0.28294922 1.79727539 0.56589844 2.72314453 0.85742188 C12.21648027 3.64504052 20.9355777 4.64794003 30.875 4.5 C31.56779053 4.49645508 32.26058105 4.49291016 32.97436523 4.48925781 C43.7003005 4.4249492 53.78627617 3.44559358 64 0 C65.39098557 20.59983399 59.94153936 38.56906143 53.89697266 58.07666016 C52.45942845 62.76178655 51.14987006 67.47915067 49.83203125 72.19921875 C49 75 49 75 48 77 C37.44 77 26.88 77 16 77 C11.53065859 64.70931113 11.53065859 64.70931113 10.0625 58.4375 C8.63516476 52.48605409 7.08673453 46.58132394 5.4375 40.6875 C5.22593262 39.91760742 5.01436523 39.14771484 4.79638672 38.35449219 C3.94018783 35.25503883 3.06781756 32.19591738 2.015625 29.15625 C-1.13066459 19.7767452 -0.26527608 9.76896178 0 0 Z " fill="#FDC8A2" transform="translate(264,259)"/>
<path d="M0 0 C1.7290774 -0.02725341 3.45828176 -0.04650987 5.1875 -0.0625 C6.15042969 -0.07410156 7.11335938 -0.08570313 8.10546875 -0.09765625 C10.85576513 -0.00486622 13.32479591 0.37888315 16 1 C16.01401855 2.64029175 16.01401855 2.64029175 16.02832031 4.3137207 C16.06857344 8.41991033 16.13442504 12.52537818 16.20751953 16.63110352 C16.23552633 18.39891194 16.25684045 20.16684086 16.27099609 21.93481445 C16.39089972 36.07145167 17.19526017 47.18484179 27.50390625 57.83203125 C32.50803927 62.17834397 37.58178602 64.78404418 44.16577148 65.55249023 C46.0637146 65.77400757 46.0637146 65.77400757 48 66 C48.12468733 70.94375668 48.2148439 75.88657507 48.2746582 80.83154297 C48.29962211 82.50943977 48.33360619 84.18722986 48.37719727 85.86474609 C48.6515506 96.70331677 48.78193176 105.70678466 41.02319336 114.15161133 C35.66156746 119.3725592 30.46651966 121.00197306 23.0625 121.375 C16.65020663 121.19068294 12.47071799 119.30863188 7.796875 114.94140625 C0.93982974 107.62804682 -0.30254025 101.74223643 -0.22705078 91.95556641 C-0.22734283 90.95982605 -0.22763489 89.96408569 -0.22793579 88.93817139 C-0.22654663 85.65921196 -0.21100473 82.38048205 -0.1953125 79.1015625 C-0.19158091 76.82327397 -0.18873462 74.54498383 -0.18673706 72.26669312 C-0.17911217 66.27931259 -0.15947341 60.29202958 -0.1373291 54.3046875 C-0.11684609 48.19141967 -0.10773009 42.07813603 -0.09765625 35.96484375 C-0.07622652 23.97651973 -0.0421043 11.98826799 0 0 Z " fill="#48638D" transform="translate(88,359)"/>
<path d="M0 0 C0 19.8 0 39.6 0 60 C-26.4 60 -52.8 60 -80 60 C-80 52.41 -80 44.82 -80 37 C-72.31965642 33.41264617 -64.61936273 29.96149449 -56.81176758 26.66137695 C-44.10452168 21.27460037 -31.64534654 15.51049544 -19.3125 9.3125 C-18.61192474 8.96084778 -17.91134949 8.60919556 -17.18954468 8.24688721 C-0.79848778 0 -0.79848778 0 0 0 Z " fill="#354766" transform="translate(288,436)"/>
<path d="M0 0 C5.28 0 10.56 0 16 0 C16 36.96 16 73.92 16 112 C10.72 112 5.44 112 0 112 C0 93.52 0 75.04 0 56 C-21.12 56 -42.24 56 -64 56 C-64 50.72 -64 45.44 -64 40 C-42.88 40 -21.76 40 0 40 C0 26.8 0 13.6 0 0 Z " fill="#000000" transform="translate(384,384)"/>
<path d="M0 0 C1.25554687 -0.03287109 2.51109375 -0.06574219 3.8046875 -0.09960938 C14.54308846 -0.16087619 24.41691153 2.18279137 32.41015625 9.765625 C36.39766455 14.31670114 38.77064652 18.49319205 39.875 24.4375 C39.25747864 24.44114563 38.63995728 24.44479126 38.00372314 24.44854736 C31.57957247 24.4903403 25.15613839 24.5596633 18.73242188 24.64501953 C16.3347083 24.67325465 13.93690121 24.69445646 11.5390625 24.70849609 C8.09326203 24.72988972 4.64858905 24.7765238 1.203125 24.828125 C-0.40644073 24.82996796 -0.40644073 24.82996796 -2.04852295 24.83184814 C-3.54962616 24.86142609 -3.54962616 24.86142609 -5.08105469 24.89160156 C-5.96041687 24.90048401 -6.83977905 24.90936646 -7.74578857 24.91851807 C-10.95063744 25.61759787 -12.1468062 26.85844441 -14.125 29.4375 C-14.730656 31.55862198 -14.730656 31.55862198 -14.67089844 33.83886719 C-14.70047638 35.1297525 -14.70047638 35.1297525 -14.73065186 36.44671631 C-14.73249481 37.82660736 -14.73249481 37.82660736 -14.734375 39.234375 C-14.75091125 40.18314514 -14.76744751 41.13191528 -14.78448486 42.10943604 C-14.83301439 45.13552288 -14.85434695 48.16110701 -14.875 51.1875 C-14.90315551 53.24091078 -14.93308235 55.29429808 -14.96484375 57.34765625 C-15.04210602 62.37783652 -15.08257945 67.40642253 -15.125 72.4375 C-23.045 72.4375 -30.965 72.4375 -39.125 72.4375 C-39.21714424 65.90805659 -39.29669024 59.38089541 -39.34472656 52.85131836 C-39.364764 50.63314137 -39.39200173 48.41501668 -39.42675781 46.19702148 C-39.47562253 42.99710128 -39.49804812 39.79788326 -39.515625 36.59765625 C-39.53627014 35.61604019 -39.55691528 34.63442413 -39.57818604 33.62306213 C-39.58135023 23.77519822 -35.92987599 15.57285562 -29.125 8.4375 C-19.88892286 0.95909643 -11.61844143 0.05270462 0 0 Z " fill="#DBDBD9" transform="translate(111.125,87.5625)"/>
<path d="M0 0 C5.28 0.33 10.56 0.66 16 1 C16.05009118 6.56435897 16.08604046 12.12858168 16.10986328 17.69311523 C16.11981288 19.57920625 16.13337739 21.4652823 16.15087891 23.35131836 C16.37346008 47.98581695 14.11573173 69.82031239 -3 89 C-15.50402777 99.34640341 -28.74249458 104.33178582 -45 104 C-42.51934513 101.41598451 -39.91533765 99.06468942 -37.1875 96.75 C-20.67635484 82.28367319 -10.84177956 61.79713219 -9 40 C-8.91893215 37.84697315 -8.85772998 35.69314023 -8.8125 33.5390625 C-8.78776611 32.41741699 -8.76303223 31.29577148 -8.73754883 30.14013672 C-8.70470551 27.91544252 -8.70097144 25.69008896 -8.72924805 23.46533203 C-8.65527437 15.8141688 -8.65527437 15.8141688 -6.66796875 13.3449707 C-5.1494859 12.17941648 -3.57605333 11.08644498 -2 10 C-0.88128622 7.3834146 -0.88128622 7.3834146 -0.625 4.6875 C-0.41875 3.140625 -0.2125 1.59375 0 0 Z " fill="#FCBE91" transform="translate(344,144)"/>
<path d="M0 0 C48.84 0 97.68 0 148 0 C146.9155112 7.5914216 145.92473027 10.68458853 140 15.375 C132.07799695 19.41428219 121.79101139 16.77256972 113.5 15.22021484 C85.04543409 9.9315953 57.12288488 10.60582893 28.73828125 15.90625 C12.96100203 18.71018441 12.96100203 18.71018441 6.5 14.4375 C2.90204818 11.31878356 1.34671105 8.54514978 0 4 C0 2.68 0 1.36 0 0 Z " fill="#48628C" transform="translate(222,112)"/>
<path d="M0 0 C7.84681565 -0.10306804 15.24319703 0.54418608 23 1.75 C24.66675781 1.98589844 24.66675781 1.98589844 26.3671875 2.2265625 C33.37631186 3.29854623 39.55460718 5.03555579 46 8 C46 12.91799849 44.16580867 14.83107878 41.1875 18.4375 C40.69121094 19.05222168 40.19492187 19.66694336 39.68359375 20.30029297 C38.13415649 22.21018959 36.56952813 24.10659315 35 26 C34.53029785 26.57024902 34.0605957 27.14049805 33.57666016 27.72802734 C24.20461583 39.0780575 14.25862763 49.82095346 3.875 60.25 C2.73587158 61.3961377 2.73587158 61.3961377 1.57373047 62.56542969 C0.86619629 63.27086914 0.15866211 63.97630859 -0.5703125 64.703125 C-1.52574951 65.65687012 -1.52574951 65.65687012 -2.50048828 66.62988281 C-4 68 -4 68 -5 68 C-5.16428196 59.75376278 -4.66067672 51.66586778 -3.90625 43.45703125 C-3.79526978 42.20742111 -3.68428955 40.95781097 -3.56994629 39.67033386 C-3.27749363 36.3871159 -2.98089597 33.10430903 -2.68218994 29.82165527 C-2.37701914 26.45629102 -2.07743419 23.09042976 -1.77734375 19.72460938 C-1.18997697 13.14927568 -0.59713214 6.57445367 0 0 Z " fill="#3A4F72" transform="translate(373,310)"/>
<path d="M0 0 C4.2140066 1.28007679 7.80387718 2.87455115 11.58984375 5.1171875 C13.13768555 6.02791016 13.13768555 6.02791016 14.71679688 6.95703125 C15.77962891 7.58996094 16.84246094 8.22289062 17.9375 8.875 C20.05067162 10.12258154 22.16395014 11.36998204 24.27734375 12.6171875 C25.26976074 13.20467773 26.26217773 13.79216797 27.28466797 14.39746094 C34.03499996 18.39543608 34.03499996 18.39543608 41 22 C28.52149616 34.11728399 14.04512621 44.10653266 -0.375 53.75 C-1.24809814 54.33418701 -2.12119629 54.91837402 -3.02075195 55.52026367 C-7.24860428 58.310374 -11.43723247 60.78045234 -16 63 C-17.38873562 47.65881116 -13.4430078 35.59440125 -8 21.375 C-7.22649862 19.29005039 -6.45564643 17.20411595 -5.6875 15.1171875 C-3.82199059 10.06638838 -1.92440009 5.02863611 0 0 Z " fill="#3B5072" transform="translate(320,363)"/>
<path d="M0 0 C3.22899426 -0.0875127 6.45768116 -0.14056146 9.6875 -0.1875 C11.05551758 -0.22520508 11.05551758 -0.22520508 12.45117188 -0.26367188 C21.00895523 -0.35702951 21.00895523 -0.35702951 25 3 C26.24956796 5.49913591 26.14042304 7.21640175 26.16113281 10.01293945 C26.17074036 11.05774979 26.1803479 12.10256012 26.19024658 13.17903137 C26.19449646 14.31233383 26.19874634 15.44563629 26.203125 16.61328125 C26.20882507 17.77498337 26.21452515 18.93668549 26.22039795 20.1335907 C26.22985796 22.59580573 26.23638589 25.05803348 26.24023438 27.52026367 C26.2499331 31.28652073 26.28094508 35.05223065 26.3125 38.81835938 C26.31903055 41.20833009 26.32428082 43.59830471 26.328125 45.98828125 C26.3404718 47.11551102 26.3528186 48.24274078 26.36553955 49.40412903 C26.36253845 50.45839584 26.35953735 51.51266266 26.35644531 52.59887695 C26.36009094 53.52328079 26.36373657 54.44768463 26.36749268 55.40010071 C25.91899027 58.57311932 24.91273083 60.44436993 23 63 C20.11734851 63.96088383 18.32337729 64.11670941 15.33203125 64.09765625 C14.43935547 64.09443359 13.54667969 64.09121094 12.62695312 64.08789062 C11.23379883 64.07532227 11.23379883 64.07532227 9.8125 64.0625 C8.87212891 64.05798828 7.93175781 64.05347656 6.96289062 64.04882812 C4.64186288 64.03704626 2.32096356 64.02059558 0 64 C0.16233124 63.45630264 0.32466248 62.91260529 0.49191284 62.35243225 C1.08022081 59.62857945 1.12716483 57.14870349 1.12939453 54.36108398 C1.13254669 53.22988632 1.13569885 52.09868866 1.13894653 50.93321228 C1.1369223 49.71646317 1.13489807 48.49971405 1.1328125 47.24609375 C1.13376923 45.993694 1.13472595 44.74129425 1.13571167 43.45094299 C1.1363921 40.80393006 1.1350495 38.1570095 1.13037109 35.51000977 C1.12466824 32.11823816 1.1279594 28.7265456 1.13394356 25.33477688 C1.13842592 22.09687966 1.13528787 18.858992 1.1328125 15.62109375 C1.13483673 14.4023204 1.13686096 13.18354706 1.13894653 11.92784119 C1.13579437 10.79979568 1.13264221 9.67175018 1.12939453 8.50952148 C1.12859894 7.51564926 1.12780334 6.52177704 1.12698364 5.49778748 C1.10505531 2.86907841 1.10505531 2.86907841 0 0 Z " fill="#FDBF92" transform="translate(126,280)"/>
<path d="M0 0 C0 18.48 0 36.96 0 56 C-6.22875 55.938125 -12.4575 55.87625 -18.875 55.8125 C-20.82003418 55.80581299 -22.76506836 55.79912598 -24.76904297 55.79223633 C-33.7885902 55.67527766 -41.38340103 55.48189068 -49 50 C-47.471717 46.38967135 -45.32836339 44.08058234 -42.56616211 41.32324219 C-41.18979836 39.94226349 -41.18979836 39.94226349 -39.78562927 38.53338623 C-38.78304791 37.53770072 -37.78028169 36.54220133 -36.77734375 35.546875 C-35.75090183 34.52162553 -34.72482966 33.49600574 -33.69911194 32.47003174 C-31.55273204 30.32521355 -29.40304056 28.18379075 -27.25073242 26.04492188 C-24.48578879 23.29702123 -21.72752759 20.5425297 -18.97147274 17.78571701 C-16.85546617 15.66998162 -14.7368693 13.55685671 -12.61737251 11.44461823 C-11.59883994 10.42927657 -10.58091961 9.41332038 -9.56361198 8.3967514 C-8.14640641 6.98170187 -6.72552001 5.57034161 -5.30444336 4.15917969 C-4.0910453 2.95149933 -4.0910453 2.95149933 -2.85313416 1.71942139 C-1 0 -1 0 0 0 Z " fill="#E9493A" transform="translate(152,209)"/>
<path d="M0 0 C0.07438973 5.30188966 0.12871511 10.60347268 0.16479492 15.90576172 C0.1798424 17.70789892 0.2002853 19.50999973 0.22631836 21.31201172 C0.26288021 23.90862021 0.27976681 26.50474275 0.29296875 29.1015625 C0.30845261 29.9017984 0.32393646 30.7020343 0.33988953 31.52651978 C0.34155405 37.11184039 -0.5743964 41.40157985 -4.53515625 45.64453125 C-10.23360952 50.00217198 -13.86747748 50.77909092 -21 50 C-25.89472807 47.64327908 -28.31615602 44.67187656 -31 40 C-32.25282725 36.24151826 -32.12381835 32.74509081 -32.09765625 28.83203125 C-32.0962413 28.03721848 -32.09482635 27.2424057 -32.09336853 26.42350769 C-32.08777378 23.88646675 -32.07522228 21.34951425 -32.0625 18.8125 C-32.05748432 17.09179815 -32.05292153 15.37109492 -32.04882812 13.65039062 C-32.03780607 9.4335597 -32.02054506 5.21679484 -32 1 C-27.41670862 0.83216619 -22.83336053 0.6659338 -18.25 0.5 C-16.94804687 0.45230469 -15.64609375 0.40460938 -14.3046875 0.35546875 C-12.42910156 0.28779297 -12.42910156 0.28779297 -10.515625 0.21875 C-9.36352539 0.17685547 -8.21142578 0.13496094 -7.02441406 0.09179688 C-4.68382066 0.02075529 -2.34167128 0 0 0 Z " fill="#E9493A" transform="translate(152,359)"/>
<path d="M0 0 C14.11045117 5.37350986 14.11045117 5.37350986 18 11 C19.82476931 17.44866189 18.32046872 24.49006492 17.4375 31 C17.24439138 32.78970024 17.05749209 34.58008187 16.87695312 36.37109375 C16.42091356 40.74163534 15.88864899 45.09823308 15.32489014 49.45605469 C14.79936731 53.57098828 14.3258523 57.69184948 13.84765625 61.8125 C13.68270139 63.21488241 13.51745375 64.61723044 13.35180664 66.01953125 C13.23571045 67.00308594 13.11961426 67.98664063 13 69 C8.97473205 67.76106057 5.46076002 66.29204594 1.8203125 64.1796875 C0.8921875 63.64472656 -0.0359375 63.10976563 -0.9921875 62.55859375 C-1.94351562 62.00300781 -2.89484375 61.44742188 -3.875 60.875 C-4.84953125 60.31167969 -5.8240625 59.74835938 -6.828125 59.16796875 C-9.22161962 57.78349637 -11.6120838 56.39406459 -14 55 C-13.42453868 49.09148434 -12.18289908 43.82889017 -10.375 38.1875 C-6.45473773 25.58126198 -3.24054356 12.79451006 0 0 Z " fill="#47628B" transform="translate(340,293)"/>
<path d="M0 0 C3.51399125 12.07467205 6.88717236 24.17134218 9.99462891 36.35766602 C10.95272023 40.09461837 11.91739671 43.75962442 13.171875 47.41015625 C14 50 14 50 14 54 C10.47928939 55.9992471 6.95548996 57.99292169 3.42871094 59.98144531 C2.22895097 60.65894918 1.03005184 61.33797981 -0.16796875 62.01855469 C-1.88836169 62.9955328 -3.61210409 63.96660532 -5.3359375 64.9375 C-6.37282715 65.52402344 -7.4097168 66.11054688 -8.47802734 66.71484375 C-11 68 -11 68 -13 68 C-14.62288931 55.29312203 -15.89516323 42.57188996 -16.77001953 29.79101562 C-16.97764124 27.2713432 -17.29106261 24.7981357 -17.65234375 22.296875 C-18.12308067 18.2512461 -18.21537407 14.96005648 -17 11 C-13.36032261 6.64882518 -5.86581002 0 0 0 Z " fill="#47628B" transform="translate(252,294)"/>
<path d="M0 0 C0.67467562 1.74692795 1.33944156 3.49768525 2 5.25 C2.37125 6.22453125 2.7425 7.1990625 3.125 8.203125 C4 11 4 11 4 15 C-11.3346281 20.4277206 -25.39996407 22.18007272 -41.625 22.0625 C-43.41744141 22.05573242 -43.41744141 22.05573242 -45.24609375 22.04882812 C-48.16408455 22.03715616 -51.08204919 22.01922515 -54 22 C-54 16.72 -54 11.44 -54 6 C-52.44152344 5.95101562 -50.88304687 5.90203125 -49.27734375 5.8515625 C-27.50362845 5.14853701 -27.50362845 5.14853701 -6.26953125 0.5859375 C-4 0 -4 0 0 0 Z " fill="#040302" transform="translate(326,185)"/>
<path d="M0 0 C15.84 0 31.68 0 48 0 C48 5.28 48 10.56 48 16 C32.16 16 16.32 16 0 16 C0 10.72 0 5.44 0 0 Z " fill="#000000" transform="translate(272,64)"/>
<path d="M0 0 C1.5898284 0.60258863 3.17645567 1.21362655 4.76171875 1.828125 C5.64561279 2.1674707 6.52950684 2.50681641 7.44018555 2.85644531 C14.20294932 5.87759796 18.89605516 11.34319268 22 18 C22.495 20.475 22.495 20.475 23 23 C8.15 23 -6.7 23 -22 23 C-15.25 15.125 -15.25 15.125 -11.9140625 11.81640625 C-11.21152344 11.11708984 -10.50898437 10.41777344 -9.78515625 9.69726562 C-9.07230469 8.99279297 -8.35945313 8.28832031 -7.625 7.5625 C-6.88894531 6.83095703 -6.15289062 6.09941406 -5.39453125 5.34570312 C-3.59863926 3.56147277 -1.80044015 1.77963876 0 0 Z " fill="#D4D4D2" transform="translate(128,89)"/>
<path d="M0 0 C1.0236264 0.00636726 1.0236264 0.00636726 2.06793213 0.01286316 C4.23840504 0.02959903 6.40793479 0.06723916 8.578125 0.10546875 C10.05337197 0.12052229 11.52863355 0.13420953 13.00390625 0.14648438 C16.61228344 0.17948498 20.2201121 0.23123108 23.828125 0.29296875 C22.97650373 7.34806649 21.51528177 11.16563631 15.828125 15.66796875 C7.43287623 19.9721431 -4.11444673 16.90222725 -12.921875 15.29296875 C-14.01242187 15.1021875 -15.10296875 14.91140625 -16.2265625 14.71484375 C-18.87673924 14.24990046 -21.52492206 13.77586749 -24.171875 13.29296875 C-24.171875 12.63296875 -24.171875 11.97296875 -24.171875 11.29296875 C-22.11228614 9.89113876 -20.06937695 8.60856143 -17.921875 7.35546875 C-13.46445596 4.81111227 -13.46445596 4.81111227 -9.41796875 1.68798828 C-6.22269051 -0.29655736 -3.73714722 -0.04594853 0 0 Z " fill="#40597F" transform="translate(346.171875,111.70703125)"/>
<path d="M0 0 C10.56 0 21.12 0 32 0 C32 5.28 32 10.56 32 16 C21.44 16 10.88 16 0 16 C0 10.72 0 5.44 0 0 Z " fill="#D6D6D4" transform="translate(72,208)"/>
<path d="M0 0 C0.8986377 0.28294922 1.79727539 0.56589844 2.72314453 0.85742188 C12.21648027 3.64504052 20.9355777 4.64794003 30.875 4.5 C31.56779053 4.49645508 32.26058105 4.49291016 32.97436523 4.48925781 C43.7003005 4.4249492 53.78627617 3.44559358 64 0 C64 2.31 64 4.62 64 7 C43.93371269 15.42784067 21.49703105 14.96501055 1 8 C0 7 0 7 -0.0625 3.4375 C-0.041875 2.303125 -0.02125 1.16875 0 0 Z " fill="#FBB583" transform="translate(264,259)"/>
<path d="M0 0 C0 10.56 0 21.12 0 32 C-6.93164051 31.00976564 -8.43976388 30.76751958 -13 26 C-15.95546281 20.77868237 -16.6499507 16.84955628 -16 11 C-12.38694504 4.04152378 -7.86094361 0 0 0 Z " fill="#F8B280" transform="translate(216,136)"/>
<path d="M0 0 C7.91317365 1.13045338 7.91317365 1.13045338 10.8125 3.8125 C11.37582031 4.31394531 11.93914062 4.81539062 12.51953125 5.33203125 C16.09279736 9.35784821 16.55376335 13.15015822 16.4453125 18.39453125 C15.67183125 22.92007504 13.27846853 25.89290596 10 29 C6.191033 31.43773888 4.55479942 32 0 32 C0 21.44 0 10.88 0 0 Z " fill="#F8B281" transform="translate(376,136)"/>
<path d="M0 0 C7.26 0 14.52 0 22 0 C19.46273527 10.2983098 15.75373303 20.09735344 12 30 C11.34 30 10.68 30 10 30 C8.57180601 26.05043587 7.14775072 22.09941203 5.72753906 18.14697266 C5.24365357 16.80216068 4.75863256 15.45775672 4.27246094 14.11376953 C3.57449334 12.18367547 2.88060102 10.25215863 2.1875 8.3203125 C1.76855469 7.15773926 1.34960938 5.99516602 0.91796875 4.79736328 C0 2 0 2 0 0 Z " fill="#DDDDDB" transform="translate(285,352)"/>
<path d="M0 0 C0 2.97 0 5.94 0 9 C-10.56 9 -21.12 9 -32 9 C-32 6.36 -32 3.72 -32 1 C-27.41670862 0.83216619 -22.83336053 0.6659338 -18.25 0.5 C-16.94804687 0.45230469 -15.64609375 0.40460938 -14.3046875 0.35546875 C-12.42910156 0.28779297 -12.42910156 0.28779297 -10.515625 0.21875 C-9.36352539 0.17685547 -8.21142578 0.13496094 -7.02441406 0.09179688 C-4.68382066 0.02075529 -2.34167128 0 0 0 Z " fill="#DD4031" transform="translate(152,359)"/>
</svg>
