<svg width="281" height="319" viewBox="0 0 281 319" fill="none" xmlns="http://www.w3.org/2000/svg">
<g clip-path="url(#clip0_2718_880)">
<path d="M159.777 319H8.61523V100.54H176.361V304.756C176.361 312.617 168.93 319 159.777 319Z" fill="#FFFFF5"/>
<path d="M176.039 100.54H8.58008V110.673H176.039V100.54Z" fill="#94AEBF"/>
<path d="M135.367 215.54C137.629 215.54 137.629 212.979 135.367 212.979C107.368 212.979 79.3323 212.979 51.3328 212.979C49.0713 212.979 49.0713 215.54 51.3328 215.54H135.367Z" fill="#94AEBF"/>
<path d="M85.5063 117.741C73.0142 117.741 61.8145 123.294 54.2402 132.093L85.5063 159.32L116.772 132.093C109.162 123.294 97.9984 117.741 85.5063 117.741Z" fill="#CDDBA6"/>
<path d="M129.409 153.189L88.4512 159.104V200.646C111.317 200.646 129.804 182.075 129.804 159.104C129.84 157.084 129.697 155.137 129.409 153.189Z" fill="#A36652"/>
<path d="M54.2766 132.202C39.523 149.764 41.7486 175.98 59.2304 190.766C60.7739 192.064 62.3534 193.218 64.0046 194.263L85.9017 158.995L54.2766 132.202Z" fill="#B3D1E2"/>
<path d="M85.8305 200.61C78.0768 200.61 70.2872 198.447 63.4668 194.011L85.8305 159.067V200.61Z" fill="#679BC6"/>
<path d="M131.527 150.918C130.378 142.84 126.932 135.483 121.834 129.605L90.5684 156.832L131.527 150.918Z" fill="#F4D242"/>
<path d="M44.7283 269.56H28.3594V309.191H44.7283V269.56Z" fill="#679BC6"/>
<path d="M44.7283 254.198H28.3594V272.805H44.7283V254.198Z" fill="#B3D1E2"/>
<path d="M152.562 271.327H136.193V310.958H152.562V271.327Z" fill="#679BC6"/>
<path d="M152.562 237.898H136.193V274.608H152.562V237.898Z" fill="#B3D1E2"/>
<path d="M116.594 268.226H100.225V310.093H116.594V268.226Z" fill="#679BC6"/>
<path d="M116.594 264.475H100.225V292.279H116.594V264.475Z" fill="#B3D1E2"/>
<path d="M80.6619 253.621H64.293V309.84H80.6619V253.621Z" fill="#679BC6"/>
<path d="M80.6619 231.875H64.293V276.844H80.6619V231.875Z" fill="#B3D1E2"/>
<path d="M15.0054 108.473C13.8208 108.473 12.8516 107.499 12.8516 106.309C12.8516 105.119 13.8208 104.146 15.0054 104.146C16.19 104.146 17.1592 105.119 17.1592 106.309C17.1592 107.536 16.19 108.473 15.0054 108.473ZM15.0054 104.506C14.0003 104.506 13.2105 105.3 13.2105 106.309C13.2105 107.319 14.0003 108.113 15.0054 108.113C16.0105 108.113 16.8002 107.319 16.8002 106.309C16.8002 105.336 15.9746 104.506 15.0054 104.506Z" fill="white"/>
<path d="M21.646 108.473C20.4614 108.473 19.4922 107.499 19.4922 106.309C19.4922 105.119 20.4614 104.146 21.646 104.146C22.8306 104.146 23.7998 105.119 23.7998 106.309C23.7998 107.536 22.8306 108.473 21.646 108.473ZM21.646 104.506C20.6409 104.506 19.8512 105.3 19.8512 106.309C19.8512 107.319 20.6409 108.113 21.646 108.113C22.6511 108.113 23.4408 107.319 23.4408 106.309C23.4408 105.336 22.6152 104.506 21.646 104.506Z" fill="white"/>
<path d="M28.2866 108.473C27.102 108.473 26.1328 107.499 26.1328 106.309C26.1328 105.119 27.102 104.146 28.2866 104.146C29.4712 104.146 30.4404 105.119 30.4404 106.309C30.4404 107.536 29.4712 108.473 28.2866 108.473ZM28.2866 104.506C27.2815 104.506 26.4918 105.3 26.4918 106.309C26.4918 107.319 27.2815 108.113 28.2866 108.113C29.2917 108.113 30.0815 107.319 30.0815 106.309C30.0815 105.336 29.2558 104.506 28.2866 104.506Z" fill="white"/>
<path opacity="0.07" d="M264.417 307.641H163.654V151.314H273.786V298.229C273.786 303.421 269.586 307.641 264.417 307.641Z" fill="#2E4661"/>
<path d="M267.969 300.717H167.602V144.174H280.999V287.626C280.999 294.875 275.148 300.717 267.969 300.717Z" fill="#B3D1E2"/>
<path d="M271.451 156.687H179.627V214.999H271.451V156.687Z" fill="#F4F4F4"/>
<path d="M237.781 176.918C238.175 177.675 238.822 178.36 240.078 178.829C242.411 179.694 245.534 179.081 246.862 177.134C249.088 173.852 248.478 169.201 250.883 165.775C251.852 164.404 253.36 163.286 255.119 162.782C256.878 162.277 258.888 162.421 260.467 163.286C263.016 164.693 263.913 167.614 263.913 170.246C263.949 175.331 263.267 180.596 262.334 185.609C261.903 188.025 261.221 190.513 259.462 192.46C257.093 195.057 253.18 196.138 249.447 196.715C240.006 198.194 230.278 197.292 220.73 196.391C213.048 195.67 205.366 194.948 197.684 194.227C195.53 194.011 189.14 194.335 187.848 192.857C186.592 191.378 187.561 186.402 188.315 184.851C189.966 181.425 194.489 179.478 198.689 179.694C208.238 180.199 204.468 170.174 207.52 165.414C209.135 162.89 212.725 161.087 215.812 162.132C218.755 163.142 219.976 166.099 221.412 168.551C222.165 169.814 223.242 171.148 224.822 171.436C227.55 171.905 229.847 169.128 232.611 169.237C234.263 169.309 235.663 170.427 236.381 171.725C237.35 173.42 237.027 175.367 237.781 176.918Z" fill="#CDDBA6"/>
<path d="M265.421 211.825C265.421 211.825 265.421 207.642 265.421 207.39C265.456 201.115 265.456 194.876 265.456 188.601C265.456 182.615 265.959 176.629 265.851 170.679C265.815 167.902 264.631 166.46 261.723 167.217C258.887 167.938 256.267 169.633 254.472 171.977C253.252 173.564 252.246 175.547 250.344 176.196C246.97 177.35 244.206 173.528 241.154 171.653C237.888 169.633 233.329 169.958 230.421 172.446C226.867 175.439 226.078 180.668 223.062 184.202C219.76 188.133 213.765 189.431 209.134 187.267C207.232 186.366 205.581 184.995 203.714 184.058C196.283 180.307 185.945 185.717 184.725 193.975V211.068C184.761 211.068 265.564 212.005 265.421 211.825Z" fill="#679BC6"/>
<path d="M188.027 223.906H181.135V230.83H188.027V223.906Z" fill="#CDDBA6"/>
<path d="M188.027 234.147H181.135V241.071H188.027V234.147Z" fill="#679BC6"/>
<path d="M213.837 225.997H193.734V228.125H213.837V225.997Z" fill="#FFFFF5"/>
<path d="M213.514 237.14H193.412V239.268H213.514V237.14Z" fill="#FFFFF5"/>
<path d="M269.655 252.899H182.031V255.171H269.655V252.899Z" fill="#FFFFF5"/>
<path d="M221.051 259.499H182.031V290.728H221.051V259.499Z" fill="#FFFFF5"/>
<path d="M269.621 259.823H227.012V273.418H269.621V259.823Z" fill="#FFFFF5"/>
<path d="M269.19 276.988H226.58V290.583H269.19V276.988Z" fill="#FFFFF5"/>
<path d="M110.777 0H0.753832C0.358968 0 0 0.360615 0 0.829414V59.3572C0 73.7818 10.6972 85.5018 23.8714 85.5018H69.4962L88.1625 111.791C88.6651 112.476 89.7779 112.151 89.7779 111.286L90.1727 85.5018H110.813C111.244 85.5018 111.567 85.1412 111.567 84.6724V0.829414C111.531 0.360615 111.208 0 110.777 0Z" fill="#CDDBA6"/>
<path d="M82.9215 13.9919H14.3945V16.8769H82.9215V13.9919Z" fill="#FFFFF5"/>
<path d="M96.1315 35.8452H14.3945V38.7301H96.1315V35.8452Z" fill="#FFFFF5"/>
<path d="M96.1315 57.7346H14.3945V60.6195H96.1315V57.7346Z" fill="#FFFFF5"/>
<path opacity="0.07" d="M217.535 124.881H128.727V77.7485H229.955V112.404C229.955 119.291 224.391 124.881 217.535 124.881Z" fill="#2E4661"/>
<path d="M219.006 120.373H132.566V58.7803H213.514L230.852 77.1716V107.644C230.852 114.676 225.539 120.373 219.006 120.373Z" fill="#6A8678"/>
<path d="M230.779 77.3519L213.369 77.7847V58.7803L230.779 77.3519Z" fill="#F4D242"/>
<path d="M211.395 74.7556H156.258V77.3881H211.395V74.7556Z" fill="#F4F4F4"/>
<path d="M211.431 87.5215H147.535V90.154H211.431V87.5215Z" fill="#F4F4F4"/>
<path d="M211.431 100.287H147.535V102.92H211.431V100.287Z" fill="#F4F4F4"/>
</g>
<defs>
<clipPath id="clip0_2718_880">
<rect width="281" height="319" fill="white"/>
</clipPath>
</defs>
</svg>
