<svg width="40" height="40" viewBox="0 0 40 40" fill="none" xmlns="http://www.w3.org/2000/svg">
<g clip-path="url(#clip0_2718_369)">
<path d="M13.4805 30.6173C13.4703 30.5673 13.4555 30.5181 13.4359 30.4704C13.4164 30.4235 13.3922 30.3782 13.3641 30.336C13.3359 30.2932 13.3035 30.2534 13.2672 30.2173C13.231 30.181 13.1912 30.1485 13.1484 30.1204C13.1059 30.092 13.0606 30.068 13.0133 30.0485C12.9664 30.029 12.9172 30.0134 12.8672 30.004C12.7666 29.9837 12.663 29.9837 12.5625 30.004C12.5125 30.0134 12.4633 30.029 12.4156 30.0485C12.3687 30.0681 12.3234 30.0923 12.2812 30.1204C12.2383 30.1485 12.1984 30.1813 12.1625 30.2173C12.1266 30.2532 12.0938 30.2931 12.0656 30.336C12.0367 30.3782 12.0133 30.4235 11.9938 30.4704C11.974 30.5177 11.959 30.5669 11.9492 30.6173C11.9391 30.6673 11.9336 30.7188 11.9336 30.7696C11.9336 30.8204 11.9391 30.872 11.9492 30.922C11.9586 30.972 11.9742 31.0212 11.9938 31.0681C12.0133 31.1157 12.0367 31.161 12.0656 31.2032C12.0938 31.2462 12.1266 31.286 12.1625 31.322C12.1984 31.3579 12.2383 31.3907 12.2812 31.4188C12.3234 31.4471 12.3687 31.4713 12.4156 31.4908C12.4633 31.5103 12.5125 31.526 12.5625 31.5353C12.6125 31.5455 12.6641 31.551 12.7148 31.551C12.7656 31.551 12.8172 31.5455 12.8672 31.5353C12.9172 31.526 12.9664 31.5103 13.0133 31.4908C13.0609 31.4713 13.1063 31.447 13.1484 31.4188C13.1912 31.3907 13.231 31.3582 13.2672 31.322C13.3031 31.286 13.3359 31.2462 13.3641 31.2032C13.3922 31.161 13.4164 31.1157 13.4359 31.0681C13.4752 30.9734 13.4956 30.8721 13.4961 30.7696C13.4961 30.7188 13.4906 30.6673 13.4805 30.6173Z" fill="#FF9500"/>
<path d="M35.937 30.8579C35.9339 30.8501 35.9308 30.8424 35.9275 30.8347C35.2084 29.1521 33.522 28.5302 31.5263 29.2119L26.0834 30.717C25.7688 29.764 24.9838 28.9531 23.874 28.5412C23.8671 28.5387 23.8602 28.5363 23.8533 28.5339L17.8704 26.5033C17.3724 25.8596 15.8126 24.2126 12.892 24.2126C10.851 24.2126 9.04547 25.6127 8.0125 27.1389H0.78125C0.349766 27.1389 0 27.4887 0 27.9201V37.7699C0 38.2014 0.349766 38.5512 0.78125 38.5512H5.42633C5.85781 38.5512 6.20758 38.2014 6.20758 37.7699V37.0954H8.38594C8.81742 37.0954 9.16719 36.7456 9.16719 36.3141V36.0893C10.437 36.2001 10.8547 36.4409 12.0209 37.1134C12.9178 37.6306 14.2734 38.4123 16.7145 39.5098C16.7258 39.5149 16.7373 39.5198 16.7488 39.5243C17.2173 39.7086 18.1331 39.9981 19.2623 39.9981C20.0482 39.9981 20.9377 39.8577 21.8506 39.4439L33.8812 35.1364C33.9026 35.1287 33.9237 35.1201 33.9443 35.1106C35.0941 34.5816 36.8074 33.0908 35.937 30.8579ZM4.64508 36.9886H1.5625V28.7013H4.64508V36.9886ZM7.60469 35.5328H6.20758V28.7013H7.60469V35.5328ZM33.32 33.6776L21.2948 37.9831C21.2723 37.9913 21.25 38.0004 21.2281 38.0103C19.5534 38.78 17.9614 38.3192 17.3375 38.0766C14.9795 37.0156 13.721 36.2899 12.8015 35.7597C11.523 35.0225 10.907 34.6672 9.16719 34.5235V28.2312C9.90773 27.0174 11.3438 25.775 12.8921 25.775C15.5473 25.775 16.6723 27.5019 16.7166 27.5716C16.812 27.7268 16.9585 27.8437 17.131 27.9023L23.34 30.0096C24.3316 30.3818 24.8557 31.231 24.6148 32.0779C24.5607 32.2704 24.4689 32.4502 24.3447 32.607C24.2206 32.7638 24.0666 32.8944 23.8916 32.9912C23.5425 33.1869 23.13 33.2363 22.7445 33.1286L15.7451 30.9105C15.3335 30.7801 14.8946 31.0079 14.7643 31.4192C14.6339 31.8305 14.8617 32.2696 15.273 32.4L22.2847 34.6219C22.2921 34.6243 22.2995 34.6266 22.307 34.6287C22.5829 34.7074 22.8684 34.7474 23.1552 34.7476C23.6738 34.7476 24.1867 34.6155 24.6522 34.3562C25.372 33.9551 25.8924 33.2978 26.1177 32.5052C26.1357 32.4419 26.1516 32.3787 26.1655 32.3154L32.0313 30.6904C32.8785 30.401 33.9906 30.2967 34.4858 31.4371C34.9983 32.7759 33.6662 33.5124 33.32 33.6776ZM28.0516 10.2767C28.0414 10.2267 28.0266 10.1775 28.0063 10.1298C27.9867 10.083 27.9633 10.0376 27.9344 9.99546C27.9062 9.95266 27.8738 9.91287 27.8375 9.87671C27.8013 9.84043 27.7615 9.80797 27.7188 9.77983C27.6766 9.75171 27.6312 9.72749 27.5844 9.70796C27.5373 9.68829 27.4883 9.67337 27.4383 9.66343C27.3375 9.64312 27.2336 9.64312 27.1328 9.66343C27.0828 9.6728 27.0336 9.68843 26.9867 9.70796C26.9391 9.72749 26.8938 9.75171 26.8516 9.77983C26.8086 9.80796 26.7687 9.84077 26.7328 9.87671C26.6969 9.91265 26.6641 9.95249 26.6359 9.99546C26.6078 10.0376 26.5836 10.083 26.5641 10.1298C26.5443 10.1772 26.5294 10.2264 26.5195 10.2767C26.5094 10.3267 26.5039 10.3783 26.5039 10.4291C26.5039 10.4798 26.5094 10.5314 26.5195 10.5814C26.5289 10.6314 26.5445 10.6806 26.5641 10.7275C26.5836 10.7751 26.6078 10.8205 26.6359 10.8626C26.6641 10.9056 26.6969 10.9455 26.7328 10.9814C26.7687 11.0173 26.8086 11.0501 26.8516 11.0783C26.8938 11.1064 26.9391 11.1306 26.9867 11.1501C27.0336 11.1697 27.0828 11.1845 27.1328 11.1947C27.1828 11.2048 27.2344 11.2103 27.2852 11.2103C27.3359 11.2103 27.3875 11.2048 27.4383 11.1947C27.4875 11.1845 27.5367 11.1697 27.5844 11.1501C27.6312 11.1306 27.6766 11.1064 27.7188 11.0783C27.7615 11.0501 27.8013 11.0177 27.8375 10.9814C27.8734 10.9455 27.9062 10.9056 27.9344 10.8626C27.9633 10.8205 27.9867 10.7751 28.0063 10.7275C28.0266 10.6806 28.0414 10.6314 28.0516 10.5814C28.0617 10.5314 28.0664 10.4798 28.0664 10.4291C28.0664 10.3783 28.0617 10.3267 28.0516 10.2767Z" fill="#FF9500"/>
<path d="M39.2195 2.64763H34.5744C34.1429 2.64763 33.7931 2.99739 33.7931 3.42888V4.10341H31.6148C31.1833 4.10341 30.8335 4.45317 30.8335 4.88466V5.1095C29.5637 4.99864 29.146 4.75786 27.9799 4.08536C27.083 3.56817 25.7274 2.78653 23.2863 1.68896C23.275 1.68382 23.2635 1.679 23.2519 1.6745C22.4573 1.36185 20.3747 0.746689 18.1504 1.75474L15.0067 2.88036L12.3567 0.230518C12.0517 -0.0745605 11.557 -0.0745605 11.2519 0.230518L2.55205 8.93028C2.27065 9.21177 2.21666 9.69981 2.55205 10.0352L17.4182 24.9014C17.6561 25.1393 18.2131 25.2113 18.5231 24.9014L26.4657 16.9589C26.6722 16.9767 26.8865 16.9863 27.1086 16.9863C29.1497 16.9863 30.9552 15.5861 31.9881 14.06H39.2195C39.651 14.06 40.0007 13.7103 40.0007 13.2788V3.42888C40.0007 2.99739 39.651 2.64763 39.2195 2.64763ZM11.8042 1.88778L13.5849 3.66841C13.0556 3.99575 12.4436 4.17091 11.8042 4.17091C11.1648 4.17091 10.5529 3.99583 10.0236 3.66841L11.8042 1.88778ZM5.99002 11.2634L4.2094 9.48271L5.99002 7.70208C6.31737 8.23138 6.49252 8.84333 6.49252 9.48271C6.49252 10.1221 6.31744 10.734 5.99002 11.2634ZM17.9707 23.244L16.1904 21.4637C17.2774 20.7929 18.6639 20.7929 19.751 21.4637L17.9707 23.244ZM20.8766 20.3383C19.1502 19.0859 16.7913 19.0859 15.0649 20.3383L7.11557 12.3889C7.72565 11.5498 8.05502 10.5419 8.05502 9.48271C8.05502 8.42341 7.72572 7.4156 7.11557 6.57653L8.89815 4.79403C9.73721 5.40411 10.745 5.73349 11.8043 5.73349C12.8636 5.73349 13.8714 5.40411 14.7105 4.79403L16.4003 6.4838C16.0308 6.5387 15.6745 6.66026 15.3485 6.84255C14.7885 7.15458 14.3492 7.62185 14.0756 8.18716C13.1901 8.35126 12.3752 8.78006 11.7385 9.41692C10.0021 11.1533 10.0021 13.9786 11.7385 15.715C12.6067 16.5831 13.7471 17.0172 14.8875 17.0172C16.0279 17.0172 17.1684 16.5832 18.0366 15.715C18.6014 15.1501 18.9971 14.4559 19.1953 13.6993L21.8331 14.5946C21.5362 15.9702 21.8403 17.4174 22.6607 18.5541L20.8766 20.3383ZM16.1267 12.6575C16.1336 12.66 16.1405 12.6625 16.1474 12.6649L17.7096 13.1951C17.5917 13.7275 17.3247 14.2171 16.9317 14.6101C15.8046 15.7372 13.9705 15.7373 12.8435 14.6101C11.7163 13.483 11.7163 11.649 12.8435 10.5218C13.113 10.2521 13.4333 10.0384 13.7858 9.8931C13.93 11.0933 14.7942 12.163 16.1267 12.6575ZM23.7864 17.4283C23.4859 16.9374 23.3142 16.3786 23.2873 15.8036C23.7124 16.1107 24.1756 16.3615 24.6651 16.5497L23.7864 17.4283ZM30.8335 12.9673C30.093 14.1812 28.6569 15.4236 27.1086 15.4236C26.8189 15.4236 26.5474 15.403 26.2936 15.3663L26.2906 15.3658C24.6034 15.1208 23.6958 14.1618 23.3967 13.7822C23.3807 13.7587 23.3128 13.6699 23.3028 13.6551C23.2086 13.4865 23.0552 13.3589 22.8722 13.2971L16.6606 11.1889C15.6694 10.8168 15.1454 9.96802 15.3856 9.12146L15.386 9.11981L15.3866 9.11786C15.441 8.92592 15.5328 8.74665 15.6568 8.59036C15.7808 8.43407 15.9345 8.30386 16.109 8.20724C16.4581 8.01142 16.8707 7.96206 17.2561 8.06997L24.2556 10.288C24.667 10.4186 25.106 10.1906 25.2363 9.77927C25.3667 9.36794 25.1389 8.92888 24.7276 8.79849L19.1608 7.03442L19.1122 6.98583L19.1107 6.98435L16.2287 4.10231L18.7059 3.21528C18.7142 3.21224 18.7246 3.20841 18.7328 3.20505L18.741 3.20177C18.7516 3.19748 18.7621 3.19294 18.7725 3.18817C20.4472 2.41849 22.0391 2.87919 22.6631 3.12185C25.0211 4.18286 26.2797 4.90856 27.1992 5.4388C28.4777 6.17606 29.0937 6.5313 30.8335 6.67497V12.9673ZM33.7931 12.4974H32.396V5.66591H33.7931V12.4974ZM38.4382 12.4974H35.3556V4.21013H38.4382V12.4974Z" fill="#FF9500"/>
</g>
<defs>
<clipPath id="clip0_2718_369">
<rect width="40" height="40" fill="white"/>
</clipPath>
</defs>
</svg>
